<?xml version="1.0" standalone="no"?>
<!DOCTYPE svg PUBLIC "-//W3C//DTD SVG 1.1//EN" "http://www.w3.org/Graphics/SVG/1.1/DTD/svg11.dtd">
<svg xmlns="http://www.w3.org/2000/svg" xmlns:xlink="http://www.w3.org/1999/xlink" version="1.1" id="Layer_1" x="0px" y="0px" width="1024" viewBox="0 0 1024 672" enable-background="new 0 0 1024 672" xml:space="preserve" height="672">
<path fill="currentColor" opacity="1.000000" stroke="none" d=" M220.861603,441.050262   C188.974564,450.362854 158.178391,448.089294 128.457855,434.466431   C108.836411,425.472595 93.128586,411.462463 80.767296,393.745300   C80.024414,392.680542 79.006950,391.871460 80.114403,390.266907   C80.916298,389.104980 79.547386,387.517548 78.792389,387.504791   C74.996201,387.440735 74.361626,384.266510 73.246925,381.941956   C65.225571,365.214569 59.702179,348.054535 58.608734,329.090485   C56.580410,293.912323 68.806381,264.445099 91.828194,239.071671   C109.018074,220.125854 131.138565,208.982040 156.070923,203.931213   C196.249863,195.791718 232.789413,203.883331 264.546021,230.355469   C286.946808,249.028687 299.420563,273.523254 305.322296,301.814148   C316.575531,355.758331 282.846741,421.780243 220.861603,441.050262  M128.669174,397.817871   C150.734634,413.821472 175.135040,419.405701 201.896805,413.989471   C248.566696,404.544037 282.647980,359.530945 274.307373,308.565704   C265.491302,254.695068 212.819748,224.272354 162.331329,235.429657   C124.278954,243.838715 96.646744,273.201691 91.644547,311.167633   C86.970840,346.640472 99.965134,375.405487 128.669174,397.817871  M60.077106,317.928741   C60.077106,322.865906 60.077106,327.803040 60.077106,332.740204   C60.283829,332.738464 60.490555,332.736725 60.697277,332.734985   C60.697277,326.271973 60.697277,319.808960 60.697277,313.345917   C60.595352,313.339722 60.493427,313.333496 60.391499,313.327271   C60.290264,314.582062 60.189030,315.836823 60.077106,317.928741  z"/>
<path fill="currentColor" opacity="1.000000" stroke="none" d=" M389.128723,324.915222   C391.661865,328.862579 394.071960,332.462646 396.335052,336.152863   C398.159058,339.127045 399.585632,342.257568 395.925232,344.963440   C392.743744,347.315308 387.134033,346.418732 384.766357,342.972595   C380.049988,336.108063 375.527832,329.109314 370.973206,322.134796   C368.034821,317.635284 358.504395,314.987854 353.877380,317.386993   C352.161560,318.276703 352.326294,319.805695 352.313751,321.267731   C352.263733,327.099396 352.353180,332.933441 352.225555,338.763000   C352.112640,343.920990 349.767181,346.237610 344.955811,346.286774   C340.400848,346.333374 337.864136,344.146423 337.830566,339.187988   C337.685150,317.693848 337.732910,296.198395 337.738953,274.703400   C337.740082,270.723419 339.830200,268.233124 343.777466,268.186401   C354.756409,268.056458 365.817535,266.916077 376.693268,268.810883   C386.371552,270.497131 393.558105,275.845734 396.305115,285.800568   C398.669495,294.368927 397.721985,302.398285 391.221710,308.986481   C388.928253,311.311005 386.047913,313.056488 383.295349,315.174133   C384.426971,318.876526 387.104340,321.500946 389.128723,324.915222  M365.408264,279.981354   C362.246155,279.989410 359.084076,279.998779 355.921967,280.005096   C353.474487,280.009979 352.283936,281.163574 352.301514,283.680389   C352.344574,289.838013 352.308563,295.996277 352.296783,302.154266   C352.293274,303.993011 352.709656,305.614807 354.942841,305.581421   C361.400177,305.484894 367.933502,306.498871 374.269470,304.431061   C379.612274,302.687317 382.695251,298.444214 382.756836,292.826141   C382.823883,286.710663 380.388550,283.178314 374.738495,280.994171   C372.012817,279.940552 369.172119,280.173096 365.408264,279.981354  z"/>
<path fill="currentColor" opacity="1.000000" stroke="none" d=" M722.683838,339.611938   C722.667175,330.491425 722.673645,321.829102 722.650269,313.166870   C722.625244,303.886719 718.654236,298.601868 711.773743,298.641968   C705.065491,298.681061 699.625854,304.801605 699.411194,313.084076   C699.186707,321.740723 699.308228,330.407532 699.354492,339.069489   C699.378296,343.522980 697.250793,345.971222 692.848083,346.254791   C688.668884,346.523956 685.911499,344.549805 685.867615,340.271881   C685.706848,324.615234 685.762024,308.956268 685.754883,293.298187   C685.753784,290.905518 686.826660,288.956421 689.077026,288.203278   C691.823181,287.284210 694.706665,287.139404 697.063232,289.331848   C698.019592,290.221649 698.725464,291.380615 699.719116,292.636810   C704.950867,288.943542 710.552551,286.205078 717.215698,286.739716   C723.931946,287.278656 729.080078,290.587463 733.228699,296.273621   C737.641174,290.628143 743.043274,287.325531 749.878662,286.776886   C762.632568,285.753174 771.799683,294.301239 772.205078,308.028503   C772.509827,318.347565 772.336426,328.683502 772.237183,339.010559   C772.190796,343.840393 769.709595,346.276611 765.293030,346.299652   C760.877258,346.322662 758.741150,344.011139 758.698547,338.840759   C758.621643,329.512726 758.812195,320.180298 758.602966,310.856171   C758.413513,302.415863 754.137512,298.436554 746.578918,299.148499   C740.535950,299.717743 736.444580,304.000732 736.282715,310.565125   C736.052795,319.888428 736.205383,329.220581 736.104675,338.547974   C736.061035,342.589386 734.711121,345.861359 730.043335,346.252625   C725.646790,346.621124 723.064880,344.602112 722.683838,339.611938  z"/>
<path fill="currentColor" opacity="1.000000" stroke="none" d=" M589.294556,275.035095   C589.722229,271.433807 588.880310,267.714294 592.924622,266.058807   C598.160095,263.915833 603.000671,266.831635 603.029907,272.590027   C603.143250,294.901123 603.043396,317.213257 603.012878,339.525024   C603.008240,342.905487 601.596741,345.415924 598.138123,346.128906   C594.617249,346.854645 591.468262,346.244476 589.730225,342.548523   C589.387573,341.820129 589.007385,341.109467 588.633667,340.369263   C572.269714,350.742340 557.983276,348.897644 549.645691,335.068695   C543.172058,324.331390 542.748230,312.869263 548.148987,301.612732   C554.125427,289.156219 567.558350,283.692505 580.005737,288.241302   C582.906616,289.301453 585.561218,291.035370 589.251709,292.933838   C589.251709,286.652924 589.251709,281.046021 589.294556,275.035095  M563.618042,303.117737   C557.440002,310.281921 557.645935,318.597717 560.744507,326.549225   C564.685608,336.663147 578.840820,338.521606 585.338623,330.141846   C589.659302,324.569855 590.525146,318.075073 588.937744,311.248291   C586.018555,298.694183 574.382263,294.638214 563.618042,303.117737  z"/>
<path fill="currentColor" opacity="1.000000" stroke="none" d=" M955.214722,304.154572   C958.836670,315.069214 958.142944,325.227386 952.303650,334.779205   C945.744568,345.508392 930.050110,353.019012 913.344177,340.732147   C913.344177,347.196747 913.373169,353.085602 913.335876,358.973999   C913.300232,364.600494 911.308899,367.122345 906.945923,367.202759   C902.322632,367.287903 899.768188,364.501892 899.755066,359.027222   C899.706055,338.538391 899.746399,318.049377 899.704529,297.560516   C899.696350,293.560944 899.921082,289.568024 904.374878,288.051880   C908.945862,286.495880 911.977356,288.921356 913.763367,293.032745   C932.399719,282.116547 946.870483,285.952209 955.214722,304.154572  M915.440491,306.098877   C912.333740,311.503693 912.592590,317.393951 913.580505,323.140442   C914.777527,330.103027 920.807312,335.190613 927.399780,335.606262   C933.664124,336.001190 939.682922,331.645233 941.963379,324.791473   C942.743652,322.446564 943.205200,319.937317 943.409668,317.469788   C944.061218,309.607758 939.982666,302.268311 933.779907,299.763672   C927.084045,297.059906 921.197205,298.927460 915.440491,306.098877  z"/>
<path fill="currentColor" opacity="1.000000" stroke="none" d=" M439.354553,287.112854   C444.464966,287.957916 448.414612,290.427460 452.504089,292.930084   C452.966095,292.235687 453.378296,291.723724 453.675507,291.152039   C455.577820,287.492493 458.846588,287.211304 462.274567,287.928314   C465.542328,288.611847 466.926605,291.298615 466.946350,294.262238   C467.048492,309.578522 466.993896,324.896576 466.878052,340.213074   C466.854187,343.365845 465.176208,345.589478 461.906891,346.198730   C457.492126,347.021484 454.440979,345.289246 453.040894,340.359802   C439.606903,349.911835 426.835144,350.024994 415.478455,338.267059   C406.738770,329.218567 405.324677,314.088348 411.169434,302.299164   C416.585358,291.374939 426.391022,285.969421 439.354553,287.112854  M422.307220,320.078674   C422.835510,326.761993 425.777039,331.807831 432.184540,334.414276   C438.068573,336.807770 443.355804,335.363983 447.929260,331.367279   C455.251984,324.967957 455.349823,309.474640 448.272797,302.786743   C443.119049,297.916473 436.036133,297.162628 429.892426,300.922882   C422.966370,305.161987 421.912811,311.899292 422.307220,320.078674  z"/>
<path fill="currentColor" opacity="1.000000" stroke="none" d=" M646.733032,286.744995   C671.467773,290.181366 678.106750,312.116913 672.561462,327.976410   C667.370056,342.823639 652.641052,348.518646 640.844116,347.009094   C625.357727,345.027405 615.740906,334.187561 614.970581,318.746704   C614.020508,299.701813 626.711182,286.726807 646.733032,286.744995  M632.717529,304.291412   C627.996460,311.401764 627.765015,319.098785 630.826416,326.663300   C634.459229,335.639954 645.745972,338.483551 653.390198,332.931915   C658.116211,329.499634 659.510864,324.405823 660.446289,319.126984   C661.642029,312.378326 657.229309,303.527802 651.373230,300.496735   C645.118713,297.259399 639.069580,298.335083 632.717529,304.291412  z"/>
<path fill="currentColor" opacity="1.000000" stroke="none" d=" M495.052582,324.002350   C495.019348,329.330505 495.175537,334.171234 494.900482,338.987335   C494.622406,343.856659 492.058441,346.266052 487.767944,346.306458   C483.584869,346.345856 481.068878,343.859192 481.007385,338.774689   C480.842285,325.117889 480.915100,311.458069 480.915070,297.799469   C480.915070,293.941803 480.595337,289.656555 485.170776,288.088684   C489.625977,286.561981 493.333557,288.114563 495.459961,292.689636   C502.513489,287.571930 509.862823,285.290375 518.256714,287.599182   C528.282349,290.356842 533.430237,297.304413 533.977539,310.304596   C534.376587,319.781067 534.154297,329.292084 533.951965,338.782257   C533.837036,344.174347 531.443054,346.411469 526.736450,346.322235   C522.197754,346.236237 519.953857,343.829193 519.865540,338.356476   C519.720520,329.363861 519.864563,320.366943 519.764099,311.373199   C519.671021,303.040314 516.092896,298.862793 509.023682,298.555084   C502.089905,298.253296 496.084534,303.345764 495.387238,310.527191   C494.970062,314.823151 495.144318,319.176544 495.052582,324.002350  z"/>
<path fill="currentColor" opacity="1.000000" stroke="none" d=" M791.001831,326.891052   C790.995972,319.412964 790.908386,312.417450 791.024597,305.425262   C791.079041,302.146118 790.479675,299.966278 786.484924,299.967346   C783.228271,299.968231 780.498169,298.605103 780.374939,294.785767   C780.244019,290.726685 782.699463,288.550537 786.454712,288.241119   C789.838013,287.962311 790.994995,286.464905 791.106018,283.206024   C791.194824,280.600189 791.508667,277.825348 793.695129,275.864746   C795.767578,274.006409 798.192688,273.914551 800.730591,274.609100   C803.598389,275.393890 804.918335,277.713043 804.795410,280.258087   C804.514221,286.082611 806.505615,288.678040 812.733215,288.201416   C816.572632,287.907562 819.416382,290.055420 819.325195,294.583862   C819.233093,299.158722 816.125854,299.878418 812.519836,300.034027   C805.085754,300.354706 805.085815,300.359680 805.087646,307.950043   C805.089294,314.444611 805.057617,320.939392 805.102966,327.433655   C805.148254,333.920135 805.800903,334.619476 812.255554,334.686279   C816.086670,334.725922 819.386475,335.140533 819.314453,340.158752   C819.261108,343.877258 816.889954,345.555634 813.759583,346.201324   C801.185730,348.794800 789.788513,344.494904 791.001831,326.891052  z"/>
<path fill="currentColor" opacity="1.000000" stroke="none" d=" M852.990723,287.552277   C855.465210,286.659393 857.636536,286.551636 859.785645,286.835327   C863.145813,287.278992 865.238831,289.030396 865.360962,292.686371   C865.481323,296.286591 864.195129,298.845245 860.484375,299.738098   C859.683044,299.930939 858.847168,300.003021 858.022278,300.071533   C848.528442,300.860352 844.482544,305.102203 844.329041,314.745636   C844.202087,322.724274 844.326477,330.706635 844.246521,338.686401   C844.207825,342.556763 842.693970,345.514648 838.496704,346.237366   C834.000549,347.011566 830.782349,344.686279 830.739807,340.125549   C830.593933,324.498596 830.679810,308.869415 830.690735,293.241089   C830.692810,290.349823 832.194031,288.449036 834.951538,287.875183   C839.177246,286.995789 842.390930,288.438934 843.966675,292.864410   C846.761414,290.611847 849.108826,288.157440 852.990723,287.552277  z"/>
<path fill="currentColor" opacity="1.000000" stroke="none" d=" M887.033936,311.000916   C887.032776,320.318237 887.049622,329.135864 887.029358,337.953369   C887.023132,340.675476 886.675232,343.314270 884.181763,345.040985   C879.438904,348.325439 873.281128,345.782440 873.162781,340.013275   C872.848938,324.715118 872.929138,309.405731 873.088745,294.103241   C873.130737,290.082214 875.538635,287.620636 879.838867,287.717102   C884.239929,287.815826 886.700378,290.321014 886.927246,294.535492   C887.212952,299.843994 887.022644,305.178070 887.033936,311.000916  z"/>
<path fill="currentColor" opacity="1.000000" stroke="none" d=" M572.579590,401.358704   C571.363159,397.858917 570.328491,394.707794 569.009216,390.690094   C567.909119,394.259003 567.069641,397.159546 566.110107,400.019867   C565.637695,401.428162 565.096619,402.936707 563.217957,403.026764   C561.057800,403.130371 560.388794,401.497498 559.913513,399.892639   C558.497375,395.110504 557.157043,390.305145 555.858154,385.489655   C555.507690,384.190430 555.286621,382.694031 557.120911,382.266663   C558.590027,381.924438 559.656616,382.557770 560.275696,384.016083   C561.425049,386.723297 561.338989,389.872650 563.236389,392.485931   C564.932312,390.527344 564.902344,388.090973 565.723938,385.987274   C566.377869,384.312622 566.693665,382.213654 569.098633,382.271729   C571.467773,382.328888 571.779785,384.407593 572.373108,386.108612   C573.132080,388.284363 573.856628,390.472046 574.747253,393.100922   C576.797058,390.434753 576.833557,387.546906 577.693787,384.981140   C578.290771,383.200562 579.203247,381.810516 581.235535,382.437988   C583.294128,383.073486 582.579590,384.851562 582.198792,386.240692   C580.924438,390.889099 579.670227,395.548737 578.183594,400.131195   C577.242920,403.030975 575.510010,404.429169 572.579590,401.358704  z"/>
<path fill="currentColor" opacity="1.000000" stroke="none" d=" M380.134521,392.457092   C382.513275,392.726715 381.509155,390.610321 382.126923,389.571594   C382.868195,388.325256 383.111420,386.763794 383.469635,385.313873   C383.839996,383.814758 384.142883,382.300201 386.105957,382.228088   C388.174805,382.152130 388.938782,383.503845 389.448090,385.256012   C390.226837,387.935272 391.137848,390.576080 392.414764,394.545105   C393.546814,390.529816 394.297119,387.751740 395.119324,384.995117   C395.630035,383.282715 396.493286,381.758118 398.634613,382.473785   C400.752075,383.181488 399.888885,384.826965 399.484711,386.231201   C398.198608,390.699646 396.893646,395.162659 395.600800,399.629150   C395.131592,401.250183 394.725494,402.965576 392.577789,403.043732   C390.088409,403.134338 389.778351,401.116241 389.232300,399.391357   C388.434906,396.872589 387.678589,394.340790 386.776855,391.397034   C384.633820,394.141724 384.557739,397.193726 383.498444,399.846191   C382.846405,401.478912 382.295074,403.003174 380.205963,402.988068   C378.272644,402.974091 377.801819,401.493835 377.396484,400.014893   C376.079163,395.208588 374.771179,390.399658 373.477692,385.586853   C373.134216,384.308838 372.567261,382.862732 374.483795,382.341217   C376.024017,381.922058 377.144440,382.735229 377.615387,384.116974   C378.524292,386.783691 379.252472,389.512054 380.134521,392.457092  z"/>
<path fill="currentColor" opacity="1.000000" stroke="none" d=" M478.652008,387.977661   C480.488434,398.782227 475.465881,404.108917 464.956238,403.289612   C462.271484,403.080353 460.997955,401.985413 460.996613,399.338104   C460.994781,395.690552 460.948425,392.042694 460.984222,388.395569   C461.043915,382.312927 461.886322,381.521240 468.010559,382.006683   C472.280762,382.345184 476.209442,383.448639 478.652008,387.977661  M474.667053,391.791718   C473.886871,388.135345 471.251587,386.025482 467.935089,386.738922   C464.766388,387.420502 466.628601,390.931091 466.153809,393.162506   C466.053101,393.635773 466.123108,394.150818 466.149292,394.644745   C466.362610,398.669861 467.892639,399.512939 471.493713,397.656158   C473.598267,396.571075 474.763580,394.950226 474.667053,391.791718  z"/>
<path fill="currentColor" opacity="1.000000" stroke="none" d=" M625.092651,390.647339   C625.824951,391.707855 626.392517,392.487305 627.724976,394.317139   C627.724976,390.757446 627.689514,388.356781 627.737122,385.957733   C627.770081,384.295715 627.669006,382.360291 630.115540,382.413971   C632.176758,382.459229 632.302063,384.122498 632.309692,385.664124   C632.332703,390.317535 632.333313,394.971375 632.296875,399.624695   C632.284912,401.147980 632.176636,402.705902 630.181091,403.025787   C628.476257,403.299103 627.354309,402.458282 626.453125,401.107910   C624.457458,398.117615 622.423279,395.153015 619.296082,392.384033   C619.296082,394.961365 619.330139,397.539368 619.282410,400.115845   C619.256775,401.497681 619.020935,402.872498 617.201782,402.913452   C615.491089,402.952057 614.855591,401.800873 614.838440,400.325684   C614.778564,395.174835 614.779419,390.023071 614.784790,384.871674   C614.786133,383.602966 615.290955,382.597290 616.628174,382.254517   C618.029114,381.895416 619.376099,382.141724 620.226562,383.324280   C621.873352,385.614288 623.369385,388.012726 625.092651,390.647339  z"/>
<path fill="currentColor" opacity="1.000000" stroke="none" d=" M452.226807,385.444641   C452.258698,390.048004 452.324371,394.200043 452.255737,398.349915   C452.227081,400.084167 452.749878,402.267120 450.350311,402.942993   C447.955353,403.617523 446.726532,401.898376 445.592346,400.186829   C443.861298,397.574554 442.124603,394.966034 439.967102,391.718994   C438.814819,394.845673 439.477142,397.447052 439.224670,399.929382   C439.085510,401.297638 438.935883,402.724213 437.199127,402.856781   C435.140472,403.013916 434.742096,401.513123 434.727631,399.904846   C434.684235,395.090179 434.689575,390.274994 434.692108,385.460022   C434.692810,384.078522 434.878540,382.734161 436.499664,382.310089   C438.131866,381.883179 439.476257,382.476105 440.404602,383.825073   C442.560608,386.958069 444.654175,390.134064 447.717560,393.229126   C447.717560,390.723450 447.682159,388.217072 447.732086,385.712372   C447.758057,384.409973 447.624481,382.869324 449.355377,382.492249   C451.306335,382.067200 452.037323,383.264893 452.226807,385.444641  z"/>
<path fill="currentColor" opacity="1.000000" stroke="none" d=" M418.474609,382.139954   C424.753876,384.682037 427.079895,388.622131 426.203857,394.650055   C425.509735,399.426208 422.004517,402.808044 417.266083,403.273132   C410.821198,403.905701 405.941589,399.556580 405.793701,393.048004   C405.632843,385.967316 410.095154,381.976379 418.474609,382.139954  M411.171143,390.923248   C411.039978,394.069214 410.535675,397.502411 414.647736,398.581543   C417.822601,399.414734 420.169006,398.146606 421.118103,394.890564   C422.090881,391.553314 421.593781,388.416718 418.197479,386.919312   C415.074890,385.542603 412.360687,386.409271 411.171143,390.923248  z"/>
<path fill="currentColor" opacity="1.000000" stroke="none" d=" M697.520264,396.022583   C695.199524,396.963531 696.287231,398.906616 695.885498,400.392029   C695.514038,401.765167 695.029297,403.018524 693.367249,402.942780   C691.721069,402.867828 691.113159,401.610718 691.101135,400.188568   C691.059082,395.221497 691.077759,390.252991 691.168152,385.286743   C691.182007,384.521606 691.513550,383.610413 692.008972,383.033813   C693.611755,381.168335 701.066895,381.622986 703.778015,383.762360   C706.685120,386.056458 707.462952,389.269440 705.299011,392.078064   C703.204956,394.795898 703.823059,396.797241 705.234131,399.229004   C705.869141,400.323303 706.816956,401.762604 705.204773,402.707611   C703.655823,403.615601 702.431580,402.751190 701.464111,401.350800   C700.251587,399.595734 699.642761,397.420776 697.520264,396.022583  M696.468506,390.606049   C698.938721,392.456848 700.504028,391.155243 701.354858,388.897858   C701.838440,387.614777 700.603333,386.789368 699.403442,386.543732   C696.575256,385.964935 695.895081,387.515839 696.468506,390.606049  z"/>
<path fill="currentColor" opacity="1.000000" stroke="none" d=" M657.459778,385.613953   C660.622498,390.168793 661.163330,394.514893 657.954041,398.846222   C655.631409,401.980743 648.280518,404.102051 644.244995,403.152527   C642.104492,402.648865 641.738708,401.220886 641.724548,399.459961   C641.688416,394.966370 641.765686,390.470673 641.655823,385.979309   C641.588318,383.220306 642.836792,382.040039 645.507690,381.991882   C649.752991,381.915344 653.833923,382.329742 657.459778,385.613953  M646.391846,388.312225   C646.351013,390.140350 646.180969,391.977325 646.305847,393.794067   C646.430603,395.609009 645.456909,398.191528 648.469604,398.553619   C650.955078,398.852295 653.215881,397.840607 654.303772,395.541290   C655.409180,393.204895 655.589355,390.501953 653.568115,388.551666   C651.646484,386.697449 649.295471,385.214874 646.391846,388.312225  z"/>
<path fill="currentColor" opacity="1.000000" stroke="none" d=" M740.076172,402.562805   C738.065063,396.605347 739.172424,390.784546 739.140869,385.008118   C739.137573,384.394043 739.380249,383.505646 739.822083,383.205353   C743.240662,380.881622 746.898804,381.763123 750.315979,383.017822   C753.523743,384.195648 755.608704,387.524139 753.904358,390.175934   C751.118164,394.510925 752.156372,398.113342 754.610840,402.324188   C747.763367,404.342896 748.965393,396.149902 744.813904,395.802979   C741.234253,396.860992 746.429871,403.301300 740.076172,402.562805  M743.719299,389.250824   C743.745178,391.183655 744.768555,391.943665 746.559814,391.407745   C747.962219,390.988159 749.432800,390.359314 749.407837,388.545532   C749.393127,387.470764 748.548401,386.760193 747.542358,386.572845   C745.766846,386.242157 743.806519,385.797363 743.719299,389.250824  z"/>
<path fill="currentColor" opacity="1.000000" stroke="none" d=" M517.000122,396.341736   C513.690430,395.350220 514.585144,397.761475 514.363098,399.164246   C514.113586,400.740845 514.609314,402.896973 512.176880,402.904449   C509.478699,402.912720 509.782257,400.594727 509.748657,398.837860   C509.669159,394.680756 509.846497,390.515839 509.674377,386.364288   C509.536774,383.045929 511.111542,381.930542 514.163391,381.958893   C516.841003,381.983765 519.563965,381.848236 521.916138,383.316315   C524.376038,384.851593 526.269592,387.545563 524.799377,390.025238   C522.272339,394.287323 522.727905,398.016144 525.796082,402.524109   C519.499023,404.067535 519.455627,398.812714 517.000122,396.341736  M518.416809,391.039215   C519.795166,390.233887 521.045898,389.306824 519.733826,387.566956   C518.859009,386.406860 517.504578,386.241333 516.135071,386.451996   C514.657471,386.679352 514.367249,387.778534 514.426758,389.018738   C514.533630,391.245575 515.823608,391.806122 518.416809,391.039215  z"/>
<path fill="currentColor" opacity="1.000000" stroke="none" d=" M598.656982,382.365295   C603.356445,388.321411 604.504944,395.436523 607.289978,402.009369   C604.794128,403.730804 603.487549,402.966553 602.083130,401.036163   C599.262756,397.159454 595.482117,397.183807 592.670410,401.051880   C591.416443,402.776947 590.254700,403.766357 587.598511,401.851654   C589.873291,396.037720 592.181091,390.053223 594.566223,384.099701   C595.218750,382.470795 596.695801,382.143250 598.656982,382.365295  z"/>
<path fill="currentColor" opacity="1.000000" stroke="none" d=" M835.312988,386.440857   C836.230530,384.259064 836.815796,382.189331 839.367798,382.228027   C841.955322,382.267273 842.450439,384.427063 843.088257,386.265289   C844.919250,391.541748 847.638489,396.514771 848.761719,402.213409   C846.543152,403.649017 845.196228,403.053711 843.780029,401.093903   C840.927612,397.146637 837.370605,397.181885 834.499207,401.152588   C833.504333,402.528351 832.505981,403.591492 830.895386,402.748749   C829.055176,401.785767 830.021240,400.174103 830.527832,398.828735   C832.042725,394.804993 833.612244,390.801849 835.312988,386.440857  z"/>
<path fill="currentColor" opacity="1.000000" stroke="none" d=" M496.897278,389.934937   C498.781708,390.166260 499.935425,390.826294 499.723053,392.494934   C499.500305,394.245148 497.990417,394.171875 496.652161,394.331726   C494.993835,394.529785 492.462158,393.695892 492.532959,396.551910   C492.601349,399.312225 495.073547,398.483917 496.757263,398.712891   C498.441620,398.941925 500.935852,398.238129 500.838715,401.026642   C500.746155,403.683624 498.325226,403.148712 496.601929,403.230469   C487.057159,403.683014 487.056458,403.665466 487.040619,394.340454   C487.038361,393.010071 487.027100,391.679657 487.032837,390.349304   C487.068268,382.171936 490.022522,379.996948 498.148773,382.092834   C499.581543,382.462372 500.727875,383.015656 500.507904,384.701141   C500.307251,386.238342 498.979309,386.130157 497.828430,386.332306   C496.034424,386.647430 493.750122,385.419769 492.546814,387.853790   C492.999481,390.325439 494.987793,389.648193 496.897278,389.934937  z"/>
<path fill="currentColor" opacity="1.000000" stroke="none" d=" M871.916992,275.595093   C872.171265,269.578461 874.588379,266.393799 878.988586,266.176849   C882.523499,266.002533 885.890808,267.016235 886.942017,270.732361   C888.011780,274.514160 887.882935,278.437134 883.598022,280.595032   C879.957031,282.428650 876.531555,282.150146 873.710632,278.978271   C872.963867,278.138611 872.561707,276.992554 871.916992,275.595093  z"/>
<path fill="currentColor" opacity="1.000000" stroke="none" d=" M820.601868,398.835083   C823.784424,400.827942 823.407593,402.556549 820.270081,403.046753   C817.363464,403.500854 814.321045,403.203094 811.346252,403.066101   C808.827148,402.950104 808.693115,400.998993 808.686157,399.093658   C808.671143,394.949615 808.831787,390.797699 808.625305,386.663788   C808.450134,383.155396 810.023315,381.835785 813.313599,381.978760   C815.463379,382.072205 817.623230,382.009369 819.764893,382.184021   C820.975037,382.282745 822.041443,382.891754 821.965149,384.371338   C821.887268,385.883362 820.718201,386.075928 819.520691,386.296265   C817.472351,386.673157 814.790771,385.361725 813.563965,388.224182   C814.744629,390.608185 816.868286,389.575439 818.509521,389.964142   C819.917175,390.297546 821.130920,390.795929 820.970886,392.490479   C820.831055,393.971283 819.596069,394.172516 818.395691,394.266815   C817.734985,394.318695 817.071289,394.331757 816.409485,394.371124   C814.991028,394.455414 813.632385,394.809387 813.567993,396.498566   C813.485168,398.673431 815.210876,398.616089 816.713501,398.685760   C817.872131,398.739471 819.032959,398.746033 820.601868,398.835083  z"/>
<path fill="currentColor" opacity="1.000000" stroke="none" d=" M762.838013,399.704651   C762.830872,395.081299 762.968811,390.924896 762.825928,386.778198   C762.710266,383.422394 764.009583,381.764221 767.448730,381.967651   C768.275818,382.016571 769.124146,381.855621 769.936584,381.972687   C772.064636,382.279266 775.541748,380.963898 775.761719,384.033325   C776.024109,387.695160 772.367310,385.882294 770.405457,386.322815   C769.055481,386.625885 767.737366,386.679352 767.671082,388.507874   C768.879517,390.559357 770.959045,389.629120 772.633545,389.975708   C774.086365,390.276428 775.230469,390.812317 775.067871,392.506439   C774.923950,394.005951 773.692932,394.188080 772.492798,394.279449   C771.499878,394.354980 770.493408,394.331909 769.514221,394.487000   C768.194946,394.695953 767.423889,395.502472 767.569458,396.897858   C767.693726,398.089447 768.562622,398.523346 769.647156,398.617615   C770.143066,398.660706 770.655518,398.605377 771.136963,398.706512   C773.158752,399.130890 776.758362,397.616089 776.438599,401.230621   C776.157227,404.410095 772.667236,403.269623 770.626099,403.119232   C767.864502,402.915680 763.943848,405.009827 762.838013,399.704651  z"/>
<path fill="currentColor" opacity="1.000000" stroke="none" d=" M668.709412,399.762421   C668.681396,395.127136 668.820557,390.962830 668.628723,386.813812   C668.472534,383.434967 669.745605,381.810394 673.188538,381.972412   C675.344910,382.073883 677.512451,381.991455 679.662598,382.154266   C680.854004,382.244476 681.990967,382.747742 681.956299,384.264374   C681.921936,385.767426 680.830017,386.046051 679.596924,386.279297   C677.592957,386.658234 675.219604,385.457764 673.571777,387.581604   C673.757080,390.535400 676.100098,389.641296 677.691711,389.940399   C679.075012,390.200378 680.399536,390.468811 680.482117,392.187653   C680.572876,394.077881 679.141968,394.128510 677.774963,394.313721   C676.119263,394.538086 673.538757,393.651123 673.512390,396.409393   C673.482300,399.556213 676.274353,398.468536 678.058228,398.708130   C679.917603,398.957825 682.636108,398.183533 682.401184,401.277496   C682.202148,403.899231 679.572998,403.467743 678.013916,403.144135   C674.854065,402.488342 670.393311,405.640533 668.709412,399.762421  z"/>
<path fill="currentColor" opacity="1.000000" stroke="none" d=" M794.319397,382.263611   C798.502319,383.113129 800.617920,385.227448 800.293274,389.259857   C799.989807,393.029541 797.603088,394.919769 794.129700,395.195465   C791.181091,395.429474 790.002991,396.648987 790.166870,399.551453   C790.264771,401.284729 789.882019,403.052704 787.603516,402.995575   C785.381042,402.939911 785.067017,401.166077 785.051270,399.445221   C785.010376,394.979858 784.794983,390.493866 785.131165,386.052612   C785.613464,379.681641 790.580933,382.603394 794.319397,382.263611  M790.357300,387.925995   C790.258850,389.749176 789.897583,391.909027 792.853394,391.277832   C794.261047,390.977264 795.999207,390.061371 795.314880,388.294891   C794.437195,386.029083 792.577209,385.777710 790.357300,387.925995  z"/>
<path fill="currentColor" opacity="1.000000" stroke="none" d=" M856.464844,381.973022   C860.216003,381.988098 863.526123,381.957520 866.830994,382.075348   C868.185425,382.123627 869.578918,382.558350 869.653748,384.257294   C869.736084,386.126129 868.250671,386.343842 866.909729,386.291260   C863.576233,386.160492 863.206909,388.195770 863.268555,390.807251   C863.342651,393.948090 863.283813,397.094055 863.200317,400.235657   C863.163086,401.634125 862.754639,402.913452 860.978577,402.914154   C859.217957,402.914856 858.772705,401.679901 858.742310,400.255798   C858.671692,396.948151 858.641174,393.638580 858.667908,390.330383   C858.685669,388.130981 858.377441,386.327240 855.554932,386.340363   C854.221985,386.346558 852.603088,386.261047 852.521729,384.523956   C852.412781,382.197418 854.372314,382.184082 856.464844,381.973022  z"/>
<path fill="currentColor" opacity="1.000000" stroke="none" d=" M876.086121,403.142181   C873.336060,402.469299 872.828552,400.882874 874.145752,399.015503   C875.204346,397.514648 876.902649,397.686615 877.979065,399.046997   C879.532410,401.009888 878.677673,402.403931 876.086121,403.142181  z"/>
<path fill="currentColor" opacity="1.000000" stroke="none" d=" M717.842224,400.201050   C717.395630,402.830658 716.035217,403.764435 713.933411,402.614288   C712.581116,401.874359 712.298462,400.281067 713.305359,399.171112   C714.894165,397.419708 716.523254,397.832520 717.842224,400.201050  z"/>
<path fill="currentColor" opacity="1.000000" stroke="none" d=" M533.708862,398.506775   C536.450012,397.965485 537.498779,399.127930 537.097595,401.392212   C536.820496,402.956146 535.426086,403.560516 534.078247,402.990814   C531.821106,402.036713 531.962646,400.395020 533.708862,398.506775  z"/>
<path fill="currentColor" opacity="1.000000" stroke="none" d=" M225.111450,291.423340   C224.879532,293.231384 225.972229,294.156250 226.718109,295.220917   C230.822357,301.079102 233.422348,307.546814 233.683426,314.689758   C233.826355,318.600311 238.078125,320.773499 237.873108,323.742096   C237.665146,326.753265 233.972229,329.084686 233.657486,332.877625   C233.056061,340.125061 230.492447,346.819611 226.533493,352.898376   C225.036957,355.196228 225.751434,356.830261 227.067978,358.754150   C231.368286,365.038239 235.569305,371.390259 239.818436,377.730957   C237.949310,379.124878 237.009628,377.786163 235.987656,377.153534   C230.324402,373.647797 224.666931,370.131287 219.062531,366.532715   C217.100876,365.273132 215.545258,364.755676 213.244965,366.300446   C206.819366,370.615692 199.306595,372.257172 192.100021,374.787720   C185.568192,377.081299 180.477570,377.179291 173.902222,374.855408   C166.554565,372.258545 158.831833,370.750824 152.306503,366.210754   C150.117386,364.687683 148.505646,365.031494 146.457809,366.304291   C140.025665,370.302063 133.498718,374.147278 127.008499,378.051605   C126.644318,377.703156 126.280136,377.354736 125.915955,377.006287   C129.252655,371.996704 132.312210,366.770691 136.006210,362.040131   C139.502426,357.562836 140.399292,353.821533 136.662369,348.812256   C133.382660,344.415955 132.290939,338.809631 131.425537,333.340363   C130.986252,330.564209 130.771088,327.709778 128.350449,325.670319   C127.213966,324.712769 126.789299,323.265137 128.094193,322.205505   C130.914902,319.914978 130.774506,316.651917 131.280075,313.575592   C132.316879,307.266785 134.194870,301.202179 137.769302,295.895172   C139.791412,292.892914 139.573044,290.517609 137.606537,287.766022   C134.315506,283.161133 131.112991,278.489227 128.012253,273.754486   C127.173347,272.473450 125.541595,271.425201 126.210258,268.732697   C132.624878,272.614960 138.929749,276.155701 144.917084,280.170044   C147.929382,282.189697 150.301788,282.495300 153.513596,280.661224   C159.801910,277.070312 167.489716,276.978882 173.748337,274.193390   C181.144836,270.901489 186.938705,274.023499 193.370102,274.974945   C199.810532,275.927765 206.108139,277.708038 211.871429,280.775238   C214.798843,282.333160 216.944473,282.049866 219.629898,280.305054   C225.808792,276.290405 232.204529,272.609497 238.512268,268.793152   C238.800308,269.108459 239.088364,269.423767 239.376419,269.739075   C234.655487,276.866089 229.934540,283.993103 225.111450,291.423340  M147.252243,349.595734   C155.002289,360.095001 165.355484,365.924103 178.588562,366.593597   C168.049866,360.733612 157.511154,354.873627 146.841583,348.081390   C146.786041,334.932465 146.773422,321.783142 146.641541,308.634979   C146.612442,305.735504 147.969330,304.021667 150.347809,302.694763   C159.939194,297.343933 169.517502,291.968811 179.052719,286.518799   C181.141922,285.324707 183.029343,285.155548 185.144852,286.348511   C195.001038,291.906494 204.865402,297.450684 214.769043,302.923401   C217.437927,304.398224 218.318069,306.506348 218.291092,309.477234   C218.188324,320.796387 218.145035,332.118896 218.328949,343.436127   C218.388840,347.121277 216.941208,349.109375 213.749725,350.827087   C204.438660,355.838440 195.319504,361.206390 185.201202,366.959900   C203.612106,365.831543 220.427139,352.296600 223.438309,337.055450   C224.766663,330.331848 225.397156,323.529816 224.661453,316.716400   C223.644623,307.299194 221.018631,299.128265 210.996124,294.810028   C202.321304,291.072388 194.203979,286.010498 185.953979,281.333313   C182.997818,279.657379 180.528275,279.669006 177.605881,281.385162   C169.428223,286.187469 161.305099,291.144104 152.805161,295.315918   C146.478378,298.421173 143.042160,303.314270 141.671417,309.715424   C139.304077,320.770599 139.243103,331.843933 143.199249,342.653381   C144.053085,344.986359 144.983826,347.325836 147.252243,349.595734  M178.383499,326.427277   C170.086517,321.705933 161.789536,316.984589 152.416977,311.651215   C152.416977,323.371643 152.403931,333.744324 152.436447,344.116913   C152.439835,345.194489 153.219528,345.961517 154.101822,346.456512   C162.156967,350.975464 170.229965,355.462646 179.453552,360.603302   C179.076019,348.601654 180.541824,337.809235 178.383499,326.427277  M165.113266,300.688202   C162.026932,302.527863 158.554993,303.799652 155.518707,307.058105   C161.795273,310.573853 167.985764,313.463684 173.521301,317.298859   C179.475937,321.424438 184.513412,321.625214 190.553802,317.361481   C196.277191,313.321503 202.756165,310.351959 209.618973,306.510864   C205.362610,304.078949 202.089172,302.138977 198.751160,300.317322   C193.352509,297.371124 188.059799,292.562500 182.447571,292.133270   C176.536407,291.681152 171.379807,297.510925 165.113266,300.688202  M202.415344,317.000031   C197.782776,319.599152 193.195404,322.283905 188.499405,324.762848   C185.983551,326.090912 184.998978,327.922302 185.039948,330.750061   C185.160187,339.050262 185.064804,347.353455 185.103577,355.655212   C185.109436,356.910095 184.791519,358.383881 186.807144,359.324341   C194.081451,355.268066 201.533142,350.955902 209.144836,346.947540   C212.092087,345.395538 213.029495,343.307922 212.984451,340.161835   C212.867996,332.026917 212.983475,323.888824 212.951294,315.752258   C212.946411,314.515625 213.408188,313.042358 211.386169,311.926239   C208.771530,313.400665 205.909027,315.014862 202.415344,317.000031  z"/>
<path fill="currentColor" opacity="1.000000" stroke="none" d=" M107.788849,317.726501   C108.917435,315.484283 108.544823,312.241333 111.826286,312.431915   C114.904617,312.610657 114.746239,315.578186 115.509270,317.660553   C116.172638,319.470947 116.802773,321.293488 117.660820,323.711517   C118.747681,320.273254 119.666779,317.452972 120.526978,314.614838   C121.133362,312.614197 122.524910,312.015411 124.373932,312.529633   C126.551132,313.135162 125.834358,314.737915 125.420448,316.176666   C123.951805,321.281586 122.515549,326.396149 120.991936,331.484619   C120.564911,332.910767 120.012299,334.329712 118.071472,334.396301   C116.035110,334.466125 115.091446,333.394196 114.555664,331.585846   C113.803009,329.045410 112.926086,326.541809 111.732643,322.891968   C110.527596,326.507507 109.642357,329.150909 108.766144,331.797302   C108.258575,333.330322 107.472382,334.431305 105.607719,334.394165   C104.008598,334.362335 103.155281,333.531616 102.737114,332.130646   C101.075562,326.564056 99.406097,320.999390 97.813805,315.412842   C97.428665,314.061615 97.485039,312.667664 99.310768,312.329559   C100.957291,312.024597 102.365250,312.512360 102.947365,314.179169   C103.873596,316.831238 104.640793,319.538879 105.571136,322.531464   C107.158691,321.253418 107.112747,319.505005 107.788849,317.726501  z"/>
<path fill="currentColor" opacity="1.000000" stroke="none" d=" M192.271927,250.052246   C192.273026,253.372604 192.329910,256.205627 192.253464,259.035065   C192.206100,260.788483 192.759109,262.964661 190.458679,263.745789   C187.880722,264.621185 186.482880,262.872742 185.227737,260.970886   C183.438293,258.259460 181.591034,255.586212 178.789841,253.198303   C178.789841,255.634171 178.865982,258.073212 178.764313,260.504822   C178.690842,262.261841 178.197052,263.889740 175.949463,263.882416   C173.848251,263.875549 172.968262,262.558472 172.947647,260.660858   C172.887970,255.165878 172.892212,249.669968 172.909531,244.174530   C172.913971,242.769073 173.316254,241.492645 174.874496,241.063644   C176.867615,240.514938 178.498611,241.139450 179.676224,242.820877   C181.734116,245.759125 183.754272,248.723785 186.754883,251.457260   C186.754883,249.196838 186.736115,246.936218 186.760544,244.676056   C186.781876,242.702484 187.114502,240.883484 189.696350,241.002228   C191.971268,241.106842 192.205383,242.811539 192.241852,244.567047   C192.276428,246.231979 192.263458,247.897903 192.271927,250.052246  z"/>
<path fill="currentColor" opacity="1.000000" stroke="none" d=" M260.367432,316.276001   C258.062042,317.617889 255.311234,316.165894 253.601486,318.471191   C254.704178,321.160919 260.473145,318.881836 259.250153,323.783356   C258.438324,327.036957 253.317703,323.527161 252.883392,327.689362   C254.656509,329.681580 256.989075,328.611542 259.004578,328.949921   C260.850128,329.259766 262.225830,329.858612 262.065094,332.042908   C261.915039,334.082428 260.385681,334.233765 258.839142,334.335571   C258.673431,334.346497 258.507294,334.356567 258.341309,334.356995   C244.386475,334.393555 247.028214,335.406555 246.783447,323.690735   C246.766113,322.860504 246.778732,322.029633 246.778519,321.199066   C246.775909,311.450958 248.781769,309.879242 258.511047,311.731964   C261.310303,312.265015 261.618805,313.746735 260.367432,316.276001  z"/>
<path fill="currentColor" opacity="1.000000" stroke="none" d=" M188.920410,397.438080   C191.179596,401.511963 190.687790,404.852295 187.203445,407.420258   C184.323532,409.542755 177.894501,409.151459 175.390274,407.000580   C173.078613,405.015106 174.735123,403.545135 175.680344,401.858459   C178.653290,401.828674 181.109283,405.608246 184.246857,402.410553   C183.795151,399.665863 181.164368,399.339233 179.331314,398.208740   C174.758041,395.388184 173.342682,391.495483 175.656525,387.836212   C177.719650,384.573456 184.330276,383.515594 187.874802,385.766296   C189.277328,386.656891 189.590103,387.716003 188.981049,389.118622   C188.388184,390.483948 187.485245,391.204010 185.830948,390.652924   C184.202728,390.110504 182.457840,388.865448 180.695114,390.983276   C182.180008,394.553314 186.595718,394.398102 188.920410,397.438080  z"/>
<path fill="currentColor" opacity="1.000000" stroke="none" d=" M171.993561,349.641113   C170.031647,349.380768 168.842880,348.494263 168.240311,347.054779   C167.337845,344.898895 167.534561,342.857605 169.461380,341.259796   C171.112534,339.890564 172.826599,340.052216 174.409958,341.320526   C176.317017,342.848145 176.741104,344.837067 175.749619,347.059021   C175.106094,348.501251 173.957001,349.382568 171.993561,349.641113  z"/>
<path fill="currentColor" opacity="1.000000" stroke="none" d=" M156.730392,331.250305   C157.473404,328.320007 158.834351,326.520081 161.721771,327.493195   C163.996429,328.259796 165.146484,330.147766 164.749115,332.569977   C164.396118,334.721832 163.100220,336.254089 160.731842,336.211151   C157.844208,336.158752 156.679291,334.387634 156.730392,331.250305  z"/>
<path fill="currentColor" opacity="1.000000" stroke="none" d=" M177.913742,306.356628   C177.030594,303.728577 177.986877,302.181091 179.959946,301.065247   C182.531570,299.610840 184.799286,300.344574 186.839508,302.102661   C188.276596,303.341003 188.694946,304.986511 187.491119,306.548981   C185.832535,308.701752 183.603287,309.728821 180.907501,308.615417   C179.874908,308.188904 179.017471,307.338348 177.913742,306.356628  z"/>
<path fill="currentColor" opacity="1.000000" stroke="none" d=" M195.204773,349.279541   C195.040375,352.944489 193.844498,355.397705 190.019485,354.371429   C187.124771,353.594818 186.239609,351.288513 187.070831,348.454071   C187.523209,346.911499 188.585541,345.913574 190.263306,345.669769   C192.864059,345.291840 194.360687,346.549469 195.204773,349.279541  z"/>
<path fill="currentColor" opacity="1.000000" stroke="none" d=" M201.693939,327.145508   C200.734314,324.293671 201.209671,322.166687 203.592728,320.809845   C205.016937,319.998871 206.496796,320.244690 207.777161,321.281738   C209.411301,322.605347 209.551254,324.450470 209.198547,326.288055   C208.461655,330.127289 205.533966,330.579773 201.693939,327.145508  z"/>
<path fill="currentColor" opacity="1.000000" stroke="none" d=" M196.486511,335.378479   C201.100769,334.868896 202.523788,337.217133 201.945511,340.991760   C201.685043,342.691711 200.340561,343.908508 198.518921,344.168274   C196.435303,344.465393 194.909454,343.405365 194.171524,341.584473   C193.183548,339.146576 193.858643,337.042603 196.486511,335.378479  z"/>
</svg>