<svg width="158" height="28" viewBox="0 0 158 28" fill="none" xmlns="http://www.w3.org/2000/svg">
<path fill-rule="evenodd" clip-rule="evenodd" d="M48.4966 8.47794C43.8083 8.47794 40.3672 12.7189 40.3672 17.1236C40.3672 21.3383 43.1408 23.3228 47.2484 23.3228C48.7748 23.3228 50.3563 22.9616 51.796 22.5248L52.2667 19.6016C50.881 20.2369 49.4137 20.6212 47.8873 20.6212C45.5072 20.6212 44.1183 19.7854 43.9384 17.5552H43.9363C43.93 17.4229 43.9162 17.2969 43.9162 17.1604C43.9162 17.1352 43.9204 17.1079 43.9204 17.0827C43.9204 17.0701 43.9183 17.0543 43.9183 17.0417H43.9204C43.9363 16.0694 44.1489 15.1118 44.5234 14.2288C45.2364 12.4228 46.2508 11.1764 48.4405 11.1764C49.9945 11.1764 50.7995 12.0259 50.7995 13.5431C50.7995 13.8739 50.7731 14.1763 50.7128 14.5091H45.6288C45.2999 15.6232 45.2427 16.3687 45.2343 17.0417H53.9878C54.2089 15.9959 54.3517 14.9491 54.3517 13.8739C54.3517 10.2671 52.0213 8.47794 48.4966 8.47794ZM42.1888 8.80764H37.3608L32.1764 13.9579H32.1172L34.5893 2.33334H30.871L26.4609 22.99H30.0914L31.7035 15.473H31.7585L35.4483 22.99H39.6373L35.3372 15.2767L42.1888 8.80764ZM59.8918 19.0788C59.8918 18.5286 59.9764 18.0319 60.059 17.7012L61.4172 11.5062H64.7473L65.3322 8.80767H62.0011L62.9193 4.59402L58.9228 5.88972L58.2829 8.80767H55.5949L55.0078 11.5062H57.7021L56.6485 16.2984C56.3989 17.4261 56.1735 18.5002 56.1735 19.6017C56.1735 22.3306 57.9496 23.3229 60.4747 23.3229C61.1147 23.3229 61.834 23.1276 62.475 22.99L63.1129 20.1246C62.6379 20.3188 61.9768 20.4553 61.3072 20.4553C60.4747 20.4553 59.8918 19.9324 59.8918 19.0788ZM4.88189 19.0788C4.88189 18.5286 4.96757 18.0319 5.05114 17.7012L6.40833 11.5062H9.73944L10.3212 8.80765H6.9912L7.90728 4.594L3.91291 5.8897L3.27293 8.80765H0.580749L0 11.5062H2.69218L1.63646 16.2984C1.38787 17.4261 1.16361 18.5002 1.16361 19.6017C1.16361 22.3306 2.94077 23.3229 5.46687 23.3229C6.10262 23.3229 6.82618 23.1276 7.46511 22.99L8.10192 20.1246C7.63013 20.3188 6.96369 20.4553 6.29832 20.4553C5.46687 20.4553 4.88189 19.9324 4.88189 19.0788ZM19.4419 16.7646C19.4419 14.0944 21.1048 11.3403 24.0741 11.3403C25.1012 11.3403 26.0692 11.5881 26.7948 12.0585L27.7088 9.02815C26.7102 8.72785 25.3795 8.47795 23.9916 8.47795C18.8569 8.47795 15.5586 12.2485 15.5586 17.2066C15.5586 20.8711 17.945 23.3229 21.6316 23.3229C22.8534 23.3229 24.0741 23.2084 25.2113 22.6582L25.628 19.7382C24.657 20.2075 23.5187 20.4553 22.6048 20.4553C20.0512 20.4553 19.4419 18.6094 19.4419 16.7646ZM16.9255 2.69138H13.2083L12.4297 6.21833H16.148L16.9255 2.69138ZM11.8477 8.80763L8.79691 22.99H12.5141L15.5639 8.80763H11.8477ZM95.909 8.48843C94.2461 8.48843 92.636 8.79083 91.0514 9.34313L90.5267 12.2905C91.9961 11.6017 93.5807 11.188 95.215 11.188C96.5183 11.188 98.0701 11.6017 98.0701 13.0328C98.0701 13.4465 98.0701 13.8602 97.9612 14.2456H96.6569C93.165 14.2456 87.8906 14.6047 87.8906 19.2845C87.8906 21.9011 89.7228 23.3333 92.3018 23.3333C94.355 23.3333 95.6318 22.4251 96.9065 20.8291H96.9605L96.5765 23.0026H99.7108C100.043 20.3314 101.458 14.7664 101.458 12.8659C101.458 9.53528 98.7641 8.48843 95.909 8.48843ZM93.3289 20.6317C92.3821 20.6317 91.4375 20.1382 91.4375 19.1481C91.4375 16.7509 94.4333 16.4496 96.2379 16.4496H97.5433C96.9583 18.7344 96.1015 20.6317 93.3289 20.6317ZM83.526 8.47794C81.5277 8.47794 79.448 9.33054 78.5034 11.1764H78.4452C78.2516 9.46809 76.503 8.47794 74.8115 8.47794C73.0608 8.47794 71.4265 9.24759 70.429 10.7081H70.3729L70.7061 8.80764H67.2385C67.1539 9.24759 67.0428 9.82824 66.9328 10.3784L64.3242 22.99H68.0425L69.5139 16.2427C69.9847 14.3411 70.6786 11.3402 73.2015 11.3402C74.1483 11.3402 74.9512 12.0017 74.9512 13.0475C74.9512 13.9022 74.673 15.2242 74.4783 16.0757L72.9804 22.99H76.6998L78.1659 16.2427C78.642 14.3149 79.2756 11.3402 81.8609 11.3402C82.8045 11.3402 83.6085 12.0017 83.6085 13.0475C83.6085 13.9022 83.3313 15.2242 83.1377 16.0757L81.6377 22.99H85.356L86.8507 16.2143C87.1575 15.0604 87.4907 13.6219 87.4907 12.3608C87.4907 10.2115 85.6585 8.47794 83.526 8.47794ZM131.645 8.47794C126.96 8.47794 123.52 12.7189 123.52 17.1236C123.52 21.3383 126.294 23.3228 130.399 23.3228C131.926 23.3228 133.507 22.9616 134.948 22.5248L135.42 19.6016C134.033 20.2369 132.563 20.6212 131.038 20.6212C128.657 20.6212 127.267 19.7854 127.093 17.5552H127.088C127.081 17.4229 127.069 17.2969 127.069 17.1604C127.069 17.1352 127.069 17.1079 127.073 17.0827C127.073 17.0701 127.069 17.0543 127.069 17.0417H127.073C127.088 16.0694 127.307 15.1118 127.676 14.2288C128.389 12.4228 129.401 11.1764 131.591 11.1764C133.145 11.1764 133.949 12.0259 133.949 13.5431C133.949 13.8739 133.924 14.1763 133.866 14.5091H128.779C128.451 15.6232 128.389 16.3687 128.384 17.0417H137.141C137.362 15.9959 137.502 14.9491 137.502 13.8739C137.502 10.2671 135.169 8.47794 131.645 8.47794ZM143.519 11.4788H143.465L143.963 8.80764H140.409C140.302 9.46809 140.188 10.1012 140.079 10.7081L137.527 22.99H141.246L142.576 16.6301C143.05 14.3411 144.324 12.0017 146.959 12.0017C147.43 12.0017 147.959 12.0836 148.374 12.2222L149.153 8.61339C148.709 8.50314 148.208 8.47794 147.735 8.47794C146.014 8.47794 144.186 9.93744 143.519 11.4788ZM119.175 19.0788C119.175 18.5286 119.257 18.0319 119.34 17.7012L120.701 11.5062H124.028L124.611 8.80767H121.284L122.198 4.59402L118.202 5.88972L117.566 8.80767H114.876L114.293 11.5062H116.981L115.929 16.2984C115.68 17.4261 115.458 18.5002 115.458 19.6017C115.458 22.3306 117.233 23.3229 119.758 23.3229C120.396 23.3229 121.119 23.1276 121.756 22.99L122.394 20.1246C121.923 20.3188 121.253 20.4553 120.59 20.4553C119.758 20.4553 119.175 19.9324 119.175 19.0788ZM103.64 12.9929C103.64 16.5451 108.463 16.7645 108.463 19.0525C108.463 20.2075 107.16 20.6212 105.912 20.6212C104.47 20.6212 103.416 20.0962 102.363 19.5187L101.555 22.4681C102.916 23.1002 104.412 23.3228 105.912 23.3228C109.104 23.3228 112.348 22.2193 112.348 18.5285C112.348 15.0604 107.521 14.3978 107.521 12.6076C107.521 11.4788 108.908 11.1764 110.017 11.1764C111.073 11.1764 112.1 11.4788 112.499 11.6962L113.302 8.91264C112.569 8.72784 111.183 8.47794 109.823 8.47794C106.881 8.47794 103.64 9.66234 103.64 12.9929ZM154.085 8.49478C152.322 8.49478 150.887 9.91963 150.887 11.67C150.887 13.4182 152.322 14.8399 154.085 14.8399C155.845 14.8399 157.281 13.4182 157.281 11.67C157.281 9.91963 155.845 8.49478 154.085 8.49478ZM154.093 14.3684C152.608 14.3684 151.496 13.1893 151.496 11.6699C151.496 10.1506 152.608 8.97141 154.093 8.97141C155.562 8.97141 156.671 10.1506 156.671 11.6699C156.671 13.1893 155.562 14.3684 154.093 14.3684ZM155.58 10.8541C155.58 10.1506 155.159 9.80515 154.297 9.80515H152.863V13.5242H153.473V11.881H153.985L155.033 13.5242H155.679L154.613 11.881C155.2 11.881 155.58 11.4494 155.58 10.8541ZM153.473 11.4053V10.2808H154.197C154.589 10.2808 154.971 10.4047 154.971 10.8257C154.971 11.3087 154.665 11.4053 154.197 11.4053H153.473Z" fill="white"/>
<mask id="mask0_5_108" style="mask-type:alpha" maskUnits="userSpaceOnUse" x="0" y="2" width="158" height="22">
<path fill-rule="evenodd" clip-rule="evenodd" d="M48.4966 8.47794C43.8083 8.47794 40.3672 12.7189 40.3672 17.1236C40.3672 21.3383 43.1408 23.3228 47.2484 23.3228C48.7748 23.3228 50.3563 22.9616 51.796 22.5248L52.2667 19.6016C50.881 20.2369 49.4137 20.6212 47.8873 20.6212C45.5072 20.6212 44.1183 19.7854 43.9384 17.5552H43.9363C43.93 17.4229 43.9162 17.2969 43.9162 17.1604C43.9162 17.1352 43.9204 17.1079 43.9204 17.0827C43.9204 17.0701 43.9183 17.0543 43.9183 17.0417H43.9204C43.9363 16.0694 44.1489 15.1118 44.5234 14.2288C45.2364 12.4228 46.2508 11.1764 48.4405 11.1764C49.9945 11.1764 50.7995 12.0259 50.7995 13.5431C50.7995 13.8739 50.7731 14.1763 50.7128 14.5091H45.6288C45.2999 15.6232 45.2427 16.3687 45.2343 17.0417H53.9878C54.2089 15.9959 54.3517 14.9491 54.3517 13.8739C54.3517 10.2671 52.0213 8.47794 48.4966 8.47794ZM42.1888 8.80764H37.3608L32.1764 13.9579H32.1172L34.5893 2.33334H30.871L26.4609 22.99H30.0914L31.7035 15.473H31.7585L35.4483 22.99H39.6373L35.3372 15.2767L42.1888 8.80764ZM59.8918 19.0788C59.8918 18.5286 59.9764 18.0319 60.059 17.7012L61.4172 11.5062H64.7473L65.3322 8.80767H62.0011L62.9193 4.59402L58.9228 5.88972L58.2829 8.80767H55.5949L55.0078 11.5062H57.7021L56.6485 16.2984C56.3989 17.4261 56.1735 18.5002 56.1735 19.6017C56.1735 22.3306 57.9496 23.3229 60.4747 23.3229C61.1147 23.3229 61.834 23.1276 62.475 22.99L63.1129 20.1246C62.6379 20.3188 61.9768 20.4553 61.3072 20.4553C60.4747 20.4553 59.8918 19.9324 59.8918 19.0788ZM4.88189 19.0788C4.88189 18.5286 4.96757 18.0319 5.05114 17.7012L6.40833 11.5062H9.73944L10.3212 8.80765H6.9912L7.90728 4.594L3.91291 5.8897L3.27293 8.80765H0.580749L0 11.5062H2.69218L1.63646 16.2984C1.38787 17.4261 1.16361 18.5002 1.16361 19.6017C1.16361 22.3306 2.94077 23.3229 5.46687 23.3229C6.10262 23.3229 6.82618 23.1276 7.46511 22.99L8.10192 20.1246C7.63013 20.3188 6.96369 20.4553 6.29832 20.4553C5.46687 20.4553 4.88189 19.9324 4.88189 19.0788ZM19.4419 16.7646C19.4419 14.0944 21.1048 11.3403 24.0741 11.3403C25.1012 11.3403 26.0692 11.5881 26.7948 12.0585L27.7088 9.02815C26.7102 8.72785 25.3795 8.47795 23.9916 8.47795C18.8569 8.47795 15.5586 12.2485 15.5586 17.2066C15.5586 20.8711 17.945 23.3229 21.6316 23.3229C22.8534 23.3229 24.0741 23.2084 25.2113 22.6582L25.628 19.7382C24.657 20.2075 23.5187 20.4553 22.6048 20.4553C20.0512 20.4553 19.4419 18.6094 19.4419 16.7646ZM16.9255 2.69138H13.2083L12.4297 6.21833H16.148L16.9255 2.69138ZM11.8477 8.80763L8.79691 22.99H12.5141L15.5639 8.80763H11.8477ZM95.909 8.48843C94.2461 8.48843 92.636 8.79083 91.0514 9.34313L90.5267 12.2905C91.9961 11.6017 93.5807 11.188 95.215 11.188C96.5183 11.188 98.0701 11.6017 98.0701 13.0328C98.0701 13.4465 98.0701 13.8602 97.9612 14.2456H96.6569C93.165 14.2456 87.8906 14.6047 87.8906 19.2845C87.8906 21.9011 89.7228 23.3333 92.3018 23.3333C94.355 23.3333 95.6318 22.4251 96.9065 20.8291H96.9605L96.5765 23.0026H99.7108C100.043 20.3314 101.458 14.7664 101.458 12.8659C101.458 9.53528 98.7641 8.48843 95.909 8.48843ZM93.3289 20.6317C92.3821 20.6317 91.4375 20.1382 91.4375 19.1481C91.4375 16.7509 94.4333 16.4496 96.2379 16.4496H97.5433C96.9583 18.7344 96.1015 20.6317 93.3289 20.6317ZM83.526 8.47794C81.5277 8.47794 79.448 9.33054 78.5034 11.1764H78.4452C78.2516 9.46809 76.503 8.47794 74.8115 8.47794C73.0608 8.47794 71.4265 9.24759 70.429 10.7081H70.3729L70.7061 8.80764H67.2385C67.1539 9.24759 67.0428 9.82824 66.9328 10.3784L64.3242 22.99H68.0425L69.5139 16.2427C69.9847 14.3411 70.6786 11.3402 73.2015 11.3402C74.1483 11.3402 74.9512 12.0017 74.9512 13.0475C74.9512 13.9022 74.673 15.2242 74.4783 16.0757L72.9804 22.99H76.6998L78.1659 16.2427C78.642 14.3149 79.2756 11.3402 81.8609 11.3402C82.8045 11.3402 83.6085 12.0017 83.6085 13.0475C83.6085 13.9022 83.3313 15.2242 83.1377 16.0757L81.6377 22.99H85.356L86.8507 16.2143C87.1575 15.0604 87.4907 13.6219 87.4907 12.3608C87.4907 10.2115 85.6585 8.47794 83.526 8.47794ZM131.645 8.47794C126.96 8.47794 123.52 12.7189 123.52 17.1236C123.52 21.3383 126.294 23.3228 130.399 23.3228C131.926 23.3228 133.507 22.9616 134.948 22.5248L135.42 19.6016C134.033 20.2369 132.563 20.6212 131.038 20.6212C128.657 20.6212 127.267 19.7854 127.093 17.5552H127.088C127.081 17.4229 127.069 17.2969 127.069 17.1604C127.069 17.1352 127.069 17.1079 127.073 17.0827C127.073 17.0701 127.069 17.0543 127.069 17.0417H127.073C127.088 16.0694 127.307 15.1118 127.676 14.2288C128.389 12.4228 129.401 11.1764 131.591 11.1764C133.145 11.1764 133.949 12.0259 133.949 13.5431C133.949 13.8739 133.924 14.1763 133.866 14.5091H128.779C128.451 15.6232 128.389 16.3687 128.384 17.0417H137.141C137.362 15.9959 137.502 14.9491 137.502 13.8739C137.502 10.2671 135.169 8.47794 131.645 8.47794ZM143.519 11.4788H143.465L143.963 8.80764H140.409C140.302 9.46809 140.188 10.1012 140.079 10.7081L137.527 22.99H141.246L142.576 16.6301C143.05 14.3411 144.324 12.0017 146.959 12.0017C147.43 12.0017 147.959 12.0836 148.374 12.2222L149.153 8.61339C148.709 8.50314 148.208 8.47794 147.735 8.47794C146.014 8.47794 144.186 9.93744 143.519 11.4788ZM119.175 19.0788C119.175 18.5286 119.257 18.0319 119.34 17.7012L120.701 11.5062H124.028L124.611 8.80767H121.284L122.198 4.59402L118.202 5.88972L117.566 8.80767H114.876L114.293 11.5062H116.981L115.929 16.2984C115.68 17.4261 115.458 18.5002 115.458 19.6017C115.458 22.3306 117.233 23.3229 119.758 23.3229C120.396 23.3229 121.119 23.1276 121.756 22.99L122.394 20.1246C121.923 20.3188 121.253 20.4553 120.59 20.4553C119.758 20.4553 119.175 19.9324 119.175 19.0788ZM103.64 12.9929C103.64 16.5451 108.463 16.7645 108.463 19.0525C108.463 20.2075 107.16 20.6212 105.912 20.6212C104.47 20.6212 103.416 20.0962 102.363 19.5187L101.555 22.4681C102.916 23.1002 104.412 23.3228 105.912 23.3228C109.104 23.3228 112.348 22.2193 112.348 18.5285C112.348 15.0604 107.521 14.3978 107.521 12.6076C107.521 11.4788 108.908 11.1764 110.017 11.1764C111.073 11.1764 112.1 11.4788 112.499 11.6962L113.302 8.91264C112.569 8.72784 111.183 8.47794 109.823 8.47794C106.881 8.47794 103.64 9.66234 103.64 12.9929ZM154.085 8.49478C152.322 8.49478 150.887 9.91963 150.887 11.67C150.887 13.4182 152.322 14.8399 154.085 14.8399C155.845 14.8399 157.281 13.4182 157.281 11.67C157.281 9.91963 155.845 8.49478 154.085 8.49478ZM154.093 14.3684C152.608 14.3684 151.496 13.1893 151.496 11.6699C151.496 10.1506 152.608 8.97141 154.093 8.97141C155.562 8.97141 156.671 10.1506 156.671 11.6699C156.671 13.1893 155.562 14.3684 154.093 14.3684ZM155.58 10.8541C155.58 10.1506 155.159 9.80515 154.297 9.80515H152.863V13.5242H153.473V11.881H153.985L155.033 13.5242H155.679L154.613 11.881C155.2 11.881 155.58 11.4494 155.58 10.8541ZM153.473 11.4053V10.2808H154.197C154.589 10.2808 154.971 10.4047 154.971 10.8257C154.971 11.3087 154.665 11.4053 154.197 11.4053H153.473Z" fill="white"/>
</mask>
<g mask="url(#mask0_5_108)">
<rect x="-43.168" y="-25.6667" width="233.333" height="79.3333" fill="white"/>
</g>
</svg>
