<svg width="58" height="60" viewBox="0 0 58 60" fill="none" xmlns="http://www.w3.org/2000/svg">
<g clip-path="url(#clip0_2187_1181)">
<rect width="58" height="60" fill="#D97E4A"/>
<path d="M24.8947 0C25.8728 0.363894 26.6797 0.958253 26.8859 2.05236C27.0813 3.09067 27.0499 6.33175 26.939 7.44284C26.623 10.6075 22.0822 10.6075 21.7662 7.44284C21.6553 6.33054 21.6239 3.08946 21.8193 2.05236C22.0255 0.958253 22.8324 0.363894 23.8105 0H24.8935H24.8947ZM24.1397 1.95896C23.9468 2.01597 23.7273 2.28283 23.6947 2.48539C23.8298 3.96038 23.5029 5.77984 23.685 7.20995C23.7924 8.04933 24.7729 8.11725 25.0117 7.32154C24.8742 5.8502 25.2071 4.02102 25.0213 2.59699C24.9622 2.14576 24.6161 1.81947 24.1397 1.95896Z" fill="#FFDFCD"/>
<path d="M43.19 52.2954V49.4509C43.19 49.218 40.7128 46.3421 40.3232 45.7974C39.7359 44.975 37.7145 42.1173 37.5553 41.3106C37.3925 40.4822 38.2428 39.9412 38.9748 40.2541C39.2245 40.3609 41.0299 43.4345 41.4062 43.9816C42.5484 45.6422 43.8847 47.1463 45.0606 48.7801C45.1956 49.2387 45.1992 52.8812 45.1088 53.4392C45.0473 53.8152 44.7434 54.0748 44.3984 54.173L30.0718 54.2313C29.8499 61.9313 18.8809 61.9131 18.7591 54.2313L4.61336 54.2349C4.25155 54.2228 3.89938 53.9863 3.74139 53.66C3.50501 53.1736 3.52792 50.1435 3.58822 49.4461C3.68833 48.2974 5.43227 46.6259 6.16796 45.6252C9.69806 40.823 11.7881 36.7741 12.3779 30.6874C12.8458 25.8548 11.8593 21.9939 14.9769 17.8067C18.2357 13.4303 24.2092 11.8995 29.189 14.1435C30.0151 14.5159 31.1826 14.9465 30.7014 16.071C30.2177 17.2039 28.7524 16.0394 28.0565 15.7665C23.0032 13.7893 17.3709 16.1268 15.2845 21.1424C14.0712 24.0572 14.5789 28.5792 14.1689 31.8834C13.4814 37.4145 11.4722 41.6017 8.26527 46.04C7.90708 46.5361 5.5191 49.349 5.5191 49.5722V52.1146C5.5191 52.128 5.68674 52.2966 5.70001 52.2966H43.1912L43.19 52.2954ZM28.1457 54.2325H20.6839C20.7249 59.3476 27.9998 59.3682 28.1457 54.2325Z" fill="#FFDFCD"/>
<path d="M39.1869 6.20227C40.4316 5.99121 41.6316 6.23623 42.5747 7.09502C47.8186 15.6138 52.5789 24.454 57.6539 33.0867C58.79 35.5855 56.9773 38.2662 54.3264 38.379H25.7938C23.6711 38.2904 21.9453 36.4952 22.1286 34.3203C22.1889 33.6047 22.6219 32.8732 22.9487 32.2413C27.1651 24.0573 32.5742 16.1742 36.881 8.00112C37.3791 7.22845 38.2522 6.36238 39.1857 6.20348L39.1869 6.20227ZM39.5463 8.13939C39.2159 8.20853 38.8155 8.50693 38.6358 8.79683L24.3152 33.7369C23.5783 35.053 24.472 36.3824 25.9132 36.443H54.0864C55.5373 36.4988 56.5263 35.1512 55.8473 33.8145C50.8952 25.3843 46.211 16.7503 41.1347 8.42202C40.6873 8.08481 40.0866 8.02659 39.5451 8.13939H39.5463Z" fill="#FFDFCD"/>
<path d="M13.3187 2.93277C13.9977 2.89759 14.9336 3.30758 15.387 3.81339C15.8272 4.30465 18.126 8.32325 18.3334 8.96128C19.1897 11.6007 16.013 13.5936 14.0604 11.6856C13.6527 11.2878 11.1816 7.00232 10.997 6.41523C10.4845 4.78014 11.5916 3.02132 13.3199 2.93277H13.3187ZM13.3995 4.89052C13.0702 4.90507 12.6167 5.45698 12.829 5.77114C13.7142 6.99868 14.4041 9.04619 15.3328 10.1633C15.9056 10.8535 16.6896 10.2628 16.5026 9.60294L14.0013 5.20953C13.8819 5.03729 13.5997 4.88203 13.4007 4.89173L13.3995 4.89052Z" fill="#FFDFCD"/>
<path d="M1.87409 22.0593C2.80274 21.8701 6.69707 21.9223 7.74995 22.0254C10.5709 22.3043 10.9822 26.8445 7.36763 27.2218C6.16279 27.3479 2.33359 27.3795 1.34102 26.8979C-0.722531 25.8984 -0.298002 22.5021 1.87409 22.0593ZM7.74512 23.9686H2.32877C1.92354 23.9686 1.5364 25.0166 2.50123 25.247C3.08255 25.3865 7.01547 25.3817 7.54371 25.2191C8.28302 24.9911 8.08885 24.0729 7.74392 23.9686H7.74512Z" fill="#FFDFCD"/>
<path d="M5.00765 11.0479C5.71078 10.946 6.09912 11.0213 6.72627 11.3136C7.61151 11.7248 11.0849 13.7553 11.5987 14.403C13.2052 16.4251 11.2116 19.2865 8.77052 18.458C8.07222 18.2203 4.04884 15.9108 3.59296 15.4341C2.16982 13.9494 2.98511 11.3415 5.00765 11.0479ZM5.24524 12.9742C4.63498 13.15 4.72061 13.8523 5.16202 14.2187C5.5564 14.5462 8.82599 16.4202 9.30841 16.5925C10.1165 16.8799 10.5603 15.9265 9.96692 15.4377L5.84585 13.0469C5.6553 12.9438 5.45389 12.9135 5.24404 12.9742H5.24524Z" fill="#FFDFCD"/>
<path d="M39.5502 13.5907C42.148 13.2474 43.5832 15.1627 43.4301 17.6129C43.2431 20.6066 42.3929 23.8367 42.1504 26.8583C41.7802 28.9591 38.8061 29.2381 38.0788 27.2355C37.7556 24.0805 36.8655 20.6284 36.6931 17.4929C36.5857 15.54 37.4915 13.8636 39.5514 13.5919L39.5502 13.5907ZM39.7914 15.5218C38.8218 15.6625 38.5793 16.3708 38.6131 17.2563C38.7217 20.1529 39.6925 23.3819 39.8252 26.3258C40.2425 27.1773 40.339 25.9958 40.4053 25.5858C40.7961 23.1696 41.3677 19.8751 41.504 17.4916C41.5727 16.2799 41.2097 15.3168 39.7914 15.5218Z" fill="#FFDFCD"/>
<path d="M39.4264 29.3235C42.5067 28.7898 44.0781 32.5815 41.6166 34.31C39.6664 35.6795 36.9528 33.957 37.3448 31.5869C37.51 30.5886 38.4097 29.4981 39.4264 29.3223V29.3235ZM40.6264 31.3892C39.5579 30.5219 38.4471 32.7028 40.0017 32.812C40.9171 32.8763 41.1909 31.8465 40.6264 31.3892Z" fill="#FFDFCD"/>
</g>
<defs>
<clipPath id="clip0_2187_1181">
<rect width="58" height="60" fill="white"/>
</clipPath>
</defs>
</svg>
