<svg width="67" height="44" viewBox="0 0 67 44" fill="none" xmlns="http://www.w3.org/2000/svg">
<g clip-path="url(#clip0_2187_1285)">
<path d="M0 15.4276V14.5662C0.301303 14.1989 0.56125 13.8416 1.10182 13.846C5.33779 14.2046 10.3817 13.3778 14.5187 13.846C16.0045 14.0145 16.099 16.0009 14.3754 16.1536C10.1616 16.5267 5.37766 15.8583 1.10182 16.1493C0.559773 16.1522 0.301303 15.7949 0 15.4291L0 15.4276Z" fill="#FFDFCD"/>
<path d="M49.0752 44.0003H34.9273C33.8772 43.4025 33.9038 42.0009 35.1577 41.7114C39.4749 41.9822 44.312 41.3224 48.5672 41.6955C50.0707 41.8281 50.242 43.2585 49.0752 44.0003Z" fill="#FFDFCD"/>
<path d="M32.5688 44.0003H26.6742C25.7984 43.5826 25.6123 42.2069 26.5634 41.8107C27.0567 41.6048 31.2765 41.6278 32.0593 41.6955C33.5628 41.8266 33.7356 43.2584 32.5673 44.0003H32.5688Z" fill="#FFDFCD"/>
<path d="M60.281 31.6595C58.8144 39.3057 47.901 39.2178 46.3369 31.6451H24.9902C23.4246 39.2207 12.5127 39.3043 11.0461 31.6595C10.8334 31.4564 5.97118 31.7791 5.09238 31.6451C3.78674 31.4463 3.78969 29.5636 5.09238 29.3648C5.97118 29.2309 10.8334 29.5521 11.0461 29.3504C12.4389 21.7475 23.5265 21.7604 24.9119 29.3504L46.3369 29.3648C47.901 21.7921 58.8144 21.7043 60.281 29.3504C61.3563 29.1747 64.1994 29.9209 64.517 28.5365C64.6543 27.9358 64.6337 24.0537 64.4786 23.466C63.5259 19.8547 56.757 18.2082 53.5253 17.6248C52.6598 17.4692 51.1666 17.4879 50.437 17.1883C49.7605 16.9103 47.4136 14.6991 46.5525 14.0811C43.1348 11.628 39.8648 10.6023 35.5949 10.3992C26.1023 9.94691 16.2317 10.7478 6.70081 10.4079C5.10568 10.2264 5.26519 8.09155 6.84408 8.1002C16.3779 8.45888 26.2471 7.64788 35.7426 8.1002C39.9298 8.30043 43.5986 9.267 47.0577 11.579C48.2673 12.3871 50.3572 14.4787 51.3926 14.9656C52.1311 15.3128 55.1412 15.5591 56.2696 15.8141C59.9251 16.6409 64.9867 18.5712 66.4917 22.2228C67.053 23.5841 67.0766 27.0427 66.9082 28.5668C66.539 31.8958 62.8879 31.8151 60.281 31.6595ZM17.3572 25.9508C11.4906 26.6236 12.1686 35.4696 18.3453 35.0966C24.5043 34.7235 23.8721 25.2032 17.3572 25.9508ZM52.7263 25.9508C46.8598 26.6236 47.5377 35.4696 53.7144 35.0966C59.8734 34.7235 59.2412 25.2032 52.7263 25.9508Z" fill="#FFDFCD"/>
<path d="M46.5289 16.1739C47.297 16.0083 48.0192 16.4375 48.0532 17.2255C48.1137 18.6098 45.3001 19.7363 44.1215 19.863L24.6801 19.8818C23.2696 19.8054 23.1735 17.7988 24.5442 17.5899L43.8423 17.5813C44.8393 17.7239 45.9263 16.3021 46.5275 16.1725L46.5289 16.1739Z" fill="#FFDFCD"/>
<path d="M11.1584 0.0946549L25.4259 0.0615234C26.9 0.207014 26.9458 2.19346 25.4259 2.36488C21.1043 2.85177 15.8419 1.99179 11.4198 2.36488C10.0743 2.25396 9.88817 0.509518 11.1598 0.0946549H11.1584Z" fill="#FFDFCD"/>
<path d="M3.49488 0.0950728C4.07976 -0.031691 8.30095 -0.031691 8.88436 0.0950728C10.0423 0.34716 10.0349 2.15931 8.76029 2.35377C8.02476 2.46613 4.16247 2.47622 3.49488 2.33217C2.36647 2.08728 2.36351 0.342838 3.49488 0.0965133V0.0950728Z" fill="#FFDFCD"/>
</g>
<defs>
<clipPath id="clip0_2187_1285">
<rect width="67" height="44" fill="white"/>
</clipPath>
</defs>
</svg>
