<svg width="57" height="50" viewBox="0 0 57 50" fill="none" xmlns="http://www.w3.org/2000/svg">
<g clip-path="url(#clip0_2187_1242)">
<rect width="57" height="50" fill="#D97E4A"/>
<path d="M0 21.1094L5.43133 7.64846C5.66108 7.18013 6.19529 7.04712 6.65032 7.2539L13.8572 12.6347L14.2263 13.1612L10.9084 26.7976H46.0816L42.7637 13.1612L43.1328 12.6347L50.3396 7.2539C50.7936 7.04712 51.3289 7.17901 51.5586 7.64846L56.9989 21.3911C57.0134 21.6985 56.9007 21.9835 56.6498 22.1635C53.8059 24.1777 50.8705 26.1214 48.1069 28.2138C48.0032 35.3126 48.2106 42.4393 48.0021 49.5214C47.8303 49.8511 47.5169 50.0176 47.1455 50.0009L9.63588 49.9886C9.221 49.9282 8.91542 49.5828 8.90315 49.1614L8.88419 28.2127L8.74255 28.0205L0.340155 22.1612L0 21.7779V21.1083V21.1094ZM2.01751 21.2045L9.17973 26.1281L12.3047 13.748L6.56779 9.51063L2.01751 21.2045ZM50.4222 9.51063L44.6585 13.8162L47.8102 26.1281L54.997 21.1497L50.4222 9.51063ZM24.0429 28.5816H10.6853V48.2102H24.0429V28.5816ZM31.166 28.5816H25.8228V48.2102H31.166V28.5816ZM46.3046 28.5816H32.9471V48.2102H46.3046V28.5816Z" fill="#FFDFCD"/>
<path d="M34.4753 0.0515839C35.2103 -0.109371 35.7623 0.440559 35.5973 1.17603C35.5393 1.43311 34.2701 3.1265 34.0024 3.59595C31.6794 7.67683 30.612 12.3702 30.2764 17.0379C30.2117 17.9332 30.6756 19.9731 29.1321 19.6356C28.2365 19.44 28.4629 17.675 28.4953 16.9262C28.7139 11.9332 30.3778 5.514 33.2552 1.39735C33.5028 1.04302 34.0905 0.134297 34.4742 0.0504662L34.4753 0.0515839Z" fill="#FFDFCD"/>
<path d="M43.4959 6.29532C44.1205 6.21261 44.7729 6.96708 44.4004 7.54719C39.9828 12.017 37.0263 17.6203 35.4939 23.7165C35.0879 24.4095 33.9359 24.1859 33.84 23.3856C33.7474 22.6233 34.9686 19.3025 35.3132 18.4049C36.6828 14.8282 38.9813 10.7696 41.5732 7.94734C41.9435 7.54384 43.0241 6.35791 43.497 6.29532H43.4959Z" fill="#FFDFCD"/>
<path d="M13.2157 6.2937C13.4822 6.24564 13.751 6.35518 13.9696 6.49825C14.5061 6.85146 15.6771 8.23522 16.1366 8.78851C18.4184 11.5359 20.3946 15.0713 21.6772 18.4044C22.0207 19.2986 23.2419 22.6262 23.1505 23.3851C23.0534 24.1854 21.9025 24.4101 21.4965 23.716C20.2028 18.799 18.0626 13.9402 14.8016 10.0147C14.3376 9.4558 12.4975 7.74118 12.4685 7.21473C12.4484 6.85481 12.8677 6.3563 13.2168 6.29259L13.2157 6.2937Z" fill="#FFDFCD"/>
<path d="M20.2277 0.052218C20.8623 -0.0863821 21.527 0.527259 21.9865 0.919587C24.3598 2.94717 26.3126 6.19422 27.2148 9.17635C27.4145 9.83582 27.9509 11.0821 27.2026 11.5046C25.7962 12.2993 25.591 9.87383 25.2687 9.00646C24.1512 6.00085 22.3601 3.26796 19.7136 1.41251C19.4113 0.919587 19.6444 0.180758 20.2266 0.052218H20.2277Z" fill="#FFDFCD"/>
<path d="M40.9614 1.81591C43.3771 1.38558 43.3759 4.03016 40.9614 3.59871C41.3908 6.01863 38.751 6.01751 39.1814 3.59871C36.7658 4.02904 36.7669 1.38446 39.1814 1.81591C38.7521 -0.606237 41.3919 -0.601766 40.9614 1.81591Z" fill="#FFDFCD"/>
<path d="M17.8081 3.59967C20.2215 3.16822 20.2249 5.8128 17.8081 5.38247C18.2386 7.80127 15.5987 7.80239 16.0281 5.38247C13.6136 5.81392 13.6125 3.16822 16.0281 3.59967C15.5976 1.18088 18.2375 1.17976 17.8081 3.59967Z" fill="#FFDFCD"/>
<path d="M25.8227 16.9819C28.2384 16.5516 28.2373 19.1962 25.8227 18.7647C26.2521 21.1846 23.6123 21.1835 24.0428 18.7647C21.6271 19.1951 21.6282 16.5505 24.0428 16.9819C23.6134 14.5598 26.2532 14.5642 25.8227 16.9819Z" fill="#FFDFCD"/>
</g>
<defs>
<clipPath id="clip0_2187_1242">
<rect width="57" height="50" fill="white"/>
</clipPath>
</defs>
</svg>
