<svg xmlns="http://www.w3.org/2000/svg" viewBox="0 0 24 24" fill="currentColor"><path d="M12.04 2.04c-5.47 0-9.91 4.44-9.91 9.91 0 1.75.46 3.45 1.35 4.95L2.05 22l5.12-1.32c1.44.79 3.08 1.21 4.87 1.21 5.47 0 9.91-4.44 9.91-9.91S17.51 2.04 12.04 2.04zm3.61 14.59c-.19.33-.74.63-1.06.66-.32.03-.69.01-1.06-.12-.6-.2-1.44-.44-2.33-1.36-.7-.72-1.17-1.61-1.4-1.98-.23-.37-.02-.57.16-.74.15-.14.33-.36.49-.54.16-.19.21-.32.32-.53.11-.21.06-.39-.03-.57-.09-.18-.66-1.59-.91-2.16-.24-.58-.48-.49-.66-.49-.19 0-.4-.02-.61-.02-.21 0-.56.08-.85.35-.29.27-1.11 1.08-1.11 2.64 0 1.56 1.14 3.05 1.3 3.28.16.23 2.22 3.39 5.38 4.63 3.16 1.24 3.81.99 4.5.92.69-.07 1.6-.65 1.86-1.29.26-.64.26-1.19.18-1.32-.08-.14-.29-.22-.61-.38z"/></svg>