<svg version="1.1" id="Layer_1" xmlns="http://www.w3.org/2000/svg" xmlns:xlink="http://www.w3.org/1999/xlink" x="0px" y="0px"
	 width="100%" viewBox="0 0 1024 672" enable-background="new 0 0 1024 672" xml:space="preserve">
<path fill="#000000" opacity="1.000000" stroke="none" 
	d="
M115.967407,336.553101 
	C113.779663,309.179382 118.969269,284.033936 134.489075,261.553131 
	C152.476791,235.497543 177.074905,219.742844 208.579529,215.625702 
	C244.481033,210.933975 276.210510,220.560791 301.746399,246.452377 
	C327.778351,272.846893 337.567993,305.067017 331.442078,341.757324 
	C323.585175,388.815155 288.346649,424.040009 240.964432,431.522003 
	C185.197983,440.327881 133.185242,405.280029 118.915878,351.671112 
	C117.637878,346.869781 117.001228,341.897766 115.967407,336.553101 
M276.353424,371.092896 
	C270.449615,362.921143 270.731842,363.086853 275.672424,354.672211 
	C288.425385,332.951996 287.854767,311.287476 274.115265,290.240326 
	C271.595886,286.380981 271.246002,283.805298 274.179230,280.217834 
	C277.177429,276.550964 279.528503,272.354980 282.162842,268.390594 
	C276.741669,270.552460 272.164978,273.271820 267.780884,276.272552 
	C265.163025,278.064362 263.280823,277.777527 260.732941,275.880341 
	C238.350327,259.213837 211.025146,259.086304 188.397064,275.530762 
	C185.831009,277.395569 183.955353,277.651184 181.301117,275.847809 
	C176.139252,272.340607 170.758636,269.155365 165.313965,265.739746 
	C165.231262,266.343658 165.136108,266.546356 165.200256,266.640533 
	C168.568893,271.587189 171.873535,276.580292 175.364075,281.439819 
	C177.134598,283.904755 177.362717,285.811066 175.435364,288.536224 
	C159.203949,311.486176 159.308182,335.888641 175.690552,359.009705 
	C177.420029,361.450592 177.645691,363.202057 175.881470,365.641998 
	C172.608948,370.167877 169.614838,374.895111 166.504791,379.538513 
	C166.792099,379.845398 167.079407,380.152252 167.366714,380.459137 
	C172.197342,377.384033 177.079636,374.386078 181.835907,371.200012 
	C184.078751,369.697632 185.793961,369.735138 188.109024,371.319672 
	C212.791504,388.213531 235.419479,388.255890 260.405212,371.488190 
	C262.667816,369.969727 264.325226,369.798889 266.653564,371.374481 
	C271.798462,374.856018 277.162170,378.014282 282.436615,381.304413 
	C282.619904,381.082672 282.803162,380.860962 282.986450,380.639221 
	C280.916016,377.650726 278.845551,374.662231 276.353424,371.092896 
M215.710098,251.437698 
	C218.634109,251.284348 217.769028,248.960281 217.992142,247.337524 
	C218.337814,244.823654 217.525558,242.159607 218.810257,239.263885 
	C222.620743,242.477188 224.678940,246.477661 227.402039,249.924606 
	C228.389465,251.174530 229.531250,252.157303 231.207916,251.525513 
	C232.764877,250.938843 232.620712,249.429901 232.629120,248.122147 
	C232.656876,243.808701 232.667801,239.494614 232.619476,235.181488 
	C232.603363,233.745255 232.826080,232.058563 230.382751,231.721344 
	C227.333527,235.155350 230.718964,240.070450 228.117783,243.662582 
	C225.893509,243.174438 225.334579,241.226837 224.247482,239.869095 
	C222.383591,237.541153 220.703995,235.066620 218.885529,232.700897 
	C218.118179,231.702606 217.027756,231.262787 215.793365,231.784485 
	C214.738174,232.230469 214.437241,233.237961 214.481461,234.261154 
	C214.723190,239.852234 213.640076,245.491104 215.710098,251.437698 
M153.071259,325.662231 
	C153.694397,322.116302 155.756943,318.774902 154.921814,314.237152 
	C150.383057,317.956635 151.982895,323.651611 148.751007,328.016541 
	C146.171631,323.381805 146.776962,318.071411 143.218658,314.277985 
	C139.319290,317.816132 141.038940,323.658203 137.471680,327.045868 
	C134.060181,323.414856 136.507080,317.148468 130.692749,313.811951 
	C131.323334,320.412201 133.259491,325.525482 134.568146,330.769226 
	C134.870789,331.981934 135.250122,333.515839 136.991653,333.514893 
	C138.733566,333.513916 138.895874,331.929382 139.449936,330.775146 
	C140.825729,327.908875 140.693970,324.339020 143.635956,321.599609 
	C144.307755,323.558228 144.698776,325.154724 145.389557,326.608856 
	C146.522858,328.994476 145.833130,333.362488 149.222748,333.282837 
	C152.610092,333.203217 151.621277,328.792816 153.071259,325.662231 
M218.246582,405.045258 
	C219.746262,406.451813 221.596329,407.114716 223.541260,407.633453 
	C225.267975,408.093964 227.624695,408.432831 226.871048,410.925171 
	C226.219772,413.078979 224.013748,412.480469 222.180801,412.506317 
	C220.467239,412.530487 218.466843,410.183685 216.946320,412.899780 
	C220.149948,416.154236 225.803741,416.712219 228.860519,414.124359 
	C231.723724,411.700378 231.516663,407.715576 228.234283,405.831177 
	C226.542633,404.860016 224.541931,404.435516 222.700073,403.714905 
	C221.369720,403.194427 220.330460,402.349670 220.695145,400.737091 
	C221.048187,399.176025 222.359375,398.956573 223.731064,398.688232 
	C225.552490,398.331848 227.477692,400.670471 229.422302,398.256439 
	C226.847076,394.996460 223.751785,394.752197 220.320267,396.463318 
	C216.802460,398.217468 216.459518,401.101837 218.246582,405.045258 
M305.937531,317.632385 
	C307.116425,317.517426 308.415070,317.451447 308.346069,315.815918 
	C308.305176,314.845764 307.433899,314.618805 306.591949,314.393433 
	C299.803436,312.576324 297.115601,314.608124 297.145142,321.573151 
	C297.152893,323.397430 297.005005,325.236786 297.190582,327.042267 
	C297.413788,329.214294 295.976074,332.367310 298.706360,333.269287 
	C301.730865,334.268494 305.249420,334.702271 308.482941,332.606018 
	C307.013550,330.333252 304.939178,331.089844 303.285461,330.651794 
	C301.797455,330.257629 300.233643,330.067352 300.246429,328.062714 
	C300.259369,326.028931 301.734222,325.813538 303.331299,325.659821 
	C304.817596,325.516754 306.846130,326.260834 307.197815,323.712158 
	C305.833862,321.541901 303.531403,322.736633 301.751709,322.144165 
	C300.627594,321.769928 300.183441,320.927185 300.371735,319.836609 
	C300.889496,316.838196 303.345551,317.942596 305.937531,317.632385 
z"/>
<path fill="#000000" opacity="1.000000" stroke="none" 
	d="
M708.548950,337.442139 
	C704.834167,336.782623 704.650391,334.315430 704.655457,331.679382 
	C704.672607,322.852448 704.691406,314.025299 704.641296,305.198608 
	C704.619080,301.281128 703.948425,297.499969 700.682312,294.849976 
	C695.634399,290.754364 688.437317,292.390106 685.509583,298.330017 
	C683.791748,301.815338 683.273193,305.584686 683.321594,309.482361 
	C683.412659,316.809235 683.143921,324.145599 683.415833,331.463470 
	C683.591492,336.192444 681.178528,337.726898 677.099792,337.773071 
	C673.024719,337.819153 670.569275,336.348663 670.619690,331.615784 
	C670.775513,316.961456 670.675049,302.304260 670.652405,287.648193 
	C670.648438,285.105957 670.482178,282.578094 673.530762,281.423309 
	C676.425659,280.326721 679.084412,280.569061 681.475708,282.584290 
	C682.227478,283.217773 682.844177,284.011444 683.732788,284.954742 
	C694.808899,276.855072 704.848999,278.893616 713.626160,288.462708 
	C715.919800,287.819641 716.796509,286.043304 718.203430,284.930145 
	C724.448486,279.989044 731.216064,278.655273 738.791382,281.504608 
	C746.119507,284.261017 750.055725,289.867157 751.125244,297.178558 
	C752.816895,308.743286 751.960449,320.443970 751.925171,332.090271 
	C751.911133,336.726776 748.771973,337.984741 744.861938,337.876129 
	C741.047180,337.770172 738.610779,336.181519 738.667603,331.795868 
	C738.784058,322.804047 738.721130,313.809143 738.662048,304.816010 
	C738.615417,297.715179 735.207397,293.273499 729.407227,292.570801 
	C724.056946,291.922607 719.090454,295.958984 717.947327,302.767914 
	C716.453125,311.667236 717.566345,320.703491 717.375977,329.677704 
	C717.218384,337.107513 716.421326,337.956360 708.548950,337.442139 
z"/>
<path fill="#000000" opacity="1.000000" stroke="none" 
	d="
M566.063354,279.878998 
	C573.367493,280.118469 579.528503,282.284149 584.557861,286.965271 
	C586.602966,285.444763 585.913696,283.636108 585.958679,282.102661 
	C586.119812,276.614319 586.061462,271.119598 586.219910,265.631165 
	C586.334900,261.643921 588.312927,259.541992 592.531616,259.681305 
	C596.755127,259.820770 599.126709,261.701935 599.128845,266.050476 
	C599.139465,287.855927 599.131104,309.661346 599.107422,331.466797 
	C599.104248,334.341187 598.342163,336.749878 595.018555,337.415771 
	C590.867310,338.247498 587.393982,337.600616 585.555847,332.930969 
	C581.362915,334.871307 577.791138,337.640717 573.250977,338.379944 
	C556.228149,341.151611 541.183838,331.716797 538.808044,316.608215 
	C535.617798,296.319214 545.673279,282.549194 566.063354,279.878998 
M567.748535,292.421600 
	C566.134277,292.787354 564.472290,293.012756 562.913879,293.542694 
	C555.436157,296.085571 550.172241,304.724091 551.609314,311.959473 
	C553.601440,321.988953 560.712769,327.469055 570.826660,326.768555 
	C579.108704,326.194946 585.286072,319.642273 585.762207,310.925507 
	C586.322815,300.664154 579.641174,293.470428 567.748535,292.421600 
z"/>
<path fill="#000000" opacity="1.000000" stroke="none" 
	d="
M876.195435,345.965912 
	C876.194641,347.949158 876.221191,349.448456 876.186829,350.946320 
	C876.037048,357.465179 872.725830,359.909302 866.384583,358.229553 
	C863.001160,357.333313 862.856201,354.631958 862.851501,351.899231 
	C862.828369,338.411591 862.835938,324.923859 862.832397,311.436157 
	C862.830505,304.276001 862.785400,297.115479 862.844421,289.955841 
	C862.872437,286.556030 862.026794,282.742523 866.616577,281.215027 
	C870.319641,279.982666 873.142944,280.954254 876.813232,285.218689 
	C884.292053,280.460236 892.363525,278.262207 901.253174,281.295654 
	C907.099487,283.290619 912.015381,286.448517 915.554443,291.614655 
	C922.796936,302.186523 922.336548,319.465607 914.514832,329.148865 
	C905.577454,340.213257 894.427673,341.723206 876.194824,333.909180 
	C876.194824,337.965179 876.194824,341.723236 876.195435,345.965912 
M903.678467,321.079102 
	C907.365173,316.176941 907.561218,310.569794 906.602295,304.896637 
	C905.219788,296.716553 896.234680,290.905396 888.316223,292.817780 
	C880.900757,294.608734 876.341064,300.193420 875.416199,308.617676 
	C874.708496,315.062958 878.578552,322.516998 884.104675,325.352509 
	C890.204956,328.482635 897.420105,327.090912 903.678467,321.079102 
z"/>
<path fill="#000000" opacity="1.000000" stroke="none" 
	d="
M467.262024,322.973022 
	C467.263336,325.130585 467.335846,326.797455 467.250061,328.456146 
	C467.084991,331.647766 468.315796,335.688232 464.100342,337.023682 
	C460.174927,338.267212 456.130829,338.080505 453.273071,333.537384 
	C445.457489,339.237152 436.979401,341.008972 427.796387,338.062073 
	C422.018860,336.208008 417.640961,332.489594 414.307098,327.507446 
	C406.415100,315.713379 407.991943,297.679626 417.742279,287.806396 
	C427.179993,278.249756 440.091553,277.610168 453.817444,286.134186 
	C455.098877,281.620148 458.371033,280.285797 462.601929,281.017456 
	C467.200745,281.812683 467.335663,285.339355 467.308014,289.049072 
	C467.224884,300.191772 467.267944,311.335388 467.262024,322.973022 
M434.558441,326.240723 
	C445.315948,327.895264 451.939697,323.730835 454.314575,313.819794 
	C456.116364,306.300415 452.296600,297.477600 445.839447,294.243958 
	C439.325500,290.981903 431.910583,292.386902 427.237732,297.662750 
	C420.990540,304.716156 420.997742,321.820984 434.558441,326.240723 
z"/>
<path fill="#000000" opacity="1.000000" stroke="none" 
	d="
M663.910767,312.562195 
	C660.637268,331.746033 647.033691,341.710541 629.078430,338.446320 
	C615.001038,335.887085 605.951782,325.014038 605.696106,310.351715 
	C605.435730,295.417114 614.167419,283.861481 628.067627,280.745300 
	C648.163635,276.240173 665.215820,291.138550 663.910767,312.562195 
M642.524475,294.838470 
	C635.151794,291.533447 629.151978,292.323486 624.308289,297.237061 
	C618.972534,302.649780 617.790771,311.731232 621.475952,319.003693 
	C624.249268,324.476715 630.225586,327.447418 636.939575,326.690277 
	C643.387695,325.963104 647.887329,321.617706 650.026550,314.051819 
	C651.967041,307.188599 649.380188,300.099945 642.524475,294.838470 
z"/>
<path fill="#000000" opacity="1.000000" stroke="none" 
	d="
M476.758972,293.060272 
	C476.756805,291.572144 476.764343,290.572662 476.752380,289.573395 
	C476.710114,286.042664 476.307251,282.322571 480.974548,281.173889 
	C485.316956,280.105164 488.374298,281.680847 490.100616,286.068268 
	C494.215363,283.857147 497.896759,281.342499 502.430054,280.475128 
	C516.414185,277.799377 527.973083,286.586578 529.436279,300.768433 
	C530.483704,310.920654 529.834045,321.060547 530.098083,331.202026 
	C530.222229,335.969940 527.640442,337.759491 523.308044,337.814117 
	C518.545410,337.874207 516.788940,336.158234 516.743469,331.149811 
	C516.667847,322.822174 516.793030,314.492340 516.677124,306.165588 
	C516.560730,297.802460 511.660980,292.670807 503.884491,292.505676 
	C496.820343,292.355682 491.154694,297.720276 490.211639,305.132690 
	C489.113159,313.767059 489.474854,322.424438 489.464050,331.078613 
	C489.457458,336.364532 488.191254,337.762238 483.218781,337.789917 
	C478.467682,337.816345 476.824127,336.189331 476.797699,331.026276 
	C476.733734,318.534119 476.766174,306.041473 476.758972,293.060272 
z"/>
<path fill="#000000" opacity="1.000000" stroke="none" 
	d="
M777.339966,316.689941 
	C777.520081,324.925812 778.738220,326.280060 786.663330,326.659363 
	C789.838318,326.811279 791.756592,328.088593 792.164368,331.222656 
	C792.560486,334.266602 791.155884,336.255310 788.280945,337.403015 
	C776.681458,342.033752 764.783203,334.322632 764.669189,321.994690 
	C764.593750,313.832611 764.561646,305.668396 764.669983,297.507263 
	C764.713135,294.252899 763.623291,292.429504 760.157654,292.412262 
	C756.360596,292.393372 754.709717,290.078735 754.820679,286.623962 
	C754.930176,283.216614 757.103577,281.517944 760.454590,281.680847 
	C763.841736,281.845520 764.891113,280.171173 764.654419,277.102417 
	C764.552246,275.777679 764.744202,274.428406 764.619568,273.107574 
	C764.184082,268.494049 766.638550,266.758362 770.842407,266.728607 
	C775.037598,266.698914 777.514160,268.483856 777.336182,273.001526 
	C777.323059,273.334045 777.343445,273.667755 777.342590,274.000916 
	C777.322876,281.725922 776.520813,281.716400 784.849182,281.695679 
	C789.837646,281.683258 792.411316,284.744293 791.091248,288.827942 
	C789.991943,292.228668 787.187439,292.394409 784.210205,292.422852 
	C777.347168,292.488464 777.341675,292.544983 777.333679,299.239014 
	C777.326965,304.902985 777.336365,310.566925 777.339966,316.689941 
z"/>
<path fill="#000000" opacity="1.000000" stroke="none" 
	d="
M811.046875,282.716980 
	C811.809631,284.170410 812.322998,285.351318 812.990845,286.887665 
	C817.195557,282.691254 822.069824,280.309143 828.089233,280.503448 
	C832.325378,280.640198 833.387573,282.938171 833.390930,286.667145 
	C833.394287,290.389313 832.916992,293.118347 828.187500,293.369507 
	C816.861084,293.971008 813.361877,297.780212 813.191467,309.239227 
	C813.085022,316.391327 813.209351,323.546783 813.113708,330.699158 
	C813.042053,336.060760 811.390564,337.664490 806.311279,337.678467 
	C801.338196,337.692169 799.709778,336.031311 799.692444,330.602386 
	C799.648438,316.794464 799.661011,302.986267 799.677673,289.178253 
	C799.687500,281.056793 803.141968,278.979736 811.046875,282.716980 
z"/>
<path fill="#000000" opacity="1.000000" stroke="none" 
	d="
M383.351746,337.449371 
	C375.914062,338.189056 374.681458,337.411102 374.535614,330.813538 
	C374.230835,317.030090 374.203674,303.240448 374.083832,289.453125 
	C374.051483,285.727142 373.875153,281.847504 378.856628,280.949249 
	C383.342834,280.140289 386.179535,282.130554 387.607788,286.719269 
	C391.346161,283.088257 395.505859,280.848663 400.490601,280.357697 
	C405.351837,279.878906 407.612091,281.550964 408.065521,286.021118 
	C408.559326,290.888885 406.691956,293.047424 401.753693,293.317230 
	C392.170929,293.840759 387.602753,298.432465 387.375671,308.157257 
	C387.197205,315.801239 387.311523,323.452332 387.319946,331.100250 
	C387.323029,333.883850 387.141815,336.523071 383.351746,337.449371 
z"/>
<path fill="#000000" opacity="1.000000" stroke="none" 
	d="
M839.833496,299.007141 
	C839.830139,294.689362 839.791687,290.869537 839.834839,287.050598 
	C839.885559,282.558685 842.759277,280.845642 846.677429,280.924500 
	C850.523132,281.001892 853.353088,282.559692 853.325439,287.200409 
	C853.237305,301.979645 853.209106,316.760162 853.309326,331.539154 
	C853.340637,336.157837 850.760193,337.693970 846.789673,337.880920 
	C842.200562,338.097046 839.987244,336.132812 839.924011,331.389252 
	C839.782471,320.762787 839.851318,310.133575 839.833496,299.007141 
z"/>
<path fill="#000000" opacity="1.000000" stroke="none" 
	d="
M390.988037,385.273926 
	C390.440277,383.916565 390.689606,382.587402 389.357849,381.732269 
	C388.435791,384.653076 387.538330,387.491821 386.643799,390.331512 
	C386.152618,391.890686 385.284485,392.983002 383.475830,392.964630 
	C381.750580,392.947113 380.562195,392.043579 380.110474,390.485229 
	C378.316620,384.297272 376.628326,378.078705 374.610046,370.826385 
	C384.162628,371.191437 380.178986,379.638550 383.865234,382.867462 
	C384.729492,379.989838 385.727966,376.914642 386.561249,373.795258 
	C387.044128,371.987701 387.795746,370.770081 389.903473,370.838989 
	C391.821777,370.901733 392.443970,372.263031 392.865784,373.716095 
	C393.774597,376.846741 394.561859,380.012665 395.541077,383.699768 
	C397.806183,379.340942 397.055450,374.504486 400.133606,371.234680 
	C400.992096,370.322754 402.649353,370.591553 404.190186,372.151733 
	C402.545349,378.056000 400.827850,384.264008 399.080719,390.463654 
	C398.615784,392.113617 397.456238,392.895935 395.744690,392.903046 
	C393.997375,392.910278 392.966614,392.052948 392.509583,390.386353 
	C392.070251,388.784210 391.568817,387.199066 390.988037,385.273926 
z"/>
<path fill="#000000" opacity="1.000000" stroke="none" 
	d="
M558.043945,372.117676 
	C561.132568,369.780457 562.737488,370.902649 563.566772,374.025024 
	C564.369080,377.045563 565.265930,380.040955 566.315247,383.729218 
	C567.403931,379.934906 568.272888,376.797455 569.212036,373.681122 
	C569.652405,372.219910 570.229797,370.864807 572.159851,370.822845 
	C574.278320,370.776794 574.987305,372.018372 575.437927,373.829315 
	C576.275269,377.194305 577.271851,380.519684 578.364868,384.446106 
	C579.276489,380.713104 580.098450,377.589142 580.792908,374.437073 
	C581.520813,371.133087 583.196228,369.895325 587.064941,371.734009 
	C585.199036,378.046112 583.341064,384.345062 581.473206,390.641113 
	C580.977417,392.312042 579.831665,393.056122 578.100891,392.933655 
	C576.365295,392.810791 575.385498,391.781616 574.952209,390.204071 
	C574.118713,387.169556 573.342285,384.119354 572.316467,380.216766 
	C571.246643,383.829803 570.341919,386.703979 569.553955,389.609802 
	C569.026978,391.552734 568.179565,393.011871 565.882874,392.920258 
	C563.879211,392.840363 563.033203,391.579529 562.564209,389.798523 
	C561.044861,384.027740 559.465698,378.272675 558.043945,372.117676 
z"/>
<path fill="#000000" opacity="1.000000" stroke="none" 
	d="
M446.895538,378.041687 
	C447.980255,379.717499 448.871857,381.096283 449.763458,382.475037 
	C450.066864,382.449097 450.370300,382.423157 450.673737,382.397217 
	C450.673737,379.675934 450.640350,376.954102 450.686920,374.233612 
	C450.712677,372.727264 450.735107,371.078339 452.852661,370.989685 
	C455.347778,370.885193 455.289001,372.766724 455.303436,374.431244 
	C455.346619,379.411652 455.349884,384.392792 455.311371,389.373230 
	C455.301422,390.659912 455.487823,392.182129 453.841095,392.724304 
	C452.080231,393.304108 450.506256,392.834167 449.445312,391.301788 
	C447.278748,388.172424 445.200562,384.981842 442.217560,380.516541 
	C442.217560,384.363647 442.229858,386.878448 442.213501,389.393036 
	C442.201691,391.208984 441.758118,392.816528 439.545288,392.825165 
	C437.377869,392.833649 436.802094,391.312866 436.792664,389.458069 
	C436.768250,384.643524 436.724091,379.828644 436.762329,375.014496 
	C436.775146,373.401489 436.538239,371.514709 438.719177,370.951599 
	C440.671936,370.447388 442.354156,370.964478 443.505188,372.700348 
	C444.605042,374.359131 445.639313,376.061432 446.895538,378.041687 
z"/>
<path fill="#000000" opacity="1.000000" stroke="none" 
	d="
M635.346191,385.882172 
	C635.339966,387.362549 635.367676,388.363831 635.319031,389.361359 
	C635.246643,390.845642 635.388062,392.490509 633.351196,392.869293 
	C631.721313,393.172394 630.378235,392.642792 629.418518,391.298676 
	C628.257935,389.673187 627.145630,388.012939 626.029663,386.356140 
	C624.916382,384.703339 623.824341,383.036285 622.005554,380.293549 
	C622.005554,384.074432 622.057312,386.733429 621.987366,389.389160 
	C621.940674,391.161072 621.496887,392.843414 619.242676,392.784088 
	C616.957031,392.723969 616.729370,390.982971 616.720947,389.226746 
	C616.697815,384.395264 616.675171,379.563385 616.715271,374.732208 
	C616.727417,373.272491 616.526184,371.533081 618.419922,370.996277 
	C620.328003,370.455383 622.075989,370.845154 623.245728,372.639679 
	C625.410767,375.961365 627.554504,379.296936 630.665649,382.501007 
	C630.665649,379.593811 630.636658,376.686188 630.678162,373.779602 
	C630.698242,372.376068 630.997437,371.072205 632.792236,370.975647 
	C634.886841,370.862976 635.264343,372.273865 635.282654,373.905975 
	C635.325684,377.737549 635.327515,381.569550 635.346191,385.882172 
z"/>
<path fill="#000000" opacity="1.000000" stroke="none" 
	d="
M528.227295,375.751282 
	C528.348145,377.109009 528.813782,378.425476 528.349548,379.044373 
	C525.063171,383.425690 525.789062,387.699310 529.077271,392.032013 
	C521.601257,395.404419 522.189636,387.138245 518.563171,385.684204 
	C516.645935,386.968903 517.463867,388.824554 517.195496,390.365845 
	C516.932129,391.878448 516.232239,392.838562 514.626343,392.860870 
	C512.834167,392.885773 511.767059,391.971771 511.752625,390.162903 
	C511.708710,384.673004 511.717529,379.182434 511.750641,373.692413 
	C511.757904,372.486542 512.150818,371.513885 513.462341,370.958984 
	C517.746216,369.146576 525.221008,371.351837 528.227295,375.751282 
M522.568115,378.366455 
	C522.294434,375.647034 520.489563,375.086578 518.367859,375.858490 
	C516.869873,376.403534 516.895508,378.256775 517.572754,379.286438 
	C519.113647,381.629303 520.838257,380.693695 522.568115,378.366455 
z"/>
<path fill="#000000" opacity="1.000000" stroke="none" 
	d="
M467.988892,370.719666 
	C478.559509,370.981079 482.803558,374.668427 482.329773,382.776245 
	C481.896118,390.196564 472.299652,395.878784 465.540039,392.780762 
	C463.806305,391.986115 463.711243,390.572296 463.703705,389.065643 
	C463.679565,384.248840 463.754852,379.430908 463.678772,374.615173 
	C463.635803,371.895569 464.802124,370.590088 467.988892,370.719666 
M469.131287,383.275696 
	C469.304962,384.855499 468.700806,386.863373 470.761017,387.561890 
	C472.697601,388.218597 474.399994,387.369598 475.553223,385.760406 
	C477.271271,383.362946 477.229675,380.738190 475.831696,378.255066 
	C474.780243,376.387451 472.876373,375.271851 470.805695,375.767853 
	C468.350800,376.355927 469.394012,378.747498 469.141418,380.421661 
	C469.043365,381.071289 469.123962,381.747894 469.131287,383.275696 
z"/>
<path fill="#000000" opacity="1.000000" stroke="none" 
	d="
M652.432495,370.909668 
	C660.658875,373.220917 663.450378,377.156525 662.237732,384.208191 
	C661.139771,390.592773 651.608765,395.443909 645.571411,392.761719 
	C643.831848,391.988922 643.719360,390.584839 643.705811,389.070679 
	C643.674622,385.584930 643.679321,382.098816 643.680481,378.612854 
	C643.683228,370.523254 643.685913,370.523254 652.432495,370.909668 
M656.498840,379.243591 
	C655.392944,376.642792 653.239441,375.112976 650.652466,375.830505 
	C648.215454,376.506409 649.418396,379.211945 649.166992,381.048676 
	C649.034302,382.018524 649.110046,383.025726 649.171448,384.011108 
	C649.261414,385.454346 649.004578,387.166168 650.921387,387.659058 
	C652.687134,388.113129 654.133240,387.341309 655.339661,386.068024 
	C657.005554,384.309692 656.794739,382.148926 656.498840,379.243591 
z"/>
<path fill="#000000" opacity="1.000000" stroke="none" 
	d="
M691.670898,386.804199 
	C691.682739,382.354004 691.733521,378.373901 691.693359,374.394714 
	C691.668579,371.938538 692.707397,370.650726 695.241882,370.743011 
	C697.391907,370.821289 699.589050,370.633545 701.683594,371.013947 
	C708.057251,372.171509 710.453308,377.058655 706.670166,382.237488 
	C703.622375,386.409698 708.576843,388.465729 708.090942,392.144989 
	C706.078796,393.524170 704.152466,393.456696 702.462524,391.170563 
	C701.133606,389.372772 700.659729,386.906372 698.551025,385.702057 
	C695.649475,387.376251 699.092529,393.198242 693.821289,392.581879 
	C690.715149,392.218658 692.001221,389.226715 691.670898,386.804199 
M701.919373,379.562042 
	C703.565430,376.840393 701.830688,375.934052 699.610901,375.575348 
	C697.950623,375.307068 697.174011,376.399689 697.250427,377.988190 
	C697.400452,381.106201 699.215515,380.940247 701.919373,379.562042 
z"/>
<path fill="#000000" opacity="1.000000" stroke="none" 
	d="
M412.485626,390.610535 
	C409.074890,386.634705 407.970581,382.495636 409.576630,377.811859 
	C411.596497,371.921234 417.267273,369.149109 423.165863,371.133423 
	C428.521973,372.935211 431.290649,379.299500 429.450378,385.579498 
	C427.774231,391.299408 422.191986,394.578400 416.736084,392.909271 
	C415.337830,392.481476 414.087036,391.571564 412.485626,390.610535 
M416.781616,376.269135 
	C414.052765,379.142517 413.578186,382.432800 415.433319,385.850220 
	C416.765930,388.305084 418.991089,389.623291 421.618958,387.808350 
	C424.523743,385.802246 425.314087,382.716766 424.255951,379.425415 
	C423.202637,376.149139 421.027405,374.445374 416.781616,376.269135 
z"/>
<path fill="#000000" opacity="1.000000" stroke="none" 
	d="
M754.048584,381.658936 
	C749.964661,385.729279 755.469421,388.497955 754.848267,392.261780 
	C748.257568,395.241882 748.925781,386.629059 744.956299,385.679230 
	C742.632507,386.843994 743.629517,388.932953 743.329407,390.586609 
	C743.095032,391.877625 742.577454,392.781799 741.133911,392.770447 
	C739.772705,392.759705 738.839233,392.035889 738.826172,390.692596 
	C738.768005,384.728668 738.782837,378.763336 738.861145,372.799744 
	C738.868286,372.258606 739.401978,371.568817 739.886475,371.216827 
	C741.816528,369.814514 750.512268,370.892426 752.791992,372.852295 
	C755.568115,375.238983 755.960693,378.129913 754.048584,381.658936 
M746.223450,375.529144 
	C744.037659,375.445099 743.258118,376.631958 743.507629,378.636169 
	C743.679016,380.012970 744.617920,380.561920 745.931335,380.579163 
	C747.354126,380.597839 748.654541,380.159515 749.155884,378.780640 
	C749.873169,376.807892 748.274902,376.254211 746.223450,375.529144 
z"/>
<path fill="#000000" opacity="1.000000" stroke="none" 
	d="
M829.503296,388.649414 
	C831.340942,383.399567 833.068604,378.535645 834.773926,373.663879 
	C835.373413,371.951355 836.318054,370.811035 838.339539,370.764313 
	C840.305481,370.718933 841.529541,371.603912 842.121155,373.365692 
	C844.175842,379.484894 846.181213,385.620636 848.236328,391.844147 
	C845.353027,393.671173 843.757935,393.011902 842.156494,390.613251 
	C839.858093,387.170624 836.856567,387.224976 834.435608,390.715363 
	C833.347351,392.284302 832.249512,393.292633 830.387207,392.738525 
	C828.245117,392.101135 829.009216,390.466064 829.503296,388.649414 
z"/>
<path fill="#000000" opacity="1.000000" stroke="none" 
	d="
M601.714233,370.890869 
	C604.620972,373.909821 609.093079,386.401733 609.699219,392.216034 
	C607.128235,393.755798 605.590759,392.713776 604.037659,390.405060 
	C601.918030,387.254272 598.680542,387.272339 596.501892,390.430908 
	C595.330139,392.129639 594.165283,393.553558 592.135681,392.600128 
	C589.627075,391.421661 591.289246,389.338928 591.778320,387.810577 
	C593.249023,383.214874 595.057373,378.728149 596.576538,374.146667 
	C597.371460,371.749146 598.683289,370.434723 601.714233,370.890869 
z"/>
<path fill="#000000" opacity="1.000000" stroke="none" 
	d="
M501.824280,379.764221 
	C504.446045,383.821289 501.569733,383.809998 498.983887,384.085052 
	C497.574127,384.234955 495.566467,383.882111 495.604980,386.045471 
	C495.642883,388.171814 497.629242,387.793365 499.048431,387.942535 
	C499.874084,388.029297 500.713470,387.980743 501.540833,388.056885 
	C503.093262,388.199768 504.695251,388.488190 504.740723,390.458862 
	C504.785553,392.401581 503.297272,392.857269 501.689728,393.004303 
	C501.524048,393.019470 501.356903,393.020660 501.191742,393.039642 
	C490.243256,394.297241 489.682251,393.797882 489.664642,382.774811 
	C489.663574,382.109039 489.662750,381.443298 489.662903,380.777527 
	C489.665039,370.133209 490.778870,369.188934 501.329285,370.753479 
	C502.714203,370.958832 504.040100,371.088196 504.121674,372.893463 
	C504.213470,374.925049 502.955566,375.435852 501.235107,375.399506 
	C500.902344,375.392487 500.562927,375.353271 500.237579,375.402222 
	C498.435242,375.673706 495.498779,374.634705 495.638855,377.639771 
	C495.773987,380.537628 498.658020,379.346375 500.471832,379.594055 
	C500.800171,379.638885 501.135803,379.630188 501.824280,379.764221 
z"/>
<path fill="#000000" opacity="1.000000" stroke="none" 
	d="
M818.251160,379.613037 
	C820.187012,379.637787 821.239624,380.217987 821.023315,381.992401 
	C820.847473,383.434265 819.747986,383.818420 818.518494,383.947815 
	C817.525696,384.052338 816.522705,384.065521 815.532532,384.187042 
	C814.472351,384.317169 813.557373,384.747009 813.550232,385.987732 
	C813.543091,387.221954 814.443848,387.651215 815.501953,387.830505 
	C815.829224,387.885956 816.171753,387.864136 816.493652,387.937378 
	C818.695923,388.438477 822.531250,386.840790 822.466187,390.489471 
	C822.394836,394.494720 818.439575,392.720245 816.078796,393.047668 
	C814.447754,393.273865 812.754578,393.085846 811.090698,393.033173 
	C808.911865,392.964264 807.701904,391.917969 807.710449,389.626373 
	C807.729675,384.464172 807.733398,379.301758 807.712585,374.139557 
	C807.703430,371.881805 808.761780,370.746765 811.031006,370.759064 
	C813.861267,370.774384 816.692017,370.760559 819.521667,370.808380 
	C821.017700,370.833649 822.135315,371.412506 822.112610,373.139374 
	C822.090149,374.845917 820.998901,375.414581 819.483398,375.454010 
	C818.984436,375.466980 818.474976,375.373993 817.986633,375.443695 
	C816.220947,375.695679 813.358215,374.445740 813.498535,377.685242 
	C813.615417,380.381622 816.210938,379.374695 818.251160,379.613037 
z"/>
<path fill="#000000" opacity="1.000000" stroke="none" 
	d="
M773.755859,383.872650 
	C772.523682,384.005219 771.691650,384.044586 770.867249,384.145996 
	C769.646057,384.296234 768.438904,384.624512 768.591492,386.183167 
	C768.739197,387.692322 770.066101,387.652985 771.201965,387.943329 
	C773.458435,388.520233 777.714478,386.561615 777.320068,390.708649 
	C776.944763,394.655792 772.741699,392.896759 770.234680,392.991241 
	C762.697266,393.275330 762.686462,393.125122 762.675842,385.796692 
	C762.670593,382.138489 762.791748,378.476624 762.662903,374.823212 
	C762.556152,371.796631 763.898987,370.590729 766.827087,370.711670 
	C769.317322,370.814453 771.814575,370.732849 774.307678,370.783356 
	C775.966431,370.816925 777.282288,371.298828 777.144043,373.363953 
	C777.021179,375.199402 775.723633,375.371033 774.317810,375.395569 
	C773.486694,375.410095 772.654175,375.377075 771.823914,375.408081 
	C770.295471,375.465179 768.558350,375.504700 768.515747,377.549133 
	C768.470337,379.730530 770.333801,379.444916 771.786926,379.643280 
	C773.304749,379.850494 775.348083,378.999817 775.954468,381.298370 
	C776.318115,382.676849 775.430847,383.449036 773.755859,383.872650 
z"/>
<path fill="#000000" opacity="1.000000" stroke="none" 
	d="
M684.006409,372.959259 
	C682.788635,376.471100 680.036316,374.947540 677.955383,375.386017 
	C676.778625,375.634033 675.521240,375.727386 675.431030,377.229950 
	C675.329529,378.922058 676.468506,379.525604 677.972961,379.596222 
	C678.800232,379.635040 679.630371,379.605499 680.458801,379.624847 
	C681.688171,379.653564 682.850769,379.830963 682.892395,381.424103 
	C682.928833,382.818054 682.066101,383.556244 680.812317,383.795349 
	C679.676941,384.011932 678.504883,384.029236 677.358826,384.200287 
	C676.289795,384.359863 675.440674,384.868469 675.507996,386.101044 
	C675.575134,387.330811 676.511414,387.739624 677.555237,387.840332 
	C679.038086,387.983429 680.535461,387.980225 682.016785,388.134094 
	C683.251892,388.262451 684.276367,388.751984 684.328430,390.230408 
	C684.384155,391.812744 683.627502,392.833344 682.041504,392.884674 
	C678.897888,392.986328 675.747620,393.018738 672.604065,392.934845 
	C670.598389,392.881287 669.702942,391.626678 669.709167,389.650879 
	C669.725952,384.346313 669.705017,379.041565 669.734070,373.737122 
	C669.739563,372.732330 669.978333,371.782166 670.938965,371.168213 
	C672.803162,369.976654 681.841064,370.892334 684.006409,372.959259 
z"/>
<path fill="#000000" opacity="1.000000" stroke="none" 
	d="
M799.276611,374.055603 
	C801.336792,381.075775 799.964722,384.104034 793.876038,385.779388 
	C791.498169,386.433716 789.944946,387.185181 789.935425,389.919250 
	C789.929688,391.562531 789.136841,392.888367 787.232544,392.798523 
	C784.978333,392.692200 784.726685,390.991852 784.721191,389.231476 
	C784.706238,384.415009 784.801575,379.596191 784.679382,374.782776 
	C784.602295,371.749237 785.964600,370.633850 788.871216,370.695526 
	C792.562500,370.773804 796.217041,370.787170 799.276611,374.055603 
M791.525391,375.649963 
	C789.087769,377.545441 789.872620,379.448975 791.285645,381.471008 
	C795.679688,379.202972 795.780212,378.369537 791.525391,375.649963 
z"/>
<path fill="#000000" opacity="1.000000" stroke="none" 
	d="
M838.810059,266.283142 
	C839.909729,261.728668 842.712769,259.767395 846.847900,259.821381 
	C850.966125,259.875092 854.089539,263.009735 854.277100,267.061035 
	C854.474670,271.328491 852.390015,274.014709 848.309998,275.049438 
	C844.356201,276.052185 840.403564,273.916565 839.145935,270.124298 
	C838.791382,269.055054 838.876709,267.839996 838.810059,266.283142 
z"/>
<path fill="#000000" opacity="1.000000" stroke="none" 
	d="
M863.186890,376.126648 
	C861.691528,380.573700 862.612732,384.895447 862.319763,389.161041 
	C862.205078,390.830383 862.324829,392.681519 859.949890,392.777008 
	C857.440491,392.877899 856.990906,391.073486 856.926819,389.124512 
	C856.845154,386.641785 856.842957,384.155212 856.862366,381.670746 
	C856.887085,378.502472 857.408691,375.103424 852.508240,375.149963 
	C851.384827,375.160645 850.901306,374.115540 851.042603,372.977325 
	C851.212158,371.611908 852.111389,370.896393 853.388977,370.869019 
	C857.527344,370.780273 861.667786,370.771545 865.807434,370.764709 
	C867.241577,370.762329 868.512268,371.190826 868.705688,372.844116 
	C868.947815,374.914062 867.494629,375.259521 865.881348,375.420868 
	C865.066772,375.502289 864.267395,375.736359 863.186890,376.126648 
z"/>
<path fill="#000000" opacity="1.000000" stroke="none" 
	d="
M715.485596,388.668457 
	C717.788086,386.592407 719.714661,386.816650 720.800476,389.321289 
	C721.591187,391.145081 720.428467,392.715118 718.600830,392.939026 
	C715.835938,393.277802 714.763000,391.674469 715.485596,388.668457 
z"/>
<path fill="#000000" opacity="1.000000" stroke="none" 
	d="
M540.335938,388.024963 
	C541.824829,390.693756 541.258484,392.557220 538.556519,393.030823 
	C536.687805,393.358398 535.274536,391.943787 535.482971,390.116547 
	C535.784790,387.470764 537.517029,386.599609 540.335938,388.024963 
z"/>
<path fill="#000000" opacity="1.000000" stroke="none" 
	d="
M877.162537,389.366852 
	C877.296509,392.300934 876.143127,393.708466 873.591125,392.811646 
	C871.732483,392.158478 871.182861,390.321625 872.319519,388.728485 
	C873.811707,386.637054 875.596497,386.736084 877.162537,389.366852 
z"/>
<path fill="#000000" opacity="1.000000" stroke="none" 
	d="
M201.465469,282.413696 
	C207.256516,279.051025 212.779572,275.951050 218.194382,272.672302 
	C222.339432,270.162384 226.270523,270.228668 230.415298,272.697662 
	C241.866257,279.518860 253.353836,286.280060 264.888702,292.958282 
	C269.371918,295.553894 271.429718,299.152283 271.359161,304.407532 
	C271.182343,317.571594 271.179626,330.741150 271.355347,343.905182 
	C271.423096,348.980621 269.464661,352.434998 265.119110,354.923431 
	C253.697983,361.463623 242.336166,368.107971 230.982361,374.764771 
	C226.381424,377.462372 221.884964,377.482880 217.284073,374.789673 
	C205.781509,368.056305 194.272751,361.332886 182.720062,354.686157 
	C178.675888,352.359436 176.912994,348.883270 176.907562,344.374390 
	C176.891327,330.874756 176.884659,317.375061 176.906448,303.875458 
	C176.914032,299.176239 178.810593,295.601044 183.042358,293.217438 
	C189.138092,289.783844 195.120270,286.148651 201.465469,282.413696 
M255.995453,300.771576 
	C259.061249,299.067413 258.200348,297.746582 255.698608,296.297577 
	C246.343765,290.879395 237.008179,285.426422 227.729919,279.878601 
	C225.104370,278.308685 222.908005,278.561462 220.344711,280.102264 
	C211.507538,285.414246 202.546021,290.518982 193.666077,295.760620 
	C192.310150,296.561035 190.554932,297.052460 190.030228,299.495331 
	C200.691406,305.681152 211.427261,311.952881 222.214844,318.134338 
	C224.429016,319.403046 226.368118,318.037201 228.250748,316.940338 
	C237.305267,311.664764 246.363937,306.396210 255.995453,300.771576 
M190.047974,308.572784 
	C188.237167,308.013947 187.031891,305.908875 184.360886,306.478424 
	C184.360886,318.306091 184.481415,330.112518 184.289734,341.913910 
	C184.229782,345.604156 185.716965,347.744202 188.772034,349.477875 
	C198.184006,354.819000 207.498276,360.332184 216.867432,365.749237 
	C217.808502,366.293304 218.683136,367.327972 220.547485,366.315613 
	C220.547485,354.140442 220.568695,341.685822 220.530533,329.231384 
	C220.522415,326.577423 218.788086,325.180847 216.604553,323.943512 
	C207.914078,319.018738 199.302200,313.955292 190.047974,308.572784 
M228.087372,338.525146 
	C228.087372,347.884247 228.087372,357.243347 228.087372,367.570679 
	C239.535873,360.903442 249.683029,354.857330 259.982666,349.083221 
	C262.892365,347.451996 263.786987,345.426575 263.741974,342.254822 
	C263.595337,331.927185 263.724457,321.595917 263.654266,311.266663 
	C263.643890,309.740173 264.338806,307.879211 261.970367,306.471222 
	C254.134872,310.987671 246.349014,316.203247 237.952484,320.104523 
	C230.040085,323.780853 226.336395,328.866394 228.087372,338.525146 
z"/>
<path fill="#000000" opacity="1.000000" stroke="none" 
	d="
M220.635559,301.937256 
	C217.905823,300.820740 216.004120,299.427673 216.892334,296.578766 
	C217.650864,294.145874 219.836334,293.617767 222.116196,293.683380 
	C225.970551,293.794250 230.609299,292.712433 231.986954,297.918854 
	C232.781784,300.922760 228.871918,302.637024 222.515778,302.306854 
	C222.023102,302.281281 221.535431,302.159454 220.635559,301.937256 
z"/>
<path fill="#000000" opacity="1.000000" stroke="none" 
	d="
M195.736588,319.338928 
	C196.502625,320.010376 197.058350,320.418640 197.416122,320.958160 
	C198.874435,323.157166 199.843964,325.512146 197.625778,327.722626 
	C195.915375,329.427155 193.896515,328.845917 192.175491,327.605560 
	C189.746521,325.855042 188.855667,323.330658 189.959381,320.581635 
	C190.998932,317.992371 193.229294,318.206970 195.736588,319.338928 
z"/>
<path fill="#000000" opacity="1.000000" stroke="none" 
	d="
M205.774292,334.561005 
	C207.301620,336.996429 207.959351,339.163696 205.963058,341.231506 
	C204.775131,342.461975 203.275681,342.478363 201.827652,341.747040 
	C199.502243,340.572479 198.486862,338.591095 198.690628,336.021484 
	C198.986710,332.287750 201.341202,331.691254 205.774292,334.561005 
z"/>
<path fill="#000000" opacity="1.000000" stroke="none" 
	d="
M205.151306,349.798218 
	C205.484512,346.896606 206.801758,345.318573 209.471405,345.943481 
	C212.028885,346.542145 213.224014,348.486511 213.284668,351.101105 
	C213.316788,352.485443 213.083694,353.725616 211.709595,354.486725 
	C210.359268,355.234680 209.145218,354.848663 207.960892,354.151672 
	C206.440125,353.256653 205.651230,351.828766 205.151306,349.798218 
z"/>
<path fill="#000000" opacity="1.000000" stroke="none" 
	d="
M237.133087,339.315796 
	C239.324890,337.148499 241.472961,334.982727 244.222702,337.083862 
	C247.079376,339.266663 246.449585,342.410980 245.057709,345.223267 
	C243.698914,347.968628 241.824936,350.521851 238.297379,350.024475 
	C235.786453,349.670441 234.959030,347.485474 234.994766,345.161407 
	C235.025726,343.148163 235.705154,341.272064 237.133087,339.315796 
z"/>
<path fill="#000000" opacity="1.000000" stroke="none" 
	d="
M258.197174,324.813416 
	C257.204346,327.793488 255.548508,329.428680 252.640762,329.294739 
	C250.963150,329.217438 249.890869,328.210083 249.425903,326.660645 
	C248.724304,324.322601 249.824982,322.458893 251.321213,320.847626 
	C252.501511,319.576569 254.025223,318.907349 255.794891,319.560791 
	C258.075714,320.402893 258.419006,322.292755 258.197174,324.813416 
z"/>
</svg>