<svg xmlns="http://www.w3.org/2000/svg" viewBox="80.000000 1349.000000 50.000000 50.000000" width="50.000000" height="50.000000"><path d="M 105 1398 C 118.254833 1398 129 1387.254833 129 1374 C 129 1360.745167 118.254833 1350 105 1350 C 91.745166 1350 81 1360.745167 81 1374 C 81 1387.254833 91.745166 1398 105 1398 Z" fill="#4b9fc2" fill-rule="nonzero"/><path d="M 102.626953 1380 Z M 104.161044 1380 L 104.161044 1369.090909 L 105.837181 1369.090909 L 105.837181 1380 L 104.161044 1380 Z M 105.013317 1367.272728 C 104.686612 1367.272728 104.404889 1367.161459 104.168146 1366.93892 C 103.936139 1366.716383 103.820135 1366.448864 103.820135 1366.136364 C 103.820135 1365.823864 103.936139 1365.556345 104.168146 1365.333806 C 104.404889 1365.111269 104.686612 1365 105.013317 1365 C 105.340021 1365 105.619377 1365.111269 105.851385 1365.333806 C 106.088127 1365.556345 106.206499 1365.823864 106.206499 1366.136364 C 106.206499 1366.448864 106.088127 1366.716383 105.851385 1366.93892 C 105.619377 1367.161459 105.340021 1367.272728 105.013317 1367.272728 Z" fill="#ffffff" fill-rule="nonzero"/></svg>