<svg width="72" height="57" viewBox="0 0 72 57" fill="none" xmlns="http://www.w3.org/2000/svg">
<path d="M0 49.2831C0.14229 49.1719 0.533939 48.5812 0.632555 48.5812H11.8805C11.896 48.5812 12.0918 48.3857 12.0918 48.3703V5.85971C12.0918 3.56716 15.5955 0.276021 17.9426 0.193039C33.2338 -0.065751 48.5997 -0.0629381 63.8909 0.193039C66.755 0.679678 69.1965 3.30556 69.5642 6.17757C69.6304 6.69374 69.7558 8.45605 68.9668 8.45605H57.7879V16.5236C57.7879 17.4828 55.8269 18.1087 55.6719 16.3899C55.4465 13.8935 55.4366 8.63608 55.6958 6.15928C55.848 4.70218 56.6102 3.39838 57.5062 2.28305H17.9271C16.6282 2.28305 14.2008 4.8358 14.2008 6.141V48.5826H45.0636C45.775 48.5826 45.7835 50.4884 45.9004 50.975C47.2303 56.48 55.1802 56.0116 55.6775 49.9146C56.0185 45.7261 55.4014 41.1312 55.7099 36.8991C56.2199 35.5897 57.8358 36.0665 57.7964 37.4223C56.9891 44.0538 60.9042 55.8808 51.0989 56.8555L50.7594 57.0018H7.02996C6.68621 56.7331 6.16495 56.9005 5.72963 56.826C3.03035 56.3632 0.781889 54.0426 0.202868 51.3984C0.11834 51.0116 0.242315 50.5573 0 50.269V49.2873L0 49.2831ZM67.3509 6.35056C66.5014 0.875177 58.7854 0.939875 57.7893 6.35056H67.3509ZM43.728 50.6853H2.24987C2.47669 52.0862 3.36564 53.449 4.59835 54.1649C4.85757 54.3154 5.74371 54.7542 5.97617 54.7542H45.5567C44.555 53.6333 43.8773 52.2001 43.7294 50.6853H43.728Z" fill="#195D7E"/>
<path d="M41.506 39.0696C40.9157 40.8811 40.6199 43.1104 39.9211 44.853C39.3534 46.2707 37.7403 45.6744 37.8276 44.4592C40.0028 37.5281 41.1144 29.4957 47.1765 24.7334C52.3031 20.7067 60.015 18.9669 66.4307 18.552C67.531 18.4803 69.8048 18.2946 70.798 18.4142C71.7912 18.5337 72.3885 19.2932 71.7081 20.1708C66.0264 25.1849 61.6126 30.7841 54.7897 34.4353C50.5731 36.6926 45.8508 37.1371 41.506 39.0696ZM67.3506 21.2243C63.3707 22.5337 59.6599 24.5801 56.114 26.777C51.9016 29.386 47.7259 32.4015 44.1504 35.8136C46.5594 35.0386 49.1432 34.6111 51.4987 33.6772C55.0912 32.2524 58.4441 29.5618 61.4463 27.1877L67.3492 21.2243H67.3506ZM61.304 21.3649C54.1092 22.4493 46.0241 25.8234 43.5897 33.289C47.323 30.2524 51.162 27.3396 55.2701 24.8122L61.304 21.3649Z" fill="#195D7E"/>
<path d="M18.8835 21.9651C18.9427 21.892 19.2723 21.7035 19.3681 21.6824L42.6769 21.6416C44.0632 21.7879 44.1068 23.5867 42.6769 23.7527H19.7513C18.861 23.7527 18.3256 22.6571 18.8821 21.9665L18.8835 21.9651Z" fill="#195D7E"/>
<path d="M28.0849 10.8742L50.4074 10.8404C51.8402 10.801 52.1417 12.7799 50.692 12.9473L27.7031 12.8714C26.7803 12.2792 26.9804 11.0711 28.0849 10.8742Z" fill="#195D7E"/>
<path d="M19.3639 32.4767L35.2243 32.4443C36.5316 32.5948 36.5824 34.3656 34.9397 34.5512C30.2836 35.0787 24.6554 34.156 19.895 34.5512C18.6045 34.5625 18.1565 32.9915 19.3625 32.4767H19.3639Z" fill="#195D7E"/>
<path d="M31.4546 43.4319C32.0998 43.9776 31.6941 45.1436 30.8699 45.221C27.3127 44.9045 23.0863 45.619 19.6121 45.2167C18.1582 45.048 18.4682 43.0662 19.8967 43.1098C23.2666 43.3236 26.9802 42.8243 30.3078 43.1042C30.629 43.1309 31.2179 43.2308 31.456 43.4333L31.4546 43.4319Z" fill="#195D7E"/>
<path d="M24.0078 11.1561C24.522 11.6343 24.2755 12.8045 23.5471 12.9395C22.9625 13.0478 20.0969 13.0309 19.4827 12.9339C18.5628 12.789 18.3754 11.5133 19.1347 11.0604C19.7307 10.7046 23.5077 10.6891 24.0078 11.1547V11.1561Z" fill="#195D7E"/>
</svg>
