<?xml version="1.0" encoding="UTF-8" standalone="no"?>
<!DOCTYPE svg PUBLIC "-//W3C//DTD SVG 1.1//EN" "http://www.w3.org/Graphics/SVG/1.1/DTD/svg11.dtd">
<svg width="100%" height="100%" viewBox="0 0 1203 300" version="1.1" xmlns="http://www.w3.org/2000/svg" xmlns:xlink="http://www.w3.org/1999/xlink" xml:space="preserve" xmlns:serif="http://www.serif.com/" style="fill-rule:evenodd;clip-rule:evenodd;stroke-linejoin:round;stroke-miterlimit:2;">
    <g transform="matrix(1,0,0,1,-358.503325,-390)">
        <g transform="matrix(1,0,0,1,0,30.842669)">
            <g transform="matrix(1.599867,0,0,1.599867,722.280738,541.431721)">
                <path d="M0,-40.346L0,-25.79L10.648,-25.79C12.309,-25.79 13.774,-27.255 13.774,-29.014L13.774,-37.122C13.774,-38.88 12.309,-40.346 10.648,-40.346L0,-40.346ZM-16.997,-52.557C-16.997,-54.51 -16.411,-55.096 -14.457,-55.096L18.756,-55.096C27.743,-55.096 30.771,-49.919 30.771,-43.472L30.771,-22.567C30.771,-16.412 28.036,-11.528 20.124,-11.039L33.312,12.503C34.288,14.164 33.897,14.75 32.042,14.75L17.682,14.75C15.63,14.75 14.946,14.359 13.97,12.503L1.563,-11.039L0,-11.039L0,12.21C0,14.164 -0.586,14.75 -2.54,14.75L-14.457,14.75C-16.411,14.75 -16.997,14.164 -16.997,12.21L-16.997,-52.557Z" style="fill:rgb(27,43,54);fill-rule:nonzero;"/>
            </g>
            <g transform="matrix(1.599867,0,0,1.599867,824.642462,513.92409)">
                <path d="M0,-5.959L-1.66,-13.579L-1.758,-13.579L-3.517,-5.959L-6.447,5.861L2.931,5.861L0,-5.959ZM12.406,31.943C10.355,31.943 9.77,31.455 9.183,29.501L6.741,20.416L-10.354,20.416L-12.699,29.501C-13.285,31.455 -13.871,31.943 -15.923,31.943L-27.254,31.943C-29.208,31.943 -29.599,31.357 -29.11,29.501L-10.159,-35.461C-9.573,-37.414 -8.986,-37.902 -6.936,-37.902L4.299,-37.902C6.351,-37.902 6.937,-37.414 7.522,-35.461L26.767,29.501C27.255,31.357 26.864,31.943 24.91,31.943L12.406,31.943Z" style="fill:rgb(27,43,54);fill-rule:nonzero;"/>
            </g>
            <g transform="matrix(1.599867,0,0,1.599867,902.31264,511.893218)">
                <path d="M0,-3.42L-0.098,-3.42L-0.098,30.673C-0.098,32.627 -0.684,33.213 -2.638,33.213L-14.066,33.213C-16.021,33.213 -16.606,32.627 -16.606,30.673L-16.606,-34.094C-16.606,-36.047 -16.021,-36.633 -14.066,-36.633L-4.005,-36.633C-1.953,-36.633 -1.27,-36.242 -0.293,-34.387L16.9,-2.345L16.998,-2.345L16.998,-34.094C16.998,-36.047 17.584,-36.633 19.537,-36.633L30.967,-36.633C32.921,-36.633 33.507,-36.047 33.507,-34.094L33.507,30.673C33.507,32.627 32.921,33.213 30.967,33.213L22.077,33.213C20.026,33.213 19.342,32.822 18.365,30.966L0,-3.42Z" style="fill:rgb(27,43,54);fill-rule:nonzero;"/>
            </g>
            <g transform="matrix(1.599867,0,0,1.599867,1009.208386,541.431721)">
                <path d="M0,-40.346L-5.764,-40.346L-5.764,-0.001L0,-0.001C7.718,-0.001 9.866,-6.839 9.866,-11.723L9.866,-28.623C9.866,-33.507 7.718,-40.346 0,-40.346M26.864,-31.066L26.864,-9.282C26.864,7.814 17.193,14.75 5.471,14.75L-20.221,14.75C-22.175,14.75 -22.761,14.164 -22.761,12.21L-22.761,-52.557C-22.761,-54.51 -22.175,-55.096 -20.221,-55.096L5.471,-55.096C17.193,-55.096 26.864,-48.16 26.864,-31.066" style="fill:rgb(27,43,54);fill-rule:nonzero;"/>
            </g>
            <g transform="matrix(1.599867,0,0,1.599867,159.538918,-817.57665)">
                <path d="M601.322,809.105L583.445,809.105L583.445,849.45L601.322,849.45L601.322,809.105ZM618.319,805.979L618.319,852.576C618.319,859.023 615.291,864.201 606.303,864.201L578.464,864.201C569.379,864.201 566.35,859.023 566.35,852.576L566.35,805.979C566.35,799.532 569.379,794.355 578.464,794.355L606.303,794.355C615.291,794.355 618.319,799.532 618.319,805.979" style="fill:rgb(27,43,54);fill-rule:nonzero;"/>
            </g>
            <g transform="matrix(1.599867,0,0,1.599867,1191.896226,506.734608)">
                <path d="M0,3.028L-0.195,3.028L-0.195,33.897C-0.195,35.851 -0.781,36.437 -2.735,36.437L-14.164,36.437C-16.216,36.437 -16.704,35.949 -16.704,33.897L-16.704,-30.869C-16.704,-32.823 -16.118,-33.409 -14.164,-33.409L-2.54,-33.409C-0.488,-33.409 0.195,-32.92 1.075,-31.065L14.458,-0.782L28.524,-31.065C29.404,-32.92 30.088,-33.409 32.139,-33.409L42.787,-33.409C44.741,-33.409 45.327,-32.823 45.327,-30.869L45.327,33.897C45.327,35.851 44.741,36.437 42.787,36.437L31.357,36.437C29.404,36.437 28.817,35.851 28.817,33.897L28.817,3.028L28.622,3.028L18.658,23.445C17.779,25.203 17.096,25.692 15.044,25.692L12.504,25.692C10.453,25.692 9.671,25.203 8.89,23.347L0,3.028Z" style="fill:rgb(27,43,54);fill-rule:nonzero;"/>
            </g>
            <g transform="matrix(1.599867,0,0,1.599867,1277.848435,541.431721)">
                <path d="M0,-40.346C-1.953,-40.346 -2.54,-40.932 -2.54,-42.885L-2.54,-52.557C-2.54,-54.51 -1.953,-55.096 0,-55.096L37.121,-55.096C39.075,-55.096 39.661,-54.51 39.661,-52.557L39.661,-42.885C39.661,-40.932 39.075,-40.346 37.121,-40.346L27.06,-40.346L27.06,12.21C27.06,14.164 26.474,14.75 24.52,14.75L12.602,14.75C10.648,14.75 10.062,14.164 10.062,12.21L10.062,-40.346L0,-40.346Z" style="fill:rgb(27,43,54);fill-rule:nonzero;"/>
            </g>
            <g transform="matrix(1.599867,0,0,1.599867,1377.868273,541.431721)">
                <path d="M0,-40.346L0,-25.79L10.648,-25.79C12.309,-25.79 13.774,-27.255 13.774,-29.014L13.774,-37.122C13.774,-38.88 12.309,-40.346 10.648,-40.346L0,-40.346ZM-16.997,-52.557C-16.997,-54.51 -16.411,-55.096 -14.457,-55.096L18.756,-55.096C27.743,-55.096 30.771,-49.919 30.771,-43.472L30.771,-22.567C30.771,-16.412 28.036,-11.528 20.124,-11.039L33.312,12.503C34.288,14.164 33.897,14.75 32.042,14.75L17.682,14.75C15.63,14.75 14.946,14.359 13.97,12.503L1.563,-11.039L0,-11.039L0,12.21C0,14.164 -0.586,14.75 -2.54,14.75L-14.457,14.75C-16.411,14.75 -16.997,14.164 -16.997,12.21L-16.997,-52.557Z" style="fill:rgb(27,43,54);fill-rule:nonzero;"/>
            </g>
            <g transform="matrix(1.599867,0,0,1.599867,1465.226605,565.029758)">
                <path d="M0,-69.846C1.954,-69.846 2.54,-69.26 2.54,-67.307L2.54,-2.54C2.54,-0.586 1.954,0 0,0L-11.917,0C-13.871,0 -14.457,-0.586 -14.457,-2.54L-14.457,-67.307C-14.457,-69.26 -13.871,-69.846 -11.917,-69.846L0,-69.846Z" style="fill:rgb(27,43,54);fill-rule:nonzero;"/>
            </g>
            <g transform="matrix(1.599867,0,0,1.599867,1529.300954,541.431721)">
                <path d="M0,-40.346L-9.964,-40.346L-9.964,-25.302L0,-25.302C1.661,-25.302 3.028,-26.767 3.028,-28.526L3.028,-37.122C3.028,-38.88 1.661,-40.346 0,-40.346M20.124,-43.472L20.124,-22.078C20.124,-15.631 17.096,-10.551 8.011,-10.551L-9.964,-10.551L-9.964,12.21C-9.964,14.164 -10.55,14.75 -12.504,14.75L-24.421,14.75C-26.375,14.75 -26.961,14.164 -26.961,12.21L-26.961,-52.557C-26.961,-54.51 -26.375,-55.096 -24.421,-55.096L8.011,-55.096C17.096,-55.096 20.124,-49.919 20.124,-43.472" style="fill:rgb(27,43,54);fill-rule:nonzero;"/>
            </g>
        </g>
        <g>
            <g transform="matrix(1.599867,0,0,1.599867,515.261482,438.962486)">
                <path d="M0,-19.265C0.065,-19.33 0.143,-19.363 0.236,-19.363L3.459,-19.368C3.552,-19.368 3.63,-19.336 3.695,-19.271C3.761,-19.206 3.793,-19.128 3.793,-19.035L3.826,-0.251C3.826,-0.158 3.794,-0.079 3.729,-0.014C3.664,0.051 3.586,0.083 3.493,0.083L-0.175,0.09C-0.36,0.09 -0.481,-0.002 -0.537,-0.187L-4.001,-10.935C-4.02,-10.991 -4.052,-11.014 -4.099,-11.005C-4.145,-10.995 -4.168,-10.963 -4.168,-10.907L-4.121,-0.237C-4.121,-0.144 -4.154,-0.065 -4.218,0C-4.283,0.065 -4.362,0.097 -4.454,0.097L-7.678,0.103C-7.77,0.103 -7.849,0.071 -7.914,0.006C-7.979,-0.059 -8.011,-0.137 -8.012,-0.23L-8.045,-19.015C-8.045,-19.107 -8.013,-19.186 -7.947,-19.251C-7.883,-19.316 -7.805,-19.349 -7.712,-19.349L-4.071,-19.355C-3.886,-19.355 -3.765,-19.263 -3.71,-19.078L-0.217,-8.33C-0.199,-8.274 -0.166,-8.251 -0.12,-8.261C-0.074,-8.27 -0.051,-8.302 -0.051,-8.358L-0.097,-19.029C-0.097,-19.121 -0.065,-19.2 0,-19.265" style="fill:rgb(247,203,52);fill-rule:nonzero;"/>
            </g>
            <g transform="matrix(1.599867,0,0,1.599867,390.332836,524.775667)">
                <path d="M0,18.866L-3.784,0.088L-3.812,-0.023C-3.812,-0.19 -3.711,-0.274 -3.507,-0.274L-0.116,-0.28C0.106,-0.28 0.226,-0.178 0.245,0.025L1.847,10.026C1.865,10.1 1.893,10.137 1.93,10.137C1.967,10.137 1.995,10.1 2.013,10.026L3.496,0.02C3.515,-0.184 3.635,-0.286 3.857,-0.287L6.664,-0.292C6.886,-0.292 7.006,-0.19 7.025,0.013L8.683,10.014C8.701,10.089 8.728,10.125 8.766,10.125C8.803,10.125 8.831,10.088 8.849,10.014L10.249,0.008C10.267,-0.196 10.387,-0.298 10.61,-0.298L13.889,-0.304C14.129,-0.305 14.232,-0.184 14.195,0.057L10.699,18.847C10.68,19.051 10.56,19.153 10.338,19.154L7.337,19.159C7.115,19.159 6.993,19.058 6.975,18.854L5.318,8.575C5.299,8.501 5.271,8.464 5.234,8.464C5.197,8.464 5.169,8.502 5.151,8.575L3.696,18.86C3.678,19.064 3.558,19.165 3.335,19.166L0.362,19.171C0.158,19.171 0.037,19.07 0,18.866" style="fill:rgb(247,203,52);fill-rule:nonzero;"/>
            </g>
            <g transform="matrix(1.599867,0,0,1.599867,629.142567,550.21851)">
                <path d="M0,-12.939C-0.065,-12.874 -0.143,-12.841 -0.236,-12.841L-6.043,-12.831C-6.137,-12.831 -6.183,-12.785 -6.182,-12.692L-6.175,-8.302C-6.175,-8.209 -6.128,-8.163 -6.036,-8.163L-2.701,-8.169C-2.608,-8.169 -2.53,-8.137 -2.464,-8.072C-2.4,-8.007 -2.367,-7.929 -2.367,-7.836L-2.362,-5.14C-2.362,-5.047 -2.394,-4.969 -2.459,-4.904C-2.524,-4.839 -2.602,-4.806 -2.695,-4.806L-6.029,-4.801C-6.123,-4.8 -6.168,-4.754 -6.168,-4.662L-6.161,-0.243C-6.16,-0.15 -6.115,-0.104 -6.022,-0.104L-0.214,-0.114C-0.121,-0.115 -0.043,-0.082 0.023,-0.018C0.087,0.047 0.12,0.126 0.12,0.219L0.125,2.914C0.125,3.007 0.093,3.085 0.028,3.15C-0.037,3.215 -0.115,3.248 -0.208,3.248L-9.739,3.265C-9.832,3.265 -9.911,3.233 -9.976,3.167C-10.041,3.103 -10.073,3.025 -10.073,2.932L-10.106,-15.853C-10.106,-15.946 -10.074,-16.024 -10.009,-16.09C-9.944,-16.154 -9.866,-16.187 -9.773,-16.187L-0.242,-16.204C-0.149,-16.204 -0.071,-16.171 -0.005,-16.107C0.059,-16.042 0.092,-15.963 0.093,-15.871L0.097,-13.175C0.097,-13.083 0.065,-13.004 0,-12.939" style="fill:rgb(247,203,52);fill-rule:nonzero;"/>
            </g>
            <g transform="matrix(1.599867,0,0,1.599867,507.401016,641.2063)">
                <path d="M0,18.629C-0.817,18.204 -1.447,17.608 -1.893,16.84C-2.339,16.072 -2.563,15.187 -2.564,14.187L-2.566,13.381C-2.566,13.289 -2.534,13.21 -2.469,13.145C-2.404,13.08 -2.326,13.047 -2.233,13.047L0.962,13.042C1.055,13.042 1.134,13.074 1.199,13.139C1.264,13.203 1.297,13.282 1.297,13.374L1.298,13.986C1.299,14.56 1.448,15.023 1.745,15.375C2.041,15.726 2.413,15.901 2.857,15.901C3.302,15.9 3.672,15.732 3.968,15.398C4.264,15.064 4.411,14.629 4.41,14.092C4.409,13.536 4.223,13.059 3.852,12.661C3.48,12.264 2.757,11.677 1.681,10.901C0.754,10.235 0.002,9.644 -0.572,9.126C-1.148,8.609 -1.64,7.971 -2.049,7.211C-2.458,6.453 -2.663,5.573 -2.665,4.573C-2.667,2.998 -2.179,1.737 -1.198,0.791C-0.218,-0.156 1.078,-0.63 2.69,-0.633C4.32,-0.636 5.631,-0.147 6.624,0.833C7.617,1.813 8.115,3.1 8.118,4.693L8.119,5.36C8.119,5.453 8.086,5.531 8.022,5.596C7.957,5.661 7.878,5.693 7.786,5.694L4.59,5.699C4.497,5.699 4.418,5.668 4.354,5.602C4.289,5.538 4.256,5.459 4.256,5.366L4.255,4.616C4.254,4.042 4.109,3.584 3.821,3.241C3.534,2.899 3.158,2.728 2.695,2.729C2.251,2.73 1.89,2.893 1.613,3.217C1.335,3.542 1.197,3.992 1.198,4.566C1.199,5.122 1.376,5.612 1.728,6.038C2.081,6.464 2.777,7.055 3.816,7.813C4.966,8.663 5.833,9.351 6.418,9.878C7.002,10.405 7.457,10.988 7.782,11.626C8.107,12.265 8.271,13.029 8.273,13.918C8.275,15.549 7.777,16.846 6.779,17.811C5.78,18.776 4.465,19.26 2.835,19.263C1.761,19.265 0.816,19.053 0,18.629" style="fill:rgb(247,203,52);fill-rule:nonzero;"/>
            </g>
            <g transform="matrix(1.59986,0.004543,0.004543,-1.59986,451.046185,542.472158)">
                <path d="M0.017,-0C2.927,-1.653 5.286,-0.313 5.286,2.994C5.285,6.3 2.927,10.32 0.017,11.973C-2.892,13.626 -5.251,12.285 -5.252,8.979C-5.251,5.672 -2.893,1.653 0.017,-0" style="fill:rgb(247,203,52);fill-rule:nonzero;"/>
            </g>
            <g transform="matrix(1.59986,0.004543,0.004543,-1.59986,485.786972,602.07408)">
                <path d="M0.017,-0C2.927,-1.653 5.286,-0.312 5.286,2.994C5.285,6.3 2.927,10.32 0.017,11.973C-2.893,13.627 -5.251,12.285 -5.252,8.98C-5.251,5.674 -2.894,1.654 0.017,-0" style="fill:rgb(247,203,52);fill-rule:nonzero;"/>
            </g>
            <g transform="matrix(-1.59986,0.004543,0.004543,1.59986,568.227955,542.471998)">
                <path d="M0.017,-11.973C2.927,-10.32 5.285,-6.3 5.286,-2.994C5.285,0.314 2.926,1.653 0.017,0C-2.893,-1.653 -5.251,-5.672 -5.252,-8.979C-5.252,-12.285 -2.893,-13.626 0.017,-11.973" style="fill:rgb(247,203,52);fill-rule:nonzero;"/>
            </g>
            <g transform="matrix(-1.59986,0.004543,0.004543,1.59986,533.487163,602.07232)">
                <path d="M0.017,-11.972C2.927,-10.319 5.285,-6.299 5.286,-2.993C5.285,0.313 2.926,1.654 0.017,0.001C-2.894,-1.653 -5.251,-5.672 -5.252,-8.978C-5.252,-12.284 -2.894,-13.626 0.017,-11.972" style="fill:rgb(247,203,52);fill-rule:nonzero;"/>
            </g>
            <g transform="matrix(-1.59986,0.004543,0.004543,1.59986,550.855641,571.593256)">
                <path d="M0.017,-11.973C2.927,-10.32 5.285,-6.299 5.286,-2.993C5.285,0.314 2.926,1.653 0.017,0C-2.893,-1.653 -5.251,-5.672 -5.252,-8.979C-5.252,-12.285 -2.893,-13.626 0.017,-11.973" style="fill:rgb(247,203,52);fill-rule:nonzero;"/>
            </g>
            <g transform="matrix(0.798153,1.386552,1.386552,-0.798153,501.188143,488.217083)">
                <path d="M5.225,-3.021C8.114,-1.332 10.457,2.737 10.456,6.066C10.457,9.395 8.114,10.726 5.226,9.037C2.337,7.348 -0.005,3.28 -0.005,-0.05C-0.006,-3.379 2.335,-4.711 5.225,-3.021" style="fill:rgb(247,203,52);fill-rule:nonzero;"/>
            </g>
            <g transform="matrix(1.599867,0,0,1.599867,577.899151,488.973845)">
                <path d="M0,62.155L-35.827,82.801C-37.146,83.561 -38.313,83.059 -38.754,82.808C-39.194,82.557 -40.219,81.81 -40.219,80.299L-40.219,34.731C-40.219,33.704 -39.662,32.746 -38.766,32.229L-34.835,29.964C-34.831,29.961 -34.826,29.959 -34.822,29.957L-26.026,24.888L0.924,9.359C2.243,8.599 3.41,9.1 3.85,9.351C4.289,9.601 5.306,10.343 5.315,11.84L5.315,52.994C5.315,56.753 3.279,60.262 0,62.155M-90.65,11.84C-90.64,10.343 -89.623,9.601 -89.185,9.351C-88.744,9.1 -87.577,8.599 -86.258,9.359L-82.94,11.271L-50.513,29.957C-50.509,29.959 -50.505,29.961 -50.501,29.963L-46.568,32.229C-45.672,32.746 -45.115,33.704 -45.115,34.731L-45.115,80.299C-45.115,81.81 -46.14,82.557 -46.581,82.808C-47.021,83.059 -48.189,83.561 -49.508,82.801L-85.335,62.155C-88.613,60.262 -90.65,56.753 -90.65,52.994L-90.65,11.84ZM-48.051,-20.789C-46.39,-21.745 -44.529,-22.224 -42.667,-22.224C-40.806,-22.224 -38.944,-21.745 -37.284,-20.789L-0.123,0.626L-0.124,0.627C0.852,1.189 0.958,2.116 0.958,2.489C0.958,2.86 0.853,3.781 -0.113,4.344L-28.155,20.504L-37.299,25.773C-40.612,27.676 -44.723,27.676 -48.036,25.773L-79.264,7.778L-85.212,4.351C-86.188,3.788 -86.293,2.861 -86.293,2.489C-86.293,2.116 -86.188,1.189 -85.212,0.627L-85.212,0.626L-48.051,-20.789ZM10.212,53.053L10.212,9.858C10.212,7.159 9.493,4.495 8.134,2.154C6.776,-0.186 4.812,-2.141 2.456,-3.499L-34.822,-24.981C-39.661,-27.769 -45.674,-27.769 -50.513,-24.981L-87.79,-3.499C-90.146,-2.141 -92.11,-0.186 -93.469,2.154C-94.828,4.495 -95.546,7.159 -95.546,9.858L-95.546,11.833C-95.546,11.842 -95.547,11.852 -95.547,11.861L-95.547,53.053L-95.545,53.053C-95.535,55.732 -94.818,58.375 -93.469,60.698C-92.12,63.021 -90.175,64.963 -87.842,66.32L-87.843,66.32L-87.797,66.347C-87.795,66.348 -87.793,66.349 -87.79,66.351L-50.513,87.833C-48.093,89.227 -45.38,89.924 -42.667,89.924C-39.954,89.924 -37.241,89.227 -34.822,87.833L2.456,66.351C2.458,66.349 2.46,66.348 2.462,66.347L2.508,66.32C4.841,64.963 6.786,63.021 8.134,60.698C9.483,58.375 10.2,55.732 10.211,53.053L10.212,53.053Z" style="fill:rgb(247,203,52);fill-rule:nonzero;"/>
            </g>
            <g transform="matrix(0.792308,1.3899,1.3899,-0.792308,625.679724,615.103671)">
                <path d="M-19.738,-8.697L23.448,-8.697C26.258,-8.697 27.257,-12.415 24.838,-13.875L-19.436,-40.579L-19.738,-8.697Z" style="fill:rgb(247,203,52);fill-rule:nonzero;"/>
            </g>
            <g transform="matrix(1.599867,0,0,1.599867,473.286415,467.113904)">
                <path d="M0,-2.775L0.027,-2.76L-4.762,0L0,-2.775Z" style="fill:rgb(247,203,52);fill-rule:nonzero;"/>
            </g>
            <g transform="matrix(1.396326,0.780928,0.780928,-1.396326,412.833055,406.365408)">
                <path d="M-7.196,-12.274L44.473,-12.274L28.274,-39.716L-8.679,-17.425C-11.086,-15.973 -10.022,-12.274 -7.196,-12.274" style="fill:rgb(247,203,52);fill-rule:nonzero;"/>
            </g>
            <g transform="matrix(1.396326,-0.780927,-0.780927,-1.396326,563.15593,476.809681)">
                <path d="M0.623,12.949L52.303,12.949C55.128,12.949 56.192,9.25 53.785,7.798L16.824,-14.497L0.623,12.949Z" style="fill:rgb(247,203,52);fill-rule:nonzero;"/>
            </g>
            <g transform="matrix(1.599867,0,0,1.599867,551.064583,462.682273)">
                <path d="M0,1.854L-3.2,0.01L-3.182,0L0,1.854Z" style="fill:rgb(247,203,52);fill-rule:nonzero;"/>
            </g>
            <g transform="matrix(0.792308,-1.3899,-1.3899,-0.792308,428.812903,674.560253)">
                <path d="M-2.063,28.831L41.139,28.831L40.836,-3.06L-3.454,23.655C-5.873,25.114 -4.873,28.831 -2.063,28.831" style="fill:rgb(247,203,52);fill-rule:nonzero;"/>
            </g>
            <g transform="matrix(1.599867,0,0,1.599867,425.892438,390.715141)">
                <path d="M0,21.921C14.926,11.076 32.829,5.218 51.636,5.218C70.701,5.218 88.841,11.235 103.89,22.368L109.282,19.353C92.88,6.515 72.793,-0.447 51.636,-0.447C30.734,-0.447 10.88,6.352 -5.412,18.894L0,21.921Z" style="fill:rgb(247,203,52);fill-rule:nonzero;"/>
            </g>
            <g transform="matrix(1.599867,0,0,1.599867,628.071776,629.954916)">
                <path d="M0,-112.854L-3.066,-107.475C7.599,-92.626 13.356,-74.87 13.356,-56.226C13.356,-37.756 7.708,-20.155 -2.768,-5.391L0.305,0C12.448,-16.135 19.02,-35.675 19.02,-56.226C19.02,-76.949 12.337,-96.641 0,-112.854" style="fill:rgb(247,203,52);fill-rule:nonzero;"/>
            </g>
            <g transform="matrix(1.599867,0,0,1.599867,394.631519,456.280405)">
                <path d="M0,104.261C-10.983,89.276 -16.918,71.26 -16.918,52.329C-16.918,33.226 -10.878,15.051 0.298,-0.015L-2.748,-5.36C-15.608,11.05 -22.582,31.153 -22.582,52.329C-22.582,73.335 -15.717,93.284 -3.055,109.621L0,104.261Z" style="fill:rgb(247,203,52);fill-rule:nonzero;"/>
            </g>
            <g transform="matrix(1.599867,0,0,1.599867,593.241074,690)">
                <path d="M0,-23.353C-15.187,-11.878 -33.598,-5.665 -52.966,-5.665C-72.078,-5.665 -90.261,-11.71 -105.331,-22.896L-110.717,-19.883C-94.295,-6.993 -74.168,0 -52.966,0C-31.511,0 -11.159,-7.164 5.368,-20.351L0,-23.353Z" style="fill:rgb(247,203,52);fill-rule:nonzero;"/>
            </g>
        </g>
    </g>
</svg>
