<svg width="85" height="81" viewBox="0 0 85 81" fill="none" xmlns="http://www.w3.org/2000/svg">
<g clip-path="url(#clip0_2553_27566)">
<path d="M27.1055 0.0635748C35.3229 -0.440536 42.8668 2.01311 49.0477 7.24404C60.7329 17.1302 62.6883 34.3696 53.5289 46.574L59.3683 52.1784C60.1499 52.015 60.7615 51.3071 61.7543 51.696C69.3601 58.2277 76.5704 65.2806 83.9681 72.0689C87.7853 76.5779 80.1605 82.9913 75.6109 80.4086C68.2227 74.1274 61.3985 67.1648 54.2057 60.6424C53.5274 59.9345 53.3669 59.0694 53.7434 58.1654C53.8975 57.7967 54.4566 57.5104 54.2136 57.0701L48.46 51.6462C48.1312 51.5622 46.0359 53.0699 45.5038 53.3624C33.5025 59.9594 16.9915 57.3035 7.69227 47.4313C-8.81402 29.9088 2.90924 1.5479 27.1055 0.0635748ZM50.5394 11.1447C36.4286 -4.37851 9.36657 0.119586 3.12528 20.4178C-3.58303 42.2284 17.7841 60.0808 39.2371 54.0672C58.0388 48.7958 63.1061 24.9704 50.541 11.1462L50.5394 11.1447ZM52.3201 48.0599C51.8705 48.732 50.3567 49.6111 49.985 50.137C49.8833 50.2802 49.7864 50.3922 49.8547 50.582L55.6321 55.9732C56.0023 55.466 58.2103 53.7747 58.0785 53.283L52.3201 48.0599ZM60.7472 53.5149C60.0419 54.2773 55.324 58.444 55.2986 59.0041C55.289 59.2001 55.4352 59.4662 55.5527 59.6295C60.663 64.0981 65.4269 68.9307 70.3927 73.5439C71.6651 74.7249 75.5156 78.5975 76.8293 79.0549C78.5815 79.6648 79.865 78.9522 81.1866 77.888C83.0468 76.3897 84.0634 74.9723 82.378 72.8453C81.0929 71.2241 78.0096 68.954 76.348 67.4028C72.0971 63.4415 67.9686 59.3215 63.6526 55.4302C63.284 55.0972 61.9179 53.8058 61.6463 53.6658C61.3476 53.5118 61.0903 53.4184 60.7488 53.5164L60.7472 53.5149Z" fill="#195D7E"/>
<path d="M28.3748 5.19338C47.3814 4.33764 60.5518 23.7148 51.7704 40.5356C43.9788 55.4597 22.2542 55.4971 11.5857 43.6147C-1.8182 28.6859 8.23394 6.10047 28.3748 5.19338ZM26.9467 7.06046C11.4046 8.34563 2.51686 25.1571 10.1243 38.516C19.5172 55.0085 46.6713 54.8498 51.9833 35.3047C56.3216 19.3412 43.364 5.70216 26.9467 7.0589V7.06046Z" fill="#195D7E"/>
<path d="M41.8575 28.349C42.1419 28.643 42.1149 29.2965 41.786 29.561C41.319 29.9375 38.3231 30.1725 37.4224 30.3763C32.4471 31.5059 31.3288 33.9269 30.3614 38.5401C30.1819 39.3974 30.2629 42.2805 28.6569 41.1976C28.1883 40.8817 28.0215 38.3627 27.8563 37.6299C27.0112 33.8693 25.5879 31.7253 21.7024 30.5988C20.8287 30.3452 16.894 29.8022 16.6462 29.4879C16.4238 29.2063 16.4587 28.6944 16.6462 28.4096C16.9257 27.9864 19.8836 27.7406 20.6016 27.5819C24.3568 26.7542 26.4028 24.8871 27.4957 21.2759C27.7991 20.2723 28.2106 16.7513 28.6379 16.3328C30.174 14.8313 30.3741 19.2952 30.5473 20.07C31.3225 23.5428 32.8935 26.0322 36.4677 27.1743C37.4367 27.4839 41.5589 28.0378 41.8559 28.3458L41.8575 28.349ZM29.3575 22.0911C29.097 21.8235 29.089 22.1736 29.0271 22.309C28.792 22.8193 28.6601 23.4852 28.3885 24.0142C27.1621 26.3963 25.0923 28.1125 22.5332 29.0071C25.078 29.6481 27.1383 31.1262 28.3361 33.4305C28.5505 33.8428 28.9699 35.3801 29.0445 35.4579C29.3051 35.7239 29.313 35.3754 29.3749 35.24C29.529 34.9055 29.5926 34.4325 29.7594 34.0622C30.8713 31.5961 32.6711 29.8753 35.3525 29.1238C35.6035 29.0538 36.5709 29.0942 35.8037 28.7597C32.8776 27.487 31.2923 26.7386 29.8579 23.7015C29.6895 23.3452 29.4162 22.1518 29.3575 22.0911Z" fill="#195D7E"/>
</g>
<defs>
<clipPath id="clip0_2553_27566">
<rect width="85" height="81" fill="white"/>
</clipPath>
</defs>
</svg>
