<svg width="27" height="27" viewBox="0 0 27 27" fill="none" xmlns="http://www.w3.org/2000/svg">
<g clip-path="url(#clip0_3380_5302)">
<path d="M24.2907 3.34165C28.6078 8.08137 27.6439 15.651 22.2843 19.1188C18.8596 21.3345 14.4104 21.3044 11.014 19.0483L3.75176 26.3619C1.80117 28.2107 -0.939553 25.6629 0.746079 23.5701L8.08456 16.1621L8.06018 16.0432C4.90827 11.1213 6.40364 4.56283 11.3363 1.51502C15.5111 -1.06445 20.9925 -0.278322 24.2907 3.34244V3.34165ZM23.4565 3.31153C18.4664 -1.52407 10.1429 0.285119 7.63799 6.77063C4.83122 14.0383 11.036 21.5017 18.619 20.0159C26.2987 18.511 29.1101 8.79062 23.4565 3.31233V3.31153ZM9.44784 17.7486C9.09405 17.3944 8.77013 17.0156 8.45879 16.6257L8.38332 16.6614L1.14076 23.9671C-0.051923 25.5179 1.98043 27.3358 3.3728 25.9395L10.4448 18.8089L10.5077 18.6821C10.1303 18.3976 9.7812 18.083 9.44784 17.7494V17.7486Z" fill="white"/>
<path d="M20.2502 22.2906C20.663 22.2058 20.5734 22.6623 20.6229 22.8882C20.7927 23.6489 21.3014 24.1616 22.0562 24.3328C22.2307 24.3724 22.5342 24.2979 22.6262 24.5103C22.682 24.6411 22.6592 24.794 22.5357 24.8741C22.4123 24.9541 22.0066 24.947 21.7818 25.0246C21.1654 25.237 20.7628 25.7616 20.6229 26.3893C20.5836 26.566 20.6575 26.8711 20.4468 26.9638C19.9586 27.177 20.0364 26.4019 19.9381 26.1119C19.7431 25.5374 19.1716 25.0571 18.5819 24.9454C18.3492 24.901 17.9545 24.9945 17.9797 24.5983C17.9985 24.2956 18.3908 24.3748 18.5827 24.332C19.1896 24.1981 19.7329 23.7686 19.9381 23.1647C20.0325 22.8882 19.9554 22.3509 20.2502 22.2898V22.2906ZM19.8123 24.3249C19.6818 24.4414 19.5285 24.523 19.398 24.6387C19.7832 24.8899 20.071 25.18 20.3202 25.5683C20.5663 25.1847 20.8595 24.886 21.2424 24.6387C20.8501 24.3915 20.5655 24.1038 20.3202 23.7092C20.1575 23.9184 20.0112 24.1474 19.8131 24.3249H19.8123Z" fill="white"/>
<path d="M3.04004 10.7114C3.24524 10.9618 3.65093 11.2265 3.96384 11.3042C4.1769 11.3565 4.72332 11.2962 4.69344 11.6425C4.66357 11.9889 4.37031 11.8811 4.15253 11.9255C3.53064 12.053 2.96064 12.4564 2.74128 13.0753C2.62414 13.4042 2.73421 14.1222 2.22632 13.9653C2.05178 13.9114 2.03527 13.2814 1.9653 13.0801C1.79233 12.5792 1.22626 12.0847 0.714437 11.9659C0.477788 11.9112 -0.0631237 11.9651 0.00606272 11.5879C0.0595249 11.2939 0.598864 11.3438 0.862245 11.2598C1.34498 11.106 1.8057 10.6448 1.97159 10.1614C2.06436 9.892 2.01011 9.32935 2.31437 9.27942C2.69175 9.21761 2.6265 9.74381 2.68075 9.98392C2.735 10.224 2.88438 10.522 3.03926 10.7106L3.04004 10.7114ZM1.83085 11.9302C1.92441 12.015 2.33403 12.5578 2.3757 12.5475C2.55338 12.2298 2.78295 11.9999 3.06599 11.7781C3.11788 11.7369 3.27984 11.6996 3.26018 11.618C3.25311 11.5902 2.88044 11.3501 2.80811 11.282C2.71455 11.194 2.38277 10.7154 2.33796 10.7273C2.27585 10.7431 1.69405 11.6378 1.41495 11.5982C1.38743 11.6346 1.78761 11.8898 1.83164 11.9302H1.83085Z" fill="white"/>
<path d="M11.6073 15.7293C7.87752 12.1165 8.90431 5.85364 13.5768 3.65456C18.3089 1.42774 23.8446 4.7862 24.0703 10.0331C24.3573 16.7017 16.4126 20.3842 11.6073 15.7293ZM21.5426 15.2253C25.0067 11.6925 23.7055 5.68723 19.103 3.95886C13.4557 1.83823 8.04577 7.60023 10.4767 13.1681C12.3919 17.5544 18.1847 18.6487 21.5426 15.2253Z" fill="white"/>
<path d="M16.9637 7.26403C16.9747 7.2989 17.0258 7.31713 17.062 7.32347C17.3686 7.37973 18.2956 7.21094 18.4748 7.44234C18.5975 7.60083 18.5322 7.85125 18.3199 7.87978C17.4897 7.99151 16.0069 7.5406 15.5548 8.49631C15.3151 9.0027 15.433 9.56138 15.8835 9.89659C16.2459 10.166 16.5093 10.0575 16.904 10.0947C19.0731 10.3023 19.0582 13.1425 16.981 13.4555C16.9252 13.5356 16.9834 14.1458 16.9645 14.309C16.9158 14.7274 16.4142 14.5238 16.4142 14.3479V13.4175H15.0595C14.8819 13.4175 14.7089 12.9087 15.2144 12.8612C15.8064 12.8065 16.889 12.9975 17.3828 12.751C18.2295 12.3295 18.1541 11.0362 17.2562 10.7271C16.7074 10.5385 16.2333 10.7778 15.6712 10.4252C14.3016 9.56534 14.8095 7.44471 16.4142 7.36151C16.4606 7.06275 16.2294 6.09753 16.7782 6.22194C16.8238 6.23225 16.9637 6.32179 16.9637 6.3527C16.9637 6.53734 16.9268 7.14199 16.9637 7.26324V7.26403Z" fill="white"/>
</g>
<defs>
<clipPath id="clip0_3380_5302">
<rect width="27" height="27" fill="white"/>
</clipPath>
</defs>
</svg>
