<svg width="50" height="50" viewBox="0 0 50 50" fill="none" xmlns="http://www.w3.org/2000/svg">
<g clip-path="url(#clip0_3377_5072)">
<path d="M3.74486 31.2317C3.4814 30.9686 0.031397 31.9205 3.32789e-05 30.1482C-0.0125122 29.4281 3.52531 22.6583 4.97431 22.6332C13.637 22.9776 23.504 21.7064 32.0412 22.4954C34.2053 22.6958 33.4275 24.0548 32.9758 24.0548H26.2577L29.852 29.9854H48.137C47.5223 27.9438 46.2113 25.7707 44.8564 24.0548H35.7923C35.2026 24.0548 35.2026 22.4954 35.7923 22.4954H44.8564C45.2139 22.4954 46.0984 23.1217 46.4058 23.4473C46.8825 23.9421 50.0126 29.6848 50.0063 30.1545C49.9812 31.7013 47.2463 31.1753 46.2615 31.2379C45.8098 36.4108 46.8699 42.5794 46.2678 47.627C46.0796 49.2364 45.4586 49.5245 43.9343 49.6623C31.9283 50.7645 18.26 48.798 6.07832 49.6623C5.31304 49.8815 3.75113 48.9483 3.75113 48.2407V39.8176C3.75113 38.9909 5.31304 39.636 5.31304 40.1307V47.9338C5.31304 47.9651 5.74586 48.4035 5.7835 48.4035H23.9117C23.9431 48.4035 24.3822 47.9714 24.3822 47.9338V26.5598C23.2343 27.1548 21.8982 31.2379 20.7879 31.2379H5.30677V37.012C5.30677 37.5004 4.22786 37.8324 3.74486 37.4817C3.58177 36.6049 3.9644 31.4634 3.74486 31.2379V31.2317ZM23.7486 24.0548H5.14995C3.78877 25.7707 2.48404 27.9376 1.86931 29.9854H20.1543L23.7486 24.0548ZM44.6933 31.2317H29.2185C28.0141 31.2317 26.8474 27.042 25.6242 26.5536V47.9276C25.6242 47.9589 26.057 48.3972 26.0946 48.3972H44.2228C44.2542 48.3972 44.6933 47.9651 44.6933 47.9276V31.2317Z" fill="#4F96B6"/>
<path d="M31.0246 12.9133C30.3095 13.7588 31.5954 16.9965 31.5766 18.2741C31.5264 22.4011 26.2761 17.4474 24.8961 17.5664C23.5161 17.6854 18.4791 22.3071 18.4226 18.2741C18.4038 16.984 19.5204 14.2034 19.1628 13.2077C19.0436 12.8632 16.3401 10.8467 15.7944 9.99501C13.4735 6.39406 19.9469 7.46495 21.3771 6.54436C22.1863 6.02457 22.9829 3.04361 23.7921 2.0917C26.3075 -0.864208 27.4366 5.77407 28.6284 6.54436C29.8202 7.31465 33.816 6.63203 34.5499 8.13504C35.4594 10.0013 31.9467 11.8237 31.0309 12.9071L31.0246 12.9133ZM25.3101 3.14381C24.5825 2.98725 24.8083 3.24401 24.6138 3.54461C23.9928 4.50278 23.1209 7.27707 22.318 7.79686C21.1576 8.53584 18.2909 8.39807 16.8796 8.76756C17.3939 9.91986 20.2731 11.761 20.5679 12.7255C21.0948 14.479 19.8842 16.6333 20.0097 18.4369C20.179 18.6623 24.2249 15.9945 25.1094 16.0196C25.9938 16.0446 29.8453 18.6561 30.0084 18.4369C30.1339 16.6333 28.9295 14.479 29.4501 12.7255C29.7387 11.761 32.6179 9.9136 33.1385 8.76756C31.7209 8.40433 28.8605 8.53584 27.7 7.79686C26.9034 7.2896 25.7492 4.15208 25.3227 3.14381H25.3101Z" fill="#4F96B6"/>
<path d="M40.0018 20.9352C39.8889 21.0291 39.2616 20.9477 39.0483 20.7974C37.9067 19.9645 39.8701 12.0987 40.3907 10.5582C41.4132 7.55215 43.7843 3.13707 46.2494 1.12053C46.883 0.600744 48.7836 -0.833375 48.7648 0.819932C48.7648 1.13932 45.7727 3.67564 45.1831 4.42715C42.5611 7.75255 41.0493 12.6624 40.397 16.8144C40.2841 17.5221 40.2966 20.6972 39.9955 20.9414L40.0018 20.9352Z" fill="#4F96B6"/>
<path d="M9.67795 11.88C7.99685 12.3872 7.79612 9.70689 7.13121 8.33539C6.51648 7.07036 5.78885 5.71139 4.93575 4.59666C4.28966 3.75749 1.34775 1.32136 1.27247 1.08339C1.14702 0.676324 1.36029 0.118959 1.72411 0.0250213C4.01366 -0.563656 10.2362 9.40628 9.68422 11.88H9.67795Z" fill="#4F96B6"/>
<path d="M9.99913 20.9357C9.97404 19.9024 8.92649 14.0594 9.37185 13.7588C10.7205 12.8508 11.1847 17.2408 11.2349 17.9735C11.3164 19.1884 11.6489 21.23 9.99286 20.9357H9.99913Z" fill="#4F96B6"/>
<path d="M19.3702 4.70329C17.9714 4.91621 16.6541 3.56977 16.8737 2.2108C18.2725 1.99788 19.5898 3.34432 19.3702 4.70329Z" fill="#4F96B6"/>
<path d="M33.126 2.21107C33.3456 3.57631 32.022 4.92275 30.6295 4.70356C30.4099 3.33833 31.7335 1.99189 33.126 2.21107Z" fill="#4F96B6"/>
<path d="M16.2455 14.692C16.4587 16.0886 15.1101 17.4037 13.7489 17.1845C13.5357 15.788 14.8843 14.4728 16.2455 14.692Z" fill="#4F96B6"/>
<path d="M36.2511 17.1847C34.8523 17.3977 33.535 16.0512 33.7546 14.6922C35.1534 14.4793 36.4706 15.8258 36.2511 17.1847Z" fill="#4F96B6"/>
</g>
<defs>
<clipPath id="clip0_3377_5072">
<rect width="50" height="50" fill="white"/>
</clipPath>
</defs>
</svg>
