<svg width="63" height="70" viewBox="0 0 63 70" fill="none" xmlns="http://www.w3.org/2000/svg">
<g clip-path="url(#clip0_2553_27576)">
<path d="M52.6281 41.2527C52.4542 41.2806 52.3589 41.1306 52.2533 41.0226C52.0897 40.8549 51.0494 39.7137 51.0401 39.6215C51.7485 36.8975 52.372 34.155 52.5346 31.3313L52.5365 12.1883C43.4356 11.2837 35.0134 7.26112 27.3623 2.51564C22.2992 5.79015 17.0127 8.68457 11.2019 10.4434C8.35028 11.307 5.32291 12.0122 2.34414 12.1883L2.3404 32.1753C2.96008 45.8417 14.0246 59.0785 25.8939 65.0602C26.1369 65.1822 27.1174 65.6769 27.2912 65.7076C27.638 65.7682 30.5252 64.0522 31.0317 63.7439C32.6029 62.7871 34.0984 61.7121 35.5929 60.6436C35.8836 60.5672 37.0454 61.5565 37.4884 61.563C37.5734 61.6785 37.1687 62.0288 37.0706 62.1229C35.4284 63.6945 32.144 65.7365 30.1064 66.8265C29.5531 67.1227 28.096 67.9332 27.5632 68.0254C27.0697 68.1102 26.5669 67.827 26.1154 67.6332C17.8137 64.0615 8.18017 54.7504 4.07233 46.7509C-0.601919 37.6521 0.112163 30.1352 0.10562 20.2418C0.103751 17.3157 0.00467654 14.3318 3.22321e-06 11.3964C-0.00280076 9.54349 1.82446 10.0074 3.12832 9.84719C10.7411 8.91374 17.8315 5.71376 24.3022 1.79273C25.0546 1.33719 26.0519 0.511805 26.7828 0.166188C27.2819 -0.0695025 27.5015 -0.0471446 27.9847 0.186683C29.1549 0.753084 30.5345 1.82813 31.7243 2.51471C38.0529 6.1693 45.3648 9.07863 52.6776 9.95059C53.7151 10.0745 54.6535 9.74099 54.7834 11.2054C54.2805 19.5142 55.7639 28.7723 54.0029 36.8919C53.6786 38.3853 53.272 39.8656 52.6281 41.2527Z" fill="#195D7E"/>
<path d="M16.879 49.1709C14.9311 48.9101 13.7637 47.0245 13.6497 45.2163C13.3132 39.8858 13.9011 34.1957 13.6665 28.8279C13.8647 26.73 15.4611 25.3066 17.5351 25.137C17.7491 25.1193 18.2296 25.2348 18.2838 25.1417C18.4922 21.7442 17.7314 18.6625 19.6904 15.6423C23.1356 10.3323 31.2896 10.3388 34.6292 15.7355C35.7143 17.4887 35.9171 19.0538 35.9966 21.08C36.0489 22.427 35.9498 23.789 35.9919 25.137C38.2369 24.974 40.2138 26.2586 40.5624 28.5466L40.5605 37.0016C40.5428 37.0855 40.4886 37.1097 40.4147 37.1358C39.8707 37.3361 39.0062 37.391 38.4229 37.6193V28.909C38.4229 28.2727 37.4855 27.3113 36.7864 27.3728L17.5295 27.3682C16.6864 27.4185 16.049 27.9867 15.8957 28.814V45.4949C15.8032 46.0836 16.7322 47.0283 17.2528 47.0283H30.1979L29.9175 49.1709H16.879ZM33.7496 25.1361V20.059C33.7496 15.8156 29.0716 12.9864 25.1302 14.1695C23.1375 14.7685 20.5709 17.227 20.5709 19.4069V25.1361H33.7496Z" fill="#195D7E"/>
<path d="M42.4229 38.393C51.3097 38.1294 56.9045 47.7368 52.5855 55.4149C52.4425 55.6692 51.5919 56.8094 51.6162 56.9371C51.6302 57.0069 52.1527 57.5277 52.2228 57.5417C52.3397 57.564 52.8304 57.2473 53.0724 57.2054C53.8005 57.0815 54.5352 57.197 55.1474 57.6087L62.3892 64.8304C64.4781 67.8822 60.7825 71.5117 57.7682 69.343L50.4395 62.0217C50.0217 61.4143 49.9908 60.4659 50.2479 59.7933C50.3114 59.6266 50.5722 59.2949 50.5582 59.2036C50.5367 59.062 50.1497 58.6708 50.0067 58.6232C49.8077 58.5571 48.9964 59.2455 48.7328 59.4011C43.3052 62.5918 36.4205 61.1199 33.1127 55.7214C28.5759 48.3162 33.6978 38.652 42.422 38.393H42.4229ZM41.9565 40.6288C34.5942 41.2204 30.9611 50.0853 35.7587 55.6934C40.1554 60.833 48.63 59.5818 51.2153 53.3039C53.8389 46.9319 48.8627 40.0745 41.9565 40.6288ZM53.6332 59.2446C53.4276 59.2753 51.8667 60.5945 52.3453 60.9615L59.1253 67.7108C60.1179 68.3545 61.2638 67.1863 60.7666 66.1681L53.8949 59.3191C53.8174 59.239 53.7398 59.2288 53.6323 59.2446H53.6332Z" fill="#195D7E"/>
<path d="M28.8974 37.9125C28.7684 38.0932 29.7115 41.5652 29.5208 42.3021C29.4348 42.6347 29.0881 42.8927 28.7516 42.9319C28.0983 43.0083 26.1121 43.0204 25.4737 42.9337C24.9354 42.8611 24.6634 42.3729 24.6811 41.8633C24.7213 40.697 25.255 39.2586 25.3223 38.0569C23.9605 36.9735 23.2399 35.6842 23.7222 33.9132C24.468 31.1809 28.0973 30.512 29.8713 32.6807C31.2294 34.3408 30.8359 36.9166 28.8965 37.9116L28.8974 37.9125ZM26.715 33.6365C25.4261 33.903 25.4569 36.0065 26.7925 36.217C29.1068 36.5813 29.0189 33.1605 26.715 33.6365Z" fill="#195D7E"/>
<path d="M46.9944 45.7448C48.0132 45.5109 48.7002 46.3484 48.2394 47.2642L41.3463 54.0871C41.1191 54.1858 40.8752 54.2352 40.6266 54.1989C39.8611 54.088 37.7516 51.4684 37.0431 50.8731C36.6776 50.1595 37.2347 49.2857 38.0516 49.3938C38.9152 49.5083 40.5929 51.8243 40.8874 51.7721L46.6467 45.9544C46.7458 45.8584 46.857 45.7755 46.9954 45.7438L46.9944 45.7448Z" fill="#195D7E"/>
</g>
<defs>
<clipPath id="clip0_2553_27576">
<rect width="63" height="70" fill="white"/>
</clipPath>
</defs>
</svg>
