<svg version="1.1" id="Layer_1" xmlns="http://www.w3.org/2000/svg" xmlns:xlink="http://www.w3.org/1999/xlink" x="0px" y="0px"
	 width="100%" viewBox="0 0 1024 672" enable-background="new 0 0 1024 672" xml:space="preserve">
<path fill="#000000" opacity="1.000000" stroke="none" 
	d="
M304.553345,333.320984 
	C295.466492,387.549164 244.925400,425.705658 190.820084,419.549469 
	C143.992004,414.221283 106.167130,378.153473 98.951591,331.948486 
	C90.243172,276.183746 127.352257,224.413834 183.149170,214.486694 
	C227.310333,206.629715 271.050751,226.841568 292.903625,265.887787 
	C304.546112,286.690277 308.748535,309.152069 304.553345,333.320984 
M238.752762,243.762848 
	C221.678787,235.510345 203.624832,233.113937 185.208649,236.754456 
	C142.916046,245.114899 114.869156,283.886841 120.252274,326.740692 
	C126.063354,373.001465 171.477417,405.733002 217.266571,396.662933 
	C259.751160,388.247467 288.321503,349.944977 283.521454,307.254242 
	C280.273804,278.370209 264.840820,257.665039 238.752762,243.762848 
z"/>
<path fill="#000000" opacity="1.000000" stroke="none" 
	d="
M356.108490,250.791916 
	C363.911560,250.801559 371.215576,250.708878 378.516266,251.672913 
	C397.111481,254.128403 406.156372,273.564056 395.715820,288.668884 
	C393.419800,291.990601 389.859619,293.487488 386.265961,296.200012 
	C389.354462,301.244232 392.434143,306.290649 395.533630,311.324860 
	C396.319031,312.600464 397.327850,313.762573 397.954254,315.107147 
	C399.360779,318.126038 403.623474,321.056305 399.296265,324.579010 
	C396.130280,327.156372 389.011414,325.094116 386.715424,321.365967 
	C382.786987,314.987122 378.939667,308.558350 375.028137,302.169006 
	C373.006683,298.867035 363.480865,296.708405 360.365356,298.817932 
	C358.880554,299.823273 359.079376,301.433990 359.062103,302.895538 
	C358.999054,308.223724 358.927490,313.553925 359.010925,318.881012 
	C359.077423,323.125977 357.507660,325.353180 352.901367,325.424103 
	C348.373291,325.493805 345.306305,324.273987 345.235809,319.224915 
	C345.119598,310.901123 345.086548,302.575867 345.066864,294.251099 
	C345.040863,283.260406 345.036713,272.269470 345.069733,261.278778 
	C345.098755,251.611374 345.926453,250.817810 356.108490,250.791916 
M377.786835,285.622498 
	C383.929077,283.188965 387.023529,279.080292 386.606018,273.912750 
	C386.165222,268.456665 382.892120,265.427826 375.964996,263.893524 
	C371.521423,262.909332 367.036041,263.497375 362.571075,263.337524 
	C359.974548,263.244537 359.052368,264.667175 359.055725,267.048950 
	C359.062927,272.193909 359.111938,277.340698 358.993011,282.483246 
	C358.916656,285.785553 360.506012,286.746399 363.585876,286.729034 
	C368.080139,286.703735 372.537628,286.477539 377.786835,285.622498 
z"/>
<path fill="#000000" opacity="1.000000" stroke="none" 
	d="
M712.181396,276.524200 
	C714.553467,278.294128 715.372192,276.121979 716.503662,275.193024 
	C721.366089,271.200836 726.882874,269.296875 733.161743,269.717255 
	C744.589966,270.482330 752.042542,278.022308 752.272522,289.407867 
	C752.474304,299.401093 752.239319,309.402557 752.377075,319.397919 
	C752.436035,323.674072 750.591431,325.377625 746.388245,325.406128 
	C742.136536,325.434906 739.715759,324.002441 739.745544,319.402679 
	C739.800598,310.905548 739.793518,302.407013 739.703979,293.910217 
	C739.619263,285.873077 735.873474,281.467651 729.222656,281.356262 
	C722.596191,281.245300 717.536621,286.056122 717.225220,293.469788 
	C716.882812,301.620239 717.118286,309.793640 717.018738,317.956024 
	C716.944275,324.062836 715.651489,325.414764 710.277771,325.361084 
	C705.385986,325.312225 704.037781,323.837585 703.960327,317.970520 
	C703.848206,309.474457 703.995789,300.973633 703.794312,292.480499 
	C703.638062,285.893219 700.280945,282.077728 694.573120,281.407928 
	C688.937073,280.746552 684.008545,284.193604 682.345215,290.196838 
	C680.304871,297.560272 681.723389,305.113983 681.353394,312.572784 
	C681.254395,314.567352 681.202820,316.581970 681.365173,318.568115 
	C681.730652,323.039215 680.280823,325.450043 675.287109,325.433746 
	C670.452698,325.417969 668.767090,323.117065 668.781128,318.675018 
	C668.822815,305.512146 668.764648,292.348969 668.805969,279.186096 
	C668.815247,276.247955 668.193420,272.735718 671.734131,271.373566 
	C675.376465,269.972290 678.998413,270.295807 681.627014,274.069336 
	C692.299927,267.926086 702.510254,267.424622 712.181396,276.524200 
z"/>
<path fill="#000000" opacity="1.000000" stroke="none" 
	d="
M933.274902,303.587006 
	C929.903320,324.070312 908.125854,333.321686 890.238953,320.736511 
	C888.751709,326.546234 889.533936,332.301697 889.426880,337.976746 
	C889.351624,341.964844 889.773499,345.903564 883.943665,345.884216 
	C878.538391,345.866302 876.997070,344.320892 876.982361,338.061584 
	C876.936707,318.586975 876.913757,299.112183 876.961914,279.637604 
	C876.969910,276.405029 876.251038,272.413177 880.455322,271.195465 
	C884.443787,270.040283 888.550598,270.020050 890.274841,275.032715 
	C906.510742,266.232483 920.999573,269.107513 929.480469,282.407471 
	C933.580017,288.836578 933.594543,295.940643 933.274902,303.587006 
M892.156738,308.213409 
	C897.527832,314.905121 905.523071,316.852386 912.469116,313.160492 
	C919.222168,309.571198 922.495789,300.913177 920.123413,292.916687 
	C917.872009,285.328064 912.297363,281.130310 904.740479,281.333191 
	C897.059143,281.539398 892.007385,285.868439 889.952820,293.608337 
	C888.631287,298.586426 889.709473,303.109924 892.156738,308.213409 
z"/>
<path fill="#000000" opacity="1.000000" stroke="none" 
	d="
M592.290405,281.999969 
	C592.281677,294.143585 592.307922,305.787384 592.239014,317.430603 
	C592.220886,320.497375 592.929443,324.223602 588.621704,325.119019 
	C584.438354,325.988525 580.563660,325.546814 579.306213,320.365753 
	C565.686218,329.054230 552.104126,328.205231 542.949097,318.258057 
	C533.962341,308.493805 533.233887,290.887878 541.358093,279.805450 
	C549.475525,268.732239 561.980164,266.935089 578.510193,274.791992 
	C580.455017,268.753754 579.424377,262.632965 579.549683,256.649139 
	C579.637207,252.465912 581.298645,250.535034 585.529541,250.583801 
	C590.461914,250.640640 592.204407,252.086349 592.262085,257.048676 
	C592.356750,265.198090 592.289001,273.349426 592.290405,281.999969 
M566.846069,281.574188 
	C557.826172,280.922729 551.486084,284.864197 549.510742,292.351074 
	C547.065613,301.618439 550.233948,310.076996 557.402771,313.420776 
	C566.043335,317.451050 575.679688,313.737396 578.818970,305.167419 
	C582.623352,294.781799 577.890137,284.911133 566.846069,281.574188 
z"/>
<path fill="#000000" opacity="1.000000" stroke="none" 
	d="
M452.411560,323.069916 
	C450.871338,319.056274 449.099152,321.800293 447.732147,322.612091 
	C434.899811,330.232117 418.949249,326.834503 411.402771,314.273529 
	C405.182190,303.919495 405.044159,292.979706 411.049011,282.442352 
	C416.553314,272.783447 425.439148,269.127197 436.316956,269.671204 
	C441.671204,269.938965 446.241211,272.177979 450.809448,275.326355 
	C452.720825,270.333038 456.680145,269.974274 460.693939,271.173523 
	C464.800842,272.400604 464.282715,276.273712 464.286804,279.583710 
	C464.302399,292.237915 464.295929,304.892242 464.267792,317.546417 
	C464.261932,320.178986 464.810089,323.365723 461.832123,324.608826 
	C458.757812,325.892181 455.336365,326.313721 452.411560,323.069916 
M423.351196,309.073944 
	C429.545013,315.565979 438.392822,316.901947 444.847900,312.319824 
	C451.534241,307.573547 453.657715,297.297119 449.573120,289.452240 
	C445.993134,282.576508 437.180634,279.587219 429.324493,282.583710 
	C420.050537,286.121002 417.073608,298.175232 423.351196,309.073944 
z"/>
<path fill="#000000" opacity="1.000000" stroke="none" 
	d="
M608.824097,278.860779 
	C617.510071,270.264099 627.535645,267.777405 638.888000,270.817657 
	C652.185669,274.378967 660.780029,287.563629 659.014404,301.381226 
	C657.167053,315.838715 645.937073,325.975616 631.841187,326.410126 
	C619.929504,326.777283 610.466431,322.551727 605.040039,311.831116 
	C599.271545,300.434662 600.625916,289.298706 608.824097,278.860779 
M631.297302,281.328430 
	C629.659729,281.516388 627.963623,281.493408 626.394531,281.928375 
	C619.103516,283.949677 615.332642,289.141754 614.647949,296.367004 
	C614.012451,303.073212 616.274475,308.842102 622.231384,312.594940 
	C627.592712,315.972626 634.869385,315.693939 640.021484,311.677521 
	C645.114380,307.707367 647.274353,302.246124 646.312744,295.843170 
	C645.087524,287.684509 640.342590,282.758270 631.297302,281.328430 
z"/>
<path fill="#000000" opacity="1.000000" stroke="none" 
	d="
M476.655518,283.035309 
	C476.655121,281.708405 476.557831,280.861847 476.672394,280.045013 
	C477.087921,277.082611 475.176147,273.206848 478.888947,271.476532 
	C482.838470,269.635834 486.684509,270.608795 489.706665,274.201904 
	C494.772217,271.015381 499.993225,269.313995 505.907257,269.634521 
	C517.718384,270.274658 525.979797,278.217834 526.268982,290.018677 
	C526.509766,299.841248 526.249939,309.675171 526.378235,319.501892 
	C526.434753,323.833252 524.426331,325.362946 520.288879,325.418182 
	C515.926636,325.476471 513.716614,323.801605 513.738831,319.317047 
	C513.778320,311.321350 513.745422,303.325104 513.706970,295.329285 
	C513.663635,286.306091 509.722198,281.492706 502.304718,281.336945 
	C494.578339,281.174713 489.385498,286.544434 489.215912,295.162750 
	C489.061890,302.989410 489.092407,310.821167 489.150696,318.649872 
	C489.183716,323.084290 487.561981,325.427429 482.705688,325.442322 
	C477.669281,325.457764 476.553436,322.903564 476.609436,318.511292 
	C476.758087,306.852295 476.657379,295.190186 476.655518,283.035309 
z"/>
<path fill="#000000" opacity="1.000000" stroke="none" 
	d="
M783.327026,294.026886 
	C783.325317,298.179901 783.312256,301.839874 783.327026,305.499695 
	C783.359619,313.571136 785.624268,315.525818 793.672180,314.453918 
	C799.145752,313.724915 801.282288,315.908722 800.162354,321.039368 
	C799.633606,323.461334 797.986572,324.586426 795.755127,325.255829 
	C781.216797,329.617401 770.689941,321.987366 770.659607,307.023834 
	C770.647095,300.868561 770.454285,294.704681 770.719421,288.560913 
	C770.901306,284.344696 770.065918,281.902557 765.103027,282.199219 
	C761.480713,282.415710 759.738892,280.089478 759.765320,276.462677 
	C759.790344,273.030151 761.584656,270.810883 764.883423,271.024994 
	C770.073303,271.361816 770.922913,268.877319 770.740784,264.442291 
	C770.497314,258.514252 771.857849,257.586853 777.727173,257.640289 
	C781.796204,257.677338 783.480957,259.562988 783.335693,263.471985 
	C783.019836,271.969666 783.855469,270.813019 791.117554,270.906433 
	C792.758423,270.927521 794.471008,271.069702 796.016785,271.569672 
	C798.983032,272.529053 799.222534,275.082458 799.026001,277.699310 
	C798.828369,280.330750 797.643433,282.111877 794.766418,282.286926 
	C794.434448,282.307129 794.101501,282.312042 793.769714,282.334442 
	C783.334656,283.038330 783.334656,283.038513 783.327026,294.026886 
z"/>
<path fill="#000000" opacity="1.000000" stroke="none" 
	d="
M829.335083,284.148834 
	C823.948914,287.466095 822.163879,292.157562 822.268433,297.918518 
	C822.395325,304.913330 822.361877,311.913208 822.269714,318.909180 
	C822.200928,324.136688 820.794250,325.297211 815.681946,325.393646 
	C811.147888,325.479218 809.503784,323.349731 809.538086,318.971252 
	C809.646301,305.164307 808.818359,291.358032 809.494324,277.547119 
	C809.625488,274.867584 809.236755,271.845886 812.740356,271.123596 
	C816.191467,270.412079 819.798828,269.958771 822.002625,273.850128 
	C822.238892,274.267273 822.506409,274.666809 822.823547,275.177979 
	C827.316895,272.101166 831.672058,269.734955 836.892090,269.675201 
	C841.923096,269.617615 843.752625,271.204285 843.943420,275.931305 
	C844.112610,280.123505 841.907166,282.002747 837.877869,282.124023 
	C835.028625,282.209778 832.232361,282.588654 829.335083,284.148834 
z"/>
<path fill="#000000" opacity="1.000000" stroke="none" 
	d="
M853.064026,307.988434 
	C853.066284,297.513824 852.946594,287.534821 853.117126,277.560730 
	C853.213989,271.897888 855.429382,270.257904 861.039673,270.800690 
	C864.424438,271.128204 866.235962,272.866455 866.240845,276.251068 
	C866.262146,290.883911 866.260498,305.516968 866.200134,320.149658 
	C866.184692,323.890808 864.018677,325.367798 860.397583,325.390991 
	C856.755981,325.414307 853.517700,324.969788 853.251770,320.450287 
	C853.017700,316.472290 853.113464,312.474915 853.064026,307.988434 
z"/>
<path fill="#000000" opacity="1.000000" stroke="none" 
	d="
M586.814819,370.668304 
	C585.737366,374.056763 584.821289,377.078491 583.843567,380.080170 
	C583.312561,381.710541 582.620117,383.190918 580.471191,383.129211 
	C578.406067,383.069916 577.612000,381.673645 577.044250,380.041809 
	C576.074585,377.255341 575.161072,374.449341 573.871582,370.599396 
	C572.460327,374.709015 571.390625,377.761658 570.367798,380.829926 
	C569.892578,382.255707 568.985474,383.049438 567.469299,383.119446 
	C565.978027,383.188293 564.718567,382.594879 564.296631,381.198914 
	C562.341614,374.730835 559.571045,368.484375 558.491699,361.776306 
	C562.455566,360.646118 562.455566,360.646118 567.261047,371.658997 
	C569.284058,369.128174 569.449524,366.074341 570.600403,363.471527 
	C571.251648,361.998657 571.973938,360.846069 573.799072,360.851288 
	C575.626709,360.856506 576.484985,362.000793 576.984497,363.503052 
	C577.963318,366.446564 578.868469,369.414642 580.187927,373.585815 
	C581.495300,369.419617 582.435547,366.481232 583.336914,363.530975 
	C583.968140,361.465149 585.276428,360.371918 587.435181,360.972626 
	C589.897705,361.657837 588.968567,363.482849 588.531372,365.042969 
	C588.038269,366.802582 587.480225,368.543945 586.814819,370.668304 
z"/>
<path fill="#000000" opacity="1.000000" stroke="none" 
	d="
M397.219666,371.477173 
	C399.702667,369.670258 399.656494,366.541870 400.625458,363.880066 
	C401.428741,361.673492 402.651611,360.186127 404.988281,360.966431 
	C407.621613,361.845856 406.286926,363.963776 405.797058,365.601379 
	C404.366241,370.384430 402.819031,375.132538 401.357117,379.906525 
	C400.838562,381.599823 400.162323,383.043610 398.072845,383.072449 
	C395.988312,383.101196 395.340912,381.629822 394.650085,380.017731 
	C393.571777,377.501556 393.490173,374.539062 391.398712,372.156342 
	C389.313293,374.835541 389.168732,377.949799 387.978241,380.631744 
	C387.336731,382.076874 386.481567,383.213226 384.648438,383.122498 
	C383.131622,383.047455 382.132263,382.361664 381.691498,380.910950 
	C379.768585,374.582123 377.854553,368.250580 375.933655,361.908081 
	C379.716797,359.847900 381.372803,361.182495 382.310181,364.348572 
	C383.042847,366.823273 383.369232,369.468079 385.239838,372.166321 
	C386.383484,368.940125 387.367279,366.172821 388.345062,363.403442 
	C388.888794,361.863373 389.784882,360.811554 391.592010,360.845612 
	C393.474243,360.881104 394.091217,362.154205 394.581055,363.668335 
	C395.400269,366.200714 396.287872,368.710938 397.219666,371.477173 
z"/>
<path fill="#000000" opacity="1.000000" stroke="none" 
	d="
M442.588837,360.872986 
	C447.754700,362.744263 448.557495,368.127319 452.739929,371.513275 
	C452.858826,369.006348 452.899017,366.845764 453.082153,364.697327 
	C453.239380,362.852661 453.438721,360.906952 455.994690,360.859192 
	C458.503326,360.812317 459.018005,362.569183 459.025604,364.523193 
	C459.044983,369.500092 459.000366,374.478485 458.882996,379.453979 
	C458.847992,380.937256 458.640106,382.531860 456.787323,382.994781 
	C454.972839,383.448151 453.523590,382.799957 452.445496,381.319366 
	C450.324158,378.406097 448.224518,375.477020 445.439117,371.616455 
	C445.276611,375.290924 445.208405,377.860413 445.032196,380.422455 
	C444.931244,381.890167 444.211792,382.943542 442.582397,383.032562 
	C441.032898,383.117218 439.831085,382.420197 439.817627,380.852264 
	C439.765228,374.724731 439.822144,368.594788 439.960938,362.468506 
	C439.986633,361.335632 441.130249,360.990601 442.588837,360.872986 
z"/>
<path fill="#000000" opacity="1.000000" stroke="none" 
	d="
M617.822388,370.054718 
	C618.428467,366.684967 615.988892,362.525818 619.860840,361.124207 
	C624.063843,359.602722 625.101501,364.197418 627.127319,366.591858 
	C628.405701,368.102753 629.502197,369.767517 631.749329,371.280945 
	C631.749329,368.775085 631.728210,366.269012 631.756592,363.763489 
	C631.776306,362.015656 632.553284,360.891205 634.445923,360.901825 
	C636.324341,360.912445 637.154114,362.059265 637.168579,363.776886 
	C637.214661,369.275421 637.208496,374.774567 637.179260,380.273285 
	C637.172852,381.479218 636.875183,382.641144 635.471863,382.991943 
	C633.657959,383.445404 632.177490,382.848511 631.080383,381.368683 
	C628.816589,378.315308 626.582886,375.239685 623.295349,372.274658 
	C623.295349,374.975555 623.317383,377.676727 623.286682,380.377319 
	C623.269775,381.863953 622.731506,382.976410 621.012329,383.061401 
	C619.218872,383.150116 618.052185,382.337433 617.976074,380.534027 
	C617.835876,377.206879 617.864990,373.872528 617.822388,370.054718 
z"/>
<path fill="#000000" opacity="1.000000" stroke="none" 
	d="
M518.490723,360.737061 
	C520.415649,360.740845 521.918884,360.682037 523.414062,360.766632 
	C530.952637,361.193268 533.847961,366.725037 529.938232,373.186707 
	C529.083618,374.599121 529.083618,374.599121 531.222839,382.580872 
	C528.889282,383.621918 526.943787,383.632050 525.327454,381.203552 
	C524.202881,379.513947 523.893066,377.064667 521.538513,376.473755 
	C519.690552,377.588043 520.285645,379.288544 519.998108,380.676971 
	C519.632080,382.444397 518.625671,383.216492 516.838745,383.136627 
	C515.216125,383.064026 514.258362,382.155823 514.258972,380.662750 
	C514.261353,374.849548 514.370911,369.035614 514.512024,363.223663 
	C514.568176,360.908630 516.295532,360.734436 518.490723,360.737061 
M523.030396,365.789764 
	C521.112000,365.490570 520.251099,366.391846 520.254333,368.251617 
	C520.256592,369.539185 520.687561,370.532501 522.137085,370.682312 
	C523.325623,370.805145 524.534973,370.725830 525.174744,369.543854 
	C526.109253,367.817261 525.163086,366.768158 523.030396,365.789764 
z"/>
<path fill="#000000" opacity="1.000000" stroke="none" 
	d="
M649.062500,383.246033 
	C645.977051,383.361877 643.966003,382.744812 643.986816,379.531372 
	C644.019104,374.554871 644.011230,369.578186 644.023621,364.601562 
	C644.030151,361.963654 645.277954,360.884766 647.990112,360.686157 
	C660.017700,359.805359 666.471252,367.068451 662.358948,377.010071 
	C659.911743,382.926361 654.845154,383.324493 649.062500,383.246033 
M652.085022,365.855713 
	C647.008423,366.638489 649.965271,370.572205 649.442749,373.032440 
	C649.075989,374.759308 648.628235,377.341064 651.579407,377.783539 
	C654.511902,378.223236 656.487061,376.680634 657.220459,373.979034 
	C658.292358,370.030579 657.073914,367.085663 652.085022,365.855713 
z"/>
<path fill="#000000" opacity="1.000000" stroke="none" 
	d="
M433.221802,370.340759 
	C433.112762,377.775696 430.383148,381.749451 424.789185,383.095917 
	C419.082123,384.469635 413.863220,382.195221 411.325989,377.228638 
	C408.408325,371.517334 410.473816,364.852051 416.070190,361.919495 
	C421.728027,358.954681 429.095612,361.126831 431.989594,366.668640 
	C432.519989,367.684296 432.788300,368.836792 433.221802,370.340759 
M416.002075,374.457306 
	C417.398712,377.302765 419.662323,378.902588 422.822845,378.275848 
	C425.224701,377.799530 427.010315,376.143188 427.525024,373.608459 
	C428.055634,370.995514 427.539337,368.622162 425.259613,366.910828 
	C423.351074,365.478119 421.253754,365.171722 419.161194,366.318298 
	C416.227325,367.925812 414.826111,370.362244 416.002075,374.457306 
z"/>
<path fill="#000000" opacity="1.000000" stroke="none" 
	d="
M753.857422,375.117310 
	C754.341003,377.831512 756.790649,379.557617 756.199585,382.557129 
	C753.791565,383.748566 751.949219,383.328064 750.389343,380.897583 
	C749.286926,379.179840 749.096008,376.643158 746.578857,376.049896 
	C744.700867,376.982574 745.398254,378.689423 745.238708,380.070343 
	C745.046692,381.732208 744.570129,383.021332 742.611572,383.039307 
	C740.729248,383.056580 739.853882,381.925201 739.835510,380.214417 
	C739.776367,374.717712 739.795776,369.219879 739.826294,363.722717 
	C739.831970,362.700958 740.210327,361.807617 741.169739,361.215454 
	C743.646118,359.687225 752.854065,361.002472 754.961121,363.216461 
	C757.955811,366.363098 757.622803,370.014771 753.857422,375.117310 
M745.452393,367.197388 
	C745.091187,369.581116 745.741089,371.103485 748.523376,370.651581 
	C750.010071,370.410156 751.111389,369.369019 750.635742,367.960876 
	C749.776062,365.415527 747.936462,364.980408 745.452393,367.197388 
z"/>
<path fill="#000000" opacity="1.000000" stroke="none" 
	d="
M473.815186,383.259216 
	C466.704742,383.132996 466.694305,383.133026 466.668152,376.701599 
	C466.652008,372.728546 466.772552,368.752167 466.645844,364.783234 
	C466.549408,361.760864 467.914948,360.824402 470.804352,360.680756 
	C481.278748,360.160187 485.542755,363.597900 485.317383,372.705444 
	C485.147919,379.555450 481.929474,382.629059 473.815186,383.259216 
M479.651703,370.849548 
	C479.221741,367.541656 477.278259,365.477722 474.023529,366.032593 
	C470.992157,366.549316 472.544617,369.524811 472.217926,371.440948 
	C472.054382,372.400116 472.184326,373.414642 472.226501,374.402222 
	C472.282837,375.719666 472.224640,377.168060 473.865631,377.627472 
	C475.398651,378.056610 476.816254,377.651672 478.002930,376.598053 
	C479.496399,375.272003 479.749756,373.497467 479.651703,370.849548 
z"/>
<path fill="#000000" opacity="1.000000" stroke="none" 
	d="
M691.752502,365.211090 
	C691.628723,362.059662 692.837158,360.678436 695.581299,360.747040 
	C696.578796,360.771973 697.577637,360.753021 698.575745,360.742737 
	C702.493408,360.702332 706.407349,360.827393 708.490845,364.937622 
	C710.566284,369.031921 708.614685,372.277344 705.865723,375.010315 
	C706.369019,377.745300 708.656860,379.470825 708.741028,382.067688 
	C706.740723,382.856018 706.740723,382.856018 698.733826,376.026306 
	C696.774719,376.738708 697.433960,378.476593 697.345276,379.841888 
	C697.224670,381.699707 696.846863,383.191528 694.549988,383.072876 
	C692.388367,382.961182 691.791382,381.503082 691.778076,379.660828 
	C691.744385,375.002716 691.751282,370.344330 691.752502,365.211090 
M701.475281,366.066040 
	C699.835999,365.601227 698.107544,365.055817 697.507935,367.417694 
	C697.222473,368.542328 697.219788,369.860474 698.485596,370.452728 
	C699.895813,371.112549 701.475098,371.114563 702.665833,370.016754 
	C704.139954,368.657654 703.537476,367.385651 701.475281,366.066040 
z"/>
<path fill="#000000" opacity="1.000000" stroke="none" 
	d="
M500.844269,369.424408 
	C503.241913,369.164062 505.500305,368.849335 505.506500,371.863495 
	C505.512115,374.590820 503.227875,374.221497 501.471252,374.294922 
	C499.402588,374.381317 497.808868,374.781891 498.429504,377.443054 
	C500.537811,378.599579 502.754791,377.705322 504.841888,378.088654 
	C506.241760,378.345764 507.482849,378.748779 507.547882,380.437256 
	C507.619904,382.306122 506.530945,383.109039 504.775116,383.190063 
	C504.609436,383.197693 504.442810,383.199707 504.278412,383.219421 
	C492.485931,384.632446 491.860168,384.085480 491.870331,372.369873 
	C491.870605,372.038116 491.871399,371.706329 491.871796,371.374573 
	C491.884888,360.027740 492.796906,359.246338 504.081024,360.747314 
	C505.647766,360.955719 507.099579,361.140411 507.177124,363.175751 
	C507.254883,365.215454 505.829865,365.640411 504.263885,365.803802 
	C503.113678,365.923798 501.946564,365.892792 500.786713,365.906281 
	C499.594452,365.920135 498.316589,365.869049 498.232666,367.515717 
	C498.155090,369.037903 499.153992,369.493988 500.844269,369.424408 
z"/>
<path fill="#000000" opacity="1.000000" stroke="none" 
	d="
M791.948547,360.728821 
	C793.725464,360.791809 795.092834,360.667053 796.368286,360.952606 
	C800.376038,361.849762 802.941650,364.265076 802.955688,368.533844 
	C802.969971,372.861908 800.326721,375.367859 796.281921,375.936951 
	C793.215332,376.368347 790.744629,376.698151 790.807373,380.650269 
	C790.835144,382.398407 789.537476,383.235657 787.743652,383.129517 
	C785.871948,383.018799 785.050354,381.817902 785.038574,380.172394 
	C785.000549,374.858704 784.969055,369.539673 785.167053,364.231323 
	C785.331299,359.828583 788.834717,360.914093 791.948547,360.728821 
M791.613708,369.937683 
	C793.803589,371.400909 795.718689,371.275696 796.559387,368.558777 
	C797.043396,366.994629 795.693237,366.295685 794.288818,366.023346 
	C791.500061,365.482483 790.710876,366.773590 791.613708,369.937683 
z"/>
<path fill="#000000" opacity="1.000000" stroke="none" 
	d="
M605.648865,380.180115 
	C601.934753,379.026306 598.611450,378.162842 596.244019,382.157135 
	C595.409363,383.565186 593.667053,383.400665 591.884888,382.506226 
	C590.890991,379.445923 593.092102,376.953705 593.993591,374.262024 
	C595.258057,370.486389 596.745728,366.758942 598.475342,363.173615 
	C600.015808,359.980255 603.622925,359.767639 604.953735,362.844910 
	C607.639221,369.054718 609.891968,375.451630 612.349609,381.840149 
	C609.157288,384.163177 607.405945,382.845337 605.648865,380.180115 
z"/>
<path fill="#000000" opacity="1.000000" stroke="none" 
	d="
M844.537537,366.552429 
	C846.449341,371.555786 848.222839,376.190063 849.941162,380.844696 
	C850.092957,381.255951 849.884583,381.800201 849.841003,382.311066 
	C847.817322,383.671173 846.292664,383.240082 844.629822,381.530701 
	C841.490845,378.303894 838.215210,378.390472 834.981750,381.478363 
	C833.215149,383.165405 833.215149,383.165436 828.995911,382.144897 
	C831.605103,375.520844 833.897583,368.844360 836.893005,362.499878 
	C838.166748,359.802094 840.977234,359.880646 842.877014,362.528717 
	C843.625671,363.572144 843.896179,364.958527 844.537537,366.552429 
z"/>
<path fill="#000000" opacity="1.000000" stroke="none" 
	d="
M823.102234,378.442261 
	C825.672180,381.334595 824.726135,382.748596 821.527466,383.203125 
	C821.200378,383.249664 820.864014,383.227844 820.532715,383.248657 
	C808.957214,383.975311 808.957214,383.975525 808.960449,372.474762 
	C808.960571,371.976562 808.960571,371.478363 808.960754,370.980164 
	C808.963745,360.507965 811.286194,358.653503 821.562134,360.783234 
	C823.042236,361.089966 824.083191,361.593109 824.103149,363.243805 
	C824.123596,364.934601 822.935425,365.357056 821.566772,365.773285 
	C819.318176,366.457062 816.611694,364.798462 814.602844,366.947113 
	C815.328125,369.769440 817.557251,368.745056 819.165039,369.063538 
	C820.695679,369.366760 822.187927,369.626160 822.195862,371.640076 
	C822.203430,373.546936 821.049194,374.113159 819.321838,374.309601 
	C817.683044,374.496033 814.842957,373.564911 814.946716,376.150574 
	C815.062134,379.026886 818.023438,377.618988 819.770447,377.970703 
	C820.739746,378.165894 821.743958,378.187683 823.102234,378.442261 
z"/>
<path fill="#000000" opacity="1.000000" stroke="none" 
	d="
M680.716553,383.234985 
	C668.303284,383.166626 669.743591,384.531921 669.626465,372.528931 
	C669.621643,372.029419 669.626160,371.529877 669.626099,371.030334 
	C669.624695,360.172913 670.855225,359.145233 681.590149,360.750000 
	C683.274902,361.001831 684.597412,361.505280 684.618286,363.349304 
	C684.640625,365.315216 683.098572,365.692322 681.511292,365.838501 
	C681.180054,365.869019 680.830322,365.813751 680.516602,365.899078 
	C678.805054,366.364594 675.777954,364.481476 675.609070,367.492493 
	C675.450500,370.319641 678.397217,368.804504 679.960754,369.147064 
	C681.589355,369.503876 682.872192,370.051941 682.787476,371.968323 
	C682.713562,373.640900 681.550598,374.053589 680.083313,374.292450 
	C678.473206,374.554535 675.605896,373.437897 675.736450,376.119141 
	C675.874878,378.962830 678.845154,377.679932 680.624390,377.997223 
	C682.387573,378.311646 684.634949,377.979034 684.908081,380.448334 
	C685.205322,383.135590 683.029053,383.104126 680.716553,383.234985 
z"/>
<path fill="#000000" opacity="1.000000" stroke="none" 
	d="
M763.645203,373.961273 
	C763.644897,372.639679 763.645020,371.810211 763.643372,370.980713 
	C763.621460,360.074646 764.563416,359.284851 775.594910,360.738556 
	C777.189636,360.948669 778.667236,361.219635 778.761169,363.152313 
	C778.856079,365.105682 777.401245,365.607513 775.815674,365.799469 
	C774.994446,365.898865 774.156006,365.854095 773.334045,365.949554 
	C771.778992,366.130219 769.453857,365.643982 769.617126,368.060181 
	C769.757935,370.143433 771.855164,369.489838 773.260559,369.421631 
	C775.113647,369.331635 776.745972,369.591705 776.685181,371.892273 
	C776.624023,374.204895 774.792542,374.231598 773.076965,374.308014 
	C771.093628,374.396332 768.784851,374.171234 769.553650,377.500763 
	C771.718506,378.705505 774.116028,377.608093 776.342041,378.157898 
	C777.929932,378.550110 779.214844,379.152313 779.019531,381.084015 
	C778.845337,382.806427 777.506897,383.089050 776.133179,383.186035 
	C774.976562,383.267731 773.812256,383.253082 772.651306,383.259460 
	C763.640991,383.308868 763.640991,383.307251 763.645203,373.961273 
z"/>
<path fill="#000000" opacity="1.000000" stroke="none" 
	d="
M854.453735,360.749542 
	C858.716370,360.728882 862.529602,360.683502 866.340942,360.749603 
	C867.947876,360.777496 869.901794,360.563385 870.135559,362.929596 
	C870.372314,365.327087 868.681763,365.628815 866.887024,365.514526 
	C863.856018,365.321472 863.290405,367.095367 863.337524,369.594757 
	C863.399902,372.908569 863.362427,376.225311 863.308838,379.539795 
	C863.281860,381.208588 863.327087,383.032288 860.900024,383.089508 
	C858.376648,383.149017 857.934631,381.421631 857.901917,379.442719 
	C857.852600,376.459717 857.779785,373.473328 857.868835,370.492920 
	C857.949158,367.803009 857.220947,365.976501 854.152893,365.769135 
	C852.810425,365.678406 851.456177,365.253632 851.306274,363.554047 
	C851.137329,361.639801 852.279663,360.899902 854.453735,360.749542 
z"/>
<path fill="#000000" opacity="1.000000" stroke="none" 
	d="
M857.483154,264.017578 
	C853.356323,262.292023 851.013306,259.649414 852.057983,255.402344 
	C852.904785,251.959793 855.653503,250.271194 859.097717,250.162903 
	C862.748047,250.048111 865.528442,251.607513 866.653259,255.319153 
	C868.164307,260.304993 864.491577,263.961761 857.483154,264.017578 
z"/>
<path fill="#000000" opacity="1.000000" stroke="none" 
	d="
M538.808350,382.995544 
	C536.973267,381.328339 536.629578,379.691528 538.138977,378.032928 
	C539.113037,376.962585 540.345215,376.630310 541.708618,377.458008 
	C543.005798,378.245483 543.459900,379.432892 543.197937,380.847168 
	C542.768127,383.168152 541.221497,383.682556 538.808350,382.995544 
z"/>
<path fill="#000000" opacity="1.000000" stroke="none" 
	d="
M873.502441,377.395447 
	C876.021973,376.512329 877.359680,377.621338 877.952698,379.508392 
	C878.450134,381.090942 877.581909,382.384766 876.102844,383.064880 
	C874.808716,383.660004 873.492981,383.500916 872.588684,382.305786 
	C871.298462,380.600525 871.538452,378.988129 873.502441,377.395447 
z"/>
<path fill="#000000" opacity="1.000000" stroke="none" 
	d="
M719.534912,377.445129 
	C721.473083,379.109375 721.687500,380.694672 720.171997,382.306427 
	C719.163757,383.378571 717.873657,383.531433 716.619324,382.779205 
	C715.409973,382.054016 714.708618,380.891022 715.112305,379.482574 
	C715.691284,377.462646 717.054749,376.559845 719.534912,377.445129 
z"/>
<path fill="#000000" opacity="1.000000" stroke="none" 
	d="
M187.345490,277.262695 
	C197.717834,270.035156 207.555038,271.012115 217.373764,277.682739 
	C220.253647,279.639282 223.450897,281.125977 226.485779,282.857635 
	C234.220795,287.271057 239.065262,293.772308 239.799210,302.733521 
	C240.435852,310.506683 240.865540,318.339935 239.374527,326.095978 
	C238.252747,331.931274 235.372528,336.684418 230.169708,339.710297 
	C224.276474,343.137787 218.361588,346.555817 212.271072,349.608826 
	C205.448486,353.028839 198.403152,352.923462 191.628418,349.351685 
	C185.890610,346.326569 180.181931,343.207703 174.691162,339.762482 
	C168.160614,335.664795 164.933060,329.455566 164.728943,321.768280 
	C164.605270,317.110840 164.913055,312.437042 164.675735,307.788544 
	C164.064178,295.809265 169.565796,287.439850 179.645065,281.640747 
	C182.097137,280.229919 184.564056,278.844879 187.345490,277.262695 
M219.624619,337.073761 
	C221.784927,335.828033 223.942871,334.578217 226.106003,333.337433 
	C230.377106,330.887482 232.512161,327.108368 232.611740,322.280701 
	C232.738602,316.130096 232.746155,309.972656 232.609848,303.822449 
	C232.514069,299.500671 230.676712,298.312347 226.895767,300.299988 
	C220.866409,303.469604 214.999863,306.949677 209.076080,310.318878 
	C207.568665,311.176270 206.375046,312.336914 206.369186,314.217468 
	C206.342270,322.864502 206.247589,331.513367 206.398712,340.157745 
	C206.452164,343.214874 208.280533,343.755035 210.819763,342.240814 
	C213.532944,340.622864 216.268234,339.042023 219.624619,337.073761 
M198.684784,315.294464 
	C198.393448,314.535797 198.328445,313.449951 197.776443,313.068146 
	C190.803299,308.244690 183.599899,303.760925 176.010452,299.990784 
	C172.949005,298.470001 172.330627,300.978729 172.312561,303.382690 
	C172.268768,309.203064 172.444855,315.029236 172.244812,320.843170 
	C172.039047,326.823151 174.603714,331.042480 179.659927,333.944550 
	C184.272797,336.592163 188.872269,339.263733 193.509949,341.867249 
	C197.578171,344.151062 198.710968,343.464661 198.743088,338.595978 
	C198.792496,331.112640 198.735626,323.628632 198.684784,315.294464 
M189.935440,284.489990 
	C187.327927,285.960144 184.664291,287.340210 182.126282,288.921875 
	C178.474686,291.197540 178.428619,292.793793 182.076782,294.974335 
	C187.643036,298.301392 193.335129,301.417236 198.944672,304.673004 
	C200.680862,305.680695 202.310669,305.851227 204.109711,304.828918 
	C210.182617,301.378052 216.318481,298.036987 222.365204,294.541382 
	C225.482056,292.739502 225.301208,290.776123 222.206894,289.056976 
	C219.153976,287.360840 215.873169,285.995789 213.046021,283.987610 
	C205.432739,278.579620 198.035446,278.437500 189.935440,284.489990 
z"/>
<path fill="#000000" opacity="1.000000" stroke="none" 
	d="
M245.575195,364.513184 
	C236.934357,360.024536 228.625290,355.706451 219.104965,350.758881 
	C227.197144,346.111450 234.170517,342.325012 239.129852,335.964661 
	C242.687210,339.868073 253.238541,363.246613 253.587296,367.792969 
	C250.580627,367.741119 248.448776,365.658020 245.575195,364.513184 
z"/>
<path fill="#000000" opacity="1.000000" stroke="none" 
	d="
M156.125626,366.308105 
	C154.458466,367.130920 153.220749,368.057068 150.227310,367.670898 
	C154.379578,356.866394 159.777527,347.053070 164.739700,336.021545 
	C171.089127,341.927032 177.261963,346.530762 185.349686,350.736298 
	C175.385895,356.906189 165.748932,361.214020 156.125626,366.308105 
z"/>
<path fill="#000000" opacity="1.000000" stroke="none" 
	d="
M145.664978,309.895386 
	C146.089584,310.949646 146.386215,311.689575 146.783020,312.679352 
	C148.582809,310.660553 148.476395,308.224701 149.204849,306.119019 
	C149.928024,304.028687 150.938293,302.323334 153.451096,303.004852 
	C156.142639,303.734833 155.138474,305.810425 154.677292,307.508545 
	C153.544662,311.678986 152.327972,315.826630 151.144089,319.983124 
	C150.569016,322.002197 149.764664,323.762634 147.229599,323.800476 
	C144.665344,323.838745 143.884872,322.044403 143.257187,320.053986 
	C142.709122,318.316101 142.147934,316.582367 141.489029,314.523407 
	C139.547409,316.587494 139.619385,319.164337 138.695496,321.306213 
	C138.033371,322.841248 136.994247,323.738190 135.303299,323.768982 
	C133.866379,323.795166 132.584976,323.343658 132.079361,321.905334 
	C130.000702,315.992310 128.059937,310.036377 126.811768,303.952881 
	C130.185593,302.036316 131.937973,303.124359 132.866592,306.097778 
	C133.599243,308.443665 134.272018,310.808228 135.224503,314.017273 
	C136.192200,310.973175 136.890732,308.815399 137.563034,306.649475 
	C138.175842,304.675140 138.834274,302.765564 141.463058,302.902649 
	C143.848495,303.027008 144.247177,304.956665 144.821487,306.676880 
	C145.136200,307.619507 145.303314,308.611420 145.664978,309.895386 
z"/>
<path fill="#000000" opacity="1.000000" stroke="none" 
	d="
M171.484894,272.405090 
	C173.910995,273.839935 176.402878,274.472809 178.784424,277.118195 
	C173.330994,281.273468 168.370087,285.888763 163.546371,292.114563 
	C158.761124,282.074982 154.342148,273.142365 150.202499,262.194092 
	C158.430161,265.142395 164.690155,268.936249 171.484894,272.405090 
z"/>
<path fill="#000000" opacity="1.000000" stroke="none" 
	d="
M250.176239,272.013031 
	C247.201706,278.476746 244.372467,284.589050 240.927979,292.030548 
	C236.367554,285.645569 231.418900,281.212585 224.790436,276.924591 
	C234.347137,271.353668 242.926865,266.474060 252.596909,262.600891 
	C253.448944,266.614716 251.017761,268.912872 250.176239,272.013031 
z"/>
<path fill="#000000" opacity="1.000000" stroke="none" 
	d="
M199.337311,256.518250 
	C197.336502,257.590027 198.352402,259.439270 197.993835,260.949097 
	C197.613190,262.551941 197.044418,263.818176 195.171677,263.855469 
	C193.367188,263.891449 192.239670,262.873779 192.203766,261.167603 
	C192.098907,256.184448 191.884079,251.173553 192.290070,246.220886 
	C192.536209,243.218384 195.750137,242.735992 198.350098,245.271866 
	C200.350510,247.222916 202.040649,249.492111 203.941132,251.704056 
	C205.583618,250.247726 204.781555,248.451233 205.081985,246.926529 
	C205.431900,245.150711 205.895096,243.691544 208.147522,243.804657 
	C210.027344,243.899063 210.911957,245.049545 210.936295,246.688950 
	C211.007858,251.509064 211.179230,256.353302 210.788895,261.145538 
	C210.533249,264.283875 207.428207,265.019318 204.855560,262.620270 
	C202.921494,260.816650 201.341110,258.633789 199.337311,256.518250 
z"/>
<path fill="#000000" opacity="1.000000" stroke="none" 
	d="
M195.728149,373.258972 
	C193.078171,369.142853 194.066208,365.933716 197.471985,363.408844 
	C200.574234,361.109009 205.962997,361.639404 208.634949,364.263824 
	C209.517624,365.130768 210.251007,366.040619 209.365601,367.293762 
	C208.533432,368.471497 207.488373,369.098206 205.943665,368.602509 
	C204.226120,368.051361 202.426773,366.161926 200.671600,368.743896 
	C201.620361,371.233551 204.078140,371.106659 205.976654,371.886414 
	C209.231613,373.223267 211.383881,375.464417 210.776260,379.141235 
	C210.154892,382.901367 207.429367,384.773163 203.777161,385.213501 
	C200.092621,385.657745 196.797440,384.864380 194.517090,381.620331 
	C193.971298,380.843903 194.112579,379.994049 194.746704,379.343231 
	C195.794830,378.267609 197.052063,378.154114 198.418198,378.738800 
	C200.372116,379.575104 202.342606,380.733398 204.575378,378.545074 
	C202.707092,375.053894 198.141113,376.240845 195.728149,373.258972 
z"/>
<path fill="#000000" opacity="1.000000" stroke="none" 
	d="
M261.949280,318.745850 
	C263.467865,318.832886 264.636902,318.816467 265.783997,318.967072 
	C267.339142,319.171265 268.105164,320.144714 268.010345,321.718109 
	C267.928375,323.078613 267.098938,323.944061 265.817810,323.999786 
	C262.838379,324.129364 259.849854,324.139587 256.867401,324.080292 
	C254.841476,324.040039 254.573822,322.537720 254.579712,320.924927 
	C254.590042,318.102783 254.607605,315.280670 254.607025,312.458527 
	C254.605118,303.255310 255.628418,302.410858 264.984711,303.698608 
	C266.598511,303.920715 268.005280,304.220215 268.006531,306.209106 
	C268.007721,308.094421 266.662201,308.635895 265.101013,309.027344 
	C263.587708,309.406738 261.826965,308.594910 260.441772,309.913788 
	C261.318695,311.192810 262.591125,310.650665 263.644012,310.775970 
	C265.390472,310.983734 266.416595,311.692810 266.364746,313.598572 
	C266.313995,315.462280 265.314209,316.118591 263.560791,316.377106 
	C262.489380,316.535034 259.009979,315.276367 261.949280,318.745850 
z"/>
<path fill="#000000" opacity="1.000000" stroke="none" 
	d="
M219.233002,322.054626 
	C219.002853,323.396942 218.890289,324.409363 218.465210,325.266846 
	C217.517059,327.179565 216.558624,329.345245 213.850632,328.891022 
	C212.226852,328.618652 211.255707,327.305847 211.341965,325.671875 
	C211.476868,323.116455 212.395493,320.701691 214.713989,319.438416 
	C216.905045,318.244598 218.454834,319.393036 219.233002,322.054626 
z"/>
<path fill="#000000" opacity="1.000000" stroke="none" 
	d="
M227.740417,307.693054 
	C227.966553,308.987854 228.273575,310.076477 227.941742,310.911102 
	C226.984741,313.318298 226.187592,316.480469 222.752090,315.825348 
	C220.255768,315.349274 219.540894,313.129211 220.668411,310.718628 
	C222.037155,307.792450 223.335770,304.571625 227.740417,307.693054 
z"/>
<path fill="#000000" opacity="1.000000" stroke="none" 
	d="
M189.808472,334.020203 
	C189.058716,332.484802 188.357880,331.320099 188.005325,330.058136 
	C187.557556,328.455322 188.135422,327.043762 189.666901,326.277924 
	C191.260620,325.480865 192.726654,326.056671 193.574142,327.447388 
	C194.897110,329.618317 197.254593,331.820984 195.049973,334.594452 
	C193.492477,336.553864 191.603775,336.290039 189.808472,334.020203 
z"/>
<path fill="#000000" opacity="1.000000" stroke="none" 
	d="
M184.040024,324.268738 
	C183.308502,323.325317 182.822586,322.664001 182.437531,321.948395 
	C181.462646,320.136627 180.794296,318.185730 182.488098,316.523041 
	C183.855484,315.180817 185.608017,315.435028 186.901550,316.705688 
	C188.590378,318.364655 189.768021,320.483978 189.034424,322.895050 
	C188.310623,325.273956 186.468597,325.611359 184.040024,324.268738 
z"/>
<path fill="#000000" opacity="1.000000" stroke="none" 
	d="
M176.660767,305.336182 
	C181.726089,304.364288 182.382904,307.907288 183.171539,311.149200 
	C183.466141,312.360260 182.744659,313.439636 181.615570,314.022980 
	C180.312012,314.696533 178.833023,314.662354 177.952805,313.518097 
	C176.156021,311.182251 173.955154,308.781464 176.660767,305.336182 
z"/>
<path fill="#000000" opacity="1.000000" stroke="none" 
	d="
M204.992584,287.983307 
	C206.790527,290.462830 206.396469,292.454773 204.244095,293.780243 
	C202.616058,294.782806 200.720459,294.704254 199.268066,293.158813 
	C198.020065,291.830841 197.613129,290.248077 198.710602,288.657074 
	C200.329239,286.310577 202.413055,286.203827 204.992584,287.983307 
z"/>
</svg>