<svg version="1.1" id="Layer_1" xmlns="http://www.w3.org/2000/svg" xmlns:xlink="http://www.w3.org/1999/xlink" x="0px" y="0px"
	 width="100%" viewBox="0 0 1024 1024" enable-background="new 0 0 1024 1024" xml:space="preserve">
<path fill="#000000" opacity="1.000000" stroke="none" 
	d="
M790.545105,787.549316 
	C735.604858,842.474548 670.407410,878.024048 594.982483,894.808899 
	C561.504211,902.259033 527.469421,905.281860 493.329712,903.119324 
	C380.076752,895.945740 286.172333,849.650208 213.019180,762.331543 
	C177.088226,719.442871 151.446243,671.096375 136.294479,617.243896 
	C128.485718,589.489929 123.867691,561.239441 122.512718,532.357544 
	C118.782692,452.850159 136.950470,378.954437 177.715958,310.548706 
	C203.985184,266.468140 237.508301,228.946091 278.493652,198.140701 
	C328.912781,160.244659 385.205475,135.924698 447.492249,125.549774 
	C471.500366,121.550812 495.657104,118.972527 519.970093,119.839699 
	C630.450806,123.780235 724.904358,163.979568 800.527222,245.589951 
	C849.795410,298.758881 881.356689,361.256805 896.035950,432.191864 
	C900.380432,453.185913 902.621399,474.464386 903.486084,495.953674 
	C906.091187,560.694763 893.924011,622.399048 866.062744,680.852295 
	C847.116943,720.600891 821.595764,755.856201 790.545105,787.549316 
M547.346741,849.665771 
	C557.035339,848.228943 566.801636,847.185608 576.399902,845.290894 
	C634.698364,833.783081 686.149353,807.968994 731.558899,769.960693 
	C764.495544,742.392456 791.156189,709.639282 811.722046,671.845520 
	C833.672729,631.506775 846.667419,588.514160 850.532043,542.843994 
	C852.682739,517.429016 852.057861,492.005768 848.836853,466.627289 
	C844.762817,434.527924 836.110962,403.749237 822.807495,374.339203 
	C791.812012,305.817657 743.533081,252.892822 678.273376,215.503799 
	C633.768738,190.005936 585.798767,175.677826 534.694214,172.570587 
	C509.606750,171.045227 484.508911,172.116898 459.546082,176.218582 
	C414.907135,183.553268 373.343842,199.005539 335.128662,223.008209 
	C279.582458,257.896362 237.557449,305.177979 208.594757,364.014252 
	C189.721985,402.353302 178.702240,442.923889 175.477341,485.497803 
	C174.044601,504.412476 174.471680,523.371948 176.177994,542.326477 
	C178.498779,568.106750 183.428528,593.323792 191.853790,617.751892 
	C221.724182,704.357849 277.328552,769.255554 357.850769,812.701111 
	C406.222504,838.800049 458.133881,851.365173 513.066162,851.624817 
	C524.233643,851.677551 535.330688,850.695007 547.346741,849.665771 
z"/>
<path fill="#000000" opacity="1.000000" stroke="none" 
	d="
M687.098633,618.018799 
	C683.165405,623.838379 679.543335,629.435120 675.639832,634.828186 
	C673.943481,637.171814 673.650879,639.080383 675.257446,641.572144 
	C690.963440,665.931885 703.831604,692.002380 720.097778,716.027893 
	C720.540527,716.681824 720.851440,717.425049 721.502380,718.651428 
	C718.460693,718.823608 716.754089,717.053772 714.907043,715.970093 
	C691.202271,702.061951 667.508484,688.134155 643.908081,674.050171 
	C640.774231,672.179871 638.670776,672.175110 635.540405,674.339355 
	C607.463501,693.750366 576.551392,706.678345 542.881226,712.083130 
	C504.465698,718.249634 467.393646,711.982117 431.515686,697.531616 
	C417.067627,691.712341 403.559784,684.194763 390.983185,675.061157 
	C388.075775,672.949646 385.904907,673.026855 382.914337,674.635193 
	C358.992798,687.500610 335.672943,701.399170 312.403076,715.387756 
	C310.578735,716.484436 308.692352,717.477844 306.998749,718.427368 
	C305.709808,717.408203 306.238281,716.691101 306.662598,715.989014 
	C321.305969,691.758911 335.900696,667.499084 350.656952,643.337830 
	C352.689636,640.009644 352.636353,637.500305 350.347351,634.330139 
	C334.771973,612.758484 323.734375,589.041504 317.342468,563.196533 
	C306.672150,520.052002 308.380981,477.468262 323.869019,435.724030 
	C329.976654,419.262299 338.719391,404.056122 349.167694,389.935822 
	C352.282715,385.726013 352.495880,382.711517 349.369904,378.167358 
	C334.728058,356.882782 323.231903,333.649231 309.012146,312.084381 
	C307.754822,310.177612 306.510620,308.262177 305.283234,306.385864 
	C306.729553,304.976685 307.627167,306.039886 308.527252,306.634949 
	C332.039581,322.179291 357.082092,335.104004 381.377502,349.307159 
	C384.602386,351.192413 386.799744,351.160492 389.793549,348.885620 
	C410.864166,332.875275 434.230865,321.467010 459.874176,314.878418 
	C483.434753,308.824921 507.312531,307.092926 531.568604,309.492004 
	C570.069824,313.300079 604.803345,326.967987 636.442871,348.871185 
	C639.517090,350.999420 641.640259,351.038635 644.842041,349.121216 
	C669.418091,334.403503 694.807678,321.074280 719.025757,305.737732 
	C719.275757,305.579407 719.665527,305.641785 720.028870,305.596252 
	C721.307373,306.848938 720.005005,307.685638 719.461365,308.533295 
	C704.263550,332.230225 690.937988,357.079285 675.218811,380.450531 
	C673.246704,383.382660 673.365845,385.585175 675.377686,388.496338 
	C686.097595,404.008636 695.856812,420.071686 702.447815,437.864807 
	C708.890747,455.258179 712.681396,473.205963 714.426331,491.669189 
	C717.543945,524.656616 712.892456,556.615173 702.158020,587.786438 
	C698.511536,598.375183 693.049866,608.134277 687.098633,618.018799 
M395.221100,382.724396 
	C385.852478,391.540802 377.118561,400.995667 369.831787,411.562195 
	C345.522736,446.812561 336.322449,485.995667 340.190308,528.474426 
	C341.924469,547.519714 346.664948,565.793701 354.477295,583.170715 
	C367.030212,611.092285 385.803406,634.039001 410.644745,652.065430 
	C424.642853,662.223206 439.640350,670.246338 456.046814,675.771545 
	C483.719971,685.091064 511.961121,686.972107 540.704590,682.679199 
	C573.304199,677.810303 602.887207,666.741394 627.404419,643.421509 
	C643.654236,627.965210 657.808899,611.116760 668.089539,591.312683 
	C686.044434,556.725464 690.110901,519.804382 684.086670,481.693237 
	C679.146423,450.439484 666.798584,422.161896 645.719727,398.479309 
	C604.000183,351.606537 551.051270,332.706665 489.241211,339.737518 
	C453.858398,343.762329 422.311584,357.965515 395.221100,382.724396 
z"/>
<path fill="#000000" opacity="1.000000" stroke="none" 
	d="
M295.207520,474.970703 
	C289.225616,499.083252 283.243683,522.767151 277.539612,546.517822 
	C276.665314,550.158203 275.184814,551.401550 271.513855,551.426025 
	C257.536713,551.519104 257.511261,551.631531 254.314011,538.211731 
	C251.938507,528.241028 249.641998,518.251587 247.053040,507.169189 
	C243.502365,521.015137 240.156494,533.654358 237.069901,546.356567 
	C236.186554,549.991760 234.660202,551.479370 230.675980,551.458984 
	C217.391220,551.391296 217.339890,551.574036 214.134674,539.009766 
	C208.632141,517.440125 203.191620,495.854584 197.758026,474.267395 
	C197.439957,473.003693 197.415466,471.666046 197.174637,469.717773 
	C203.405914,469.717773 209.364487,469.677124 215.322037,469.737549 
	C217.742264,469.762085 218.034775,471.626770 218.437347,473.523163 
	C221.494217,487.923859 224.623138,502.309265 227.873642,517.366699 
	C231.338257,503.467529 234.751785,490.316071 237.833862,477.087433 
	C238.794724,472.963348 240.612823,471.420959 244.956299,471.562317 
	C259.094604,472.022430 255.846436,469.821045 258.991394,482.647858 
	C261.550873,493.086700 263.446320,503.688416 265.869202,515.338257 
	C268.843445,509.937622 269.372833,505.024139 270.563629,500.351166 
	C272.779602,491.655151 274.879517,482.927216 276.857208,474.174042 
	C277.589935,470.930878 278.990906,469.318573 282.598236,469.574005 
	C286.873688,469.876709 291.186951,469.645142 295.093781,469.645142 
	C296.456299,471.738342 295.352203,473.130310 295.207520,474.970703 
z"/>
<path fill="#000000" opacity="1.000000" stroke="none" 
	d="
M480.595032,281.351074 
	C477.763184,281.373810 477.643066,279.773468 477.623566,277.963470 
	C477.364990,253.974594 477.108154,229.985626 476.770081,205.997818 
	C476.725006,202.797775 477.943817,201.317337 481.171631,201.637207 
	C481.336426,201.653549 481.504669,201.637741 481.671234,201.632782 
	C497.106873,201.172394 497.092346,201.182327 505.941437,214.063080 
	C513.169067,224.583649 520.436890,235.076614 528.652039,245.346649 
	C528.652039,230.974197 528.652039,216.601761 528.652039,201.931732 
	C535.497803,201.931732 541.733521,201.931732 548.456787,201.931732 
	C548.060181,228.291672 548.786011,254.375870 547.194946,281.261078 
	C541.396851,281.261078 535.649475,281.312714 529.903992,281.232574 
	C527.940979,281.205200 527.249329,279.410828 526.337158,278.057068 
	C518.517761,266.452026 510.723114,254.830292 502.905243,243.224182 
	C501.424713,241.026276 499.874084,238.875595 497.486694,235.459503 
	C497.486694,251.441254 497.486694,266.048309 497.486694,280.823975 
	C491.608643,281.831390 486.299957,281.141083 480.595032,281.351074 
z"/>
<path fill="#000000" opacity="1.000000" stroke="none" 
	d="
M499.119446,783.086853 
	C485.162628,777.998352 480.365570,770.505005 481.687439,756.298279 
	C482.623749,746.235596 491.631714,737.885803 503.919281,735.806580 
	C514.008789,734.099243 523.742920,735.165955 533.040833,739.666626 
	C538.429321,742.274963 541.845093,746.560913 544.267212,751.892090 
	C545.736633,755.126282 545.361755,757.283752 541.604431,758.231506 
	C539.994019,758.637756 538.385681,759.122986 536.854736,759.760376 
	C532.214233,761.692627 528.631287,762.822693 525.178894,756.807739 
	C521.715271,750.773315 511.691071,749.724243 505.811279,753.263367 
	C501.015320,756.150085 500.804077,760.869995 505.370270,764.096069 
	C509.840088,767.254089 515.234314,767.963623 520.273010,769.613220 
	C524.696594,771.061523 529.194275,772.324463 533.518982,774.025757 
	C543.139954,777.810669 547.806946,785.359009 547.903748,795.370239 
	C547.999878,805.309753 544.271851,813.795044 534.980469,818.495483 
	C521.516541,825.306580 507.653503,824.962463 494.000458,819.035828 
	C486.303528,815.694702 482.140289,809.080994 479.877136,801.235474 
	C479.004333,798.209839 479.165100,795.594360 483.297943,795.181091 
	C484.931122,795.017822 486.515961,794.387451 488.127594,793.989075 
	C495.580292,792.146912 495.580872,792.149292 499.122681,798.651123 
	C503.869202,807.364624 517.878906,809.650330 525.160706,802.899292 
	C529.228149,799.128296 528.424011,793.792847 523.126465,791.050171 
	C515.681519,787.195618 507.312286,786.007446 499.119446,783.086853 
z"/>
<path fill="#000000" opacity="1.000000" stroke="none" 
	d="
M797.919739,499.658844 
	C806.002319,499.710327 806.040100,499.710266 806.055481,507.414154 
	C806.078796,519.063660 806.600220,517.161255 796.141846,517.291138 
	C790.811035,517.357361 785.475769,517.420410 780.148376,517.273438 
	C776.856506,517.182617 775.237244,518.185059 775.307739,521.798523 
	C775.587219,536.115784 773.554016,533.450500 786.601501,533.686646 
	C793.596863,533.813293 800.598511,533.811707 807.593201,533.666687 
	C810.891602,533.598328 812.450256,534.566284 812.370300,538.180237 
	C812.017151,554.146973 814.562378,551.119690 799.820129,551.330750 
	C786.494019,551.521545 773.161377,551.259460 759.834839,551.435486 
	C755.924377,551.487183 754.604126,550.174866 754.646606,546.248230 
	C754.898865,522.926392 754.502075,499.609375 753.772461,476.296448 
	C753.556091,469.382965 753.715637,469.500153 760.460815,469.540527 
	C775.621948,469.631287 790.783875,469.588654 805.945435,469.599945 
	C807.754333,469.601288 809.563232,469.600159 811.864807,469.600159 
	C811.864807,475.201996 811.864807,480.423920 811.864807,486.015900 
	C808.289001,486.914856 804.317627,486.306061 800.401428,486.372040 
	C793.573059,486.487061 786.737366,486.585236 779.913574,486.385834 
	C776.338928,486.281372 775.042847,487.721069 775.329590,491.094696 
	C775.428040,492.252655 775.471375,493.442078 775.323669,494.589294 
	C774.811890,498.565094 776.506409,499.913544 780.441345,499.726379 
	C786.093506,499.457611 791.767944,499.658569 797.919739,499.658844 
z"/>
<path fill="#000000" opacity="1.000000" stroke="none" 
	d="
M557.835083,642.899414 
	C548.449707,648.363281 539.285706,653.487549 530.310486,658.923584 
	C519.371155,665.549316 508.680267,666.172485 497.362122,659.521118 
	C463.327087,639.519775 429.173218,619.719116 394.969055,600.007812 
	C381.966644,592.514709 376.402130,581.634521 376.487000,566.627747 
	C376.599030,546.817017 375.663116,526.999084 375.689941,507.171265 
	C375.716522,487.511475 377.073730,467.885590 376.783630,448.213776 
	C376.638519,438.373596 382.854523,431.758118 390.575867,426.931061 
	C409.360931,415.187531 428.367371,403.796387 447.340057,392.355225 
	C463.032349,382.892212 478.940521,373.780182 494.497040,364.101257 
	C506.798187,356.447754 518.631592,356.253845 531.076111,363.734070 
	C564.625916,383.900391 598.320801,403.825378 631.973816,423.819763 
	C637.206116,426.928436 641.678528,430.862823 645.298767,435.731659 
	C648.556824,440.113373 650.352417,444.970825 650.343079,450.560120 
	C650.277466,489.723389 650.195435,528.887268 650.353210,568.049988 
	C650.409119,581.920410 644.327515,592.017517 632.689941,598.909058 
	C607.892334,613.593750 582.996033,628.111694 557.835083,642.899414 
M438.748169,458.675964 
	C440.888702,459.959869 443.031342,461.240265 445.169403,462.528259 
	C466.269379,475.238617 487.386047,487.921417 508.447418,500.695435 
	C511.292328,502.420898 513.552002,502.588623 516.614258,500.759399 
	C548.190918,481.897369 579.893066,463.245422 611.513733,444.456665 
	C617.145325,441.110382 617.129089,440.416656 611.424805,436.945679 
	C600.619690,430.370850 589.758240,423.884399 578.822937,417.528595 
	C559.542114,406.322144 540.177246,395.260345 520.872742,384.094482 
	C516.109314,381.339294 511.578949,380.428253 506.339569,383.389435 
	C475.763641,400.670288 445.708160,418.821960 415.741974,437.126434 
	C413.951233,438.220276 411.840027,439.051147 410.910858,441.842590 
	C419.963959,447.312439 429.048065,452.801025 438.748169,458.675964 
M559.969055,500.536163 
	C549.590515,506.854797 539.312073,513.347839 528.778015,519.395508 
	C525.191528,521.454468 524.195618,523.913330 524.207886,527.813293 
	C524.315857,562.116394 524.237671,596.420105 524.271240,630.723572 
	C524.272888,632.423218 523.527222,634.391113 525.629211,636.146729 
	C530.122681,633.545471 534.728027,630.931702 539.283508,628.233704 
	C565.351562,612.795044 591.324524,597.193237 617.517578,581.970032 
	C625.571655,577.289062 629.044495,571.333984 628.888977,561.743530 
	C628.376099,530.112427 628.695496,498.468079 628.634583,466.828949 
	C628.630920,464.937744 629.287048,462.865204 627.402832,460.476318 
	C605.135864,473.705902 582.866882,486.936707 559.969055,500.536163 
M501.655670,608.500061 
	C501.652740,582.023865 501.639465,555.547668 501.661469,529.071472 
	C501.663879,526.161499 501.514343,523.678406 498.486755,521.858948 
	C466.672272,502.738983 434.938293,483.485077 403.160339,464.304199 
	C401.646393,463.390411 400.184479,462.159027 398.123810,462.285217 
	C396.794586,464.262085 397.383575,466.484528 397.380249,468.564880 
	C397.333496,497.705292 398.199127,526.881226 396.990051,555.971497 
	C396.379883,570.652344 401.992767,579.002380 414.105011,585.869690 
	C441.900116,601.628662 469.213287,618.237549 496.739258,634.472290 
	C497.970032,635.198181 499.163452,636.315796 501.655243,635.513977 
	C501.655243,627.007629 501.655243,618.253906 501.655670,608.500061 
z"/>
<path fill="#000000" opacity="1.000000" stroke="none" 
	d="
M495.474487,443.264557 
	C492.927124,434.363678 496.675537,428.283783 505.374176,426.500610 
	C511.357971,425.273956 517.309998,426.365295 523.156067,427.195557 
	C528.581238,427.966034 532.626892,434.213043 531.994263,439.354797 
	C531.290588,445.074310 526.788513,449.177124 520.795776,449.342041 
	C516.153320,449.469818 511.490326,449.149780 506.862915,449.444214 
	C501.810730,449.765656 498.207550,447.825012 495.474487,443.264557 
z"/>
<path fill="#000000" opacity="1.000000" stroke="none" 
	d="
M571.414001,567.851624 
	C568.857971,572.952454 566.603210,577.769226 563.112671,581.844971 
	C559.185364,586.430847 552.183594,587.978394 547.378723,585.324280 
	C542.723022,582.752563 540.406250,575.636536 542.704956,570.009583 
	C544.914307,564.601257 548.001160,559.681274 552.351929,555.684448 
	C557.154175,551.272949 562.564453,550.509949 567.356995,553.466492 
	C571.860291,556.244690 573.233704,560.825378 571.414001,567.851624 
z"/>
<path fill="#000000" opacity="1.000000" stroke="none" 
	d="
M597.346191,497.198883 
	C602.215637,493.236115 606.500122,492.663788 610.862854,495.166901 
	C615.060852,497.575500 617.126770,502.083954 615.613525,507.721802 
	C613.363342,516.105347 609.389954,523.532104 600.899353,527.280823 
	C596.137634,529.383240 592.034546,527.773254 588.861633,523.990845 
	C585.642273,520.153076 584.219666,515.715393 587.043335,511.096222 
	C589.987000,506.280792 592.967407,501.436798 597.346191,497.198883 
z"/>
<path fill="#000000" opacity="1.000000" stroke="none" 
	d="
M438.640503,558.263428 
	C436.946136,555.562195 435.348999,553.234924 434.436462,550.508667 
	C432.532410,544.820374 434.589111,538.656616 439.465942,535.684021 
	C444.493225,532.619690 450.860016,533.328979 455.021118,537.682190 
	C458.016632,540.815979 460.518372,544.400879 462.480194,548.260254 
	C465.431976,554.067078 463.995514,560.071838 458.930145,564.386353 
	C454.449127,568.203186 449.608765,568.080383 443.908142,564.017639 
	C441.843719,562.546326 440.219147,560.670776 438.640503,558.263428 
z"/>
<path fill="#000000" opacity="1.000000" stroke="none" 
	d="
M427.885773,493.759094 
	C434.868073,497.827576 436.969696,504.651581 438.908295,511.336823 
	C440.069214,515.340271 435.705963,521.772522 431.337219,523.839966 
	C426.361267,526.194702 421.771057,525.474609 418.217926,521.362854 
	C414.016541,516.500854 410.451263,511.100220 410.890350,504.362640 
	C411.516083,494.761230 418.324615,490.537354 427.885773,493.759094 
z"/>
<path fill="#000000" opacity="1.000000" stroke="none" 
	d="
M471.930969,606.469482 
	C467.705292,603.297485 464.681091,599.527100 462.065613,595.451355 
	C458.312988,589.603638 459.686401,581.506958 464.850128,578.091553 
	C471.196198,573.894165 477.302094,575.265198 482.034332,582.045654 
	C483.843140,584.637268 485.672363,587.248352 487.144348,590.034363 
	C490.160461,595.742798 489.670013,601.285645 485.662903,605.242249 
	C481.690247,609.164795 477.022491,608.904236 471.930969,606.469482 
z"/>
</svg>